<?xml version="1.0" standalone="no"?>
<!DOCTYPE svg PUBLIC "-//W3C//DTD SVG 20010904//EN"
 "http://www.w3.org/TR/2001/REC-SVG-20010904/DTD/svg10.dtd">
<svg version="1.0" xmlns="http://www.w3.org/2000/svg"
 width="519.000000pt" height="519.000000pt" viewBox="0 0 519.000000 519.000000"
 preserveAspectRatio="xMidYMid meet">
<metadata>
Created by potrace 1.11, written by Peter Selinger 2001-2013
</metadata>
<g transform="translate(0.000000,519.000000) scale(0.100000,-0.100000)"
fill="#000000" stroke="none">
<path d="M7 5183 c-4 -3 -7 -13 -7 -22 0 -9 574 -590 1275 -1291 l1275 -1275
-1276 -1276 c-944 -944 -1275 -1281 -1272 -1295 2 -11 13 -20 27 -22 20 -3
225 197 1298 1270 l1273 1273 1274 -1274 c938 -938 1278 -1272 1292 -1269 10
2 20 12 22 22 3 14 -331 354 -1269 1292 l-1274 1274 1273 1273 c1073 1073
1273 1278 1270 1298 -2 14 -11 25 -22 27 -14 3 -351 -328 -1295 -1272 l-1276
-1276 -1275 1275 c-701 701 -1282 1275 -1291 1275 -9 0 -19 -3 -22 -7z m1313
-1288 l1275 -1275 1275 1275 c701 701 1281 1275 1287 1275 7 0 13 -6 13 -13 0
-6 -574 -586 -1275 -1287 l-1275 -1275 1275 -1275 c701 -701 1275 -1281 1275
-1288 0 -6 -6 -12 -12 -12 -7 0 -587 574 -1288 1275 l-1275 1275 -1275 -1275
c-701 -701 -1281 -1275 -1287 -1275 -7 0 -13 6 -13 13 0 6 574 586 1275 1287
l1275 1275 -1275 1275 c-701 701 -1275 1281 -1275 1288 0 6 6 12 12 12 7 0
587 -574 1288 -1275z"/>
</g>
</svg>
