<?xml version="1.0" standalone="no"?>
<!DOCTYPE svg PUBLIC "-//W3C//DTD SVG 20010904//EN"
 "http://www.w3.org/TR/2001/REC-SVG-20010904/DTD/svg10.dtd">
<svg version="1.0" xmlns="http://www.w3.org/2000/svg"
 width="519.000000pt" height="519.000000pt" viewBox="0 0 519.000000 519.000000"
 preserveAspectRatio="xMidYMid meet">
<metadata>
Created by potrace 1.11, written by Peter Selinger 2001-2013
</metadata>
<g transform="translate(0.000000,519.000000) scale(0.100000,-0.100000)"
fill="#000000" stroke="none">
<path d="M20 5170 c-11 -11 -20 -30 -20 -43 0 -16 332 -354 1255 -1277 l1255
-1255 -1255 -1255 c-1326 -1326 -1284 -1281 -1237 -1323 52 -47 -14 -107 1329
1235 l1253 1253 1253 -1253 c1115 -1115 1255 -1252 1283 -1252 38 0 54 16 54
54 0 28 -137 168 -1252 1283 l-1253 1253 1253 1253 c1122 1122 1252 1255 1252
1283 0 36 -26 64 -61 64 -18 0 -306 -282 -1279 -1255 l-1255 -1255 -1255 1255
c-923 923 -1261 1255 -1277 1255 -13 0 -32 -9 -43 -20z m1315 -1270 l1260
-1260 1260 1260 c693 693 1267 1260 1275 1260 18 0 40 -19 40 -34 0 -6 -568
-579 -1262 -1273 l-1263 -1263 1263 -1263 c932 -932 1261 -1267 1257 -1279 -4
-9 -14 -19 -23 -23 -12 -4 -347 325 -1279 1257 l-1263 1263 -1263 -1263 c-694
-694 -1267 -1262 -1273 -1262 -15 0 -34 22 -34 40 0 8 567 582 1260 1275
l1260 1260 -1260 1260 c-693 693 -1260 1267 -1260 1276 0 20 9 29 29 29 9 0
583 -567 1276 -1260z"/>
</g>
</svg>
