<?xml version="1.0" standalone="no"?>
<!DOCTYPE svg PUBLIC "-//W3C//DTD SVG 20010904//EN"
 "http://www.w3.org/TR/2001/REC-SVG-20010904/DTD/svg10.dtd">
<svg version="1.0" xmlns="http://www.w3.org/2000/svg"
 width="520.000000pt" height="520.000000pt" viewBox="0 0 520.000000 520.000000"
 preserveAspectRatio="xMidYMid meet">
<metadata>
Created by potrace 1.11, written by Peter Selinger 2001-2013
</metadata>
<g transform="translate(0.000000,520.000000) scale(0.100000,-0.100000)"
fill="#000000" stroke="none">
<path d="M70 5190 c0 -5 -8 -10 -19 -10 -40 0 -63 -69 -38 -116 9 -16 564
-577 1234 -1246 l1218 -1218 -1230 -1230 -1230 -1230 0 -46 c0 -58 28 -84 89
-84 l41 0 1232 1232 1233 1233 1233 -1233 c1203 -1203 1233 -1232 1270 -1232
52 0 87 35 87 87 0 37 -29 67 -1232 1270 l-1233 1233 1233 1233 1232 1232 0
43 c0 28 -6 48 -20 62 -25 25 -68 36 -83 21 -6 -6 -18 -11 -27 -11 -8 0 -565
-550 -1238 -1223 l-1222 -1222 -1213 1213 c-791 792 -1226 1220 -1251 1233
-44 21 -66 24 -66 9z m1280 -1275 l1245 -1245 1245 1245 c685 685 1253 1245
1262 1245 23 0 48 -27 48 -53 0 -16 -353 -375 -1242 -1264 l-1243 -1243 1243
-1243 c841 -841 1242 -1249 1242 -1263 0 -11 -5 -25 -12 -32 -7 -7 -21 -12
-32 -12 -14 0 -422 401 -1263 1242 l-1243 1243 -1243 -1243 c-889 -889 -1248
-1242 -1264 -1242 -26 0 -53 25 -53 48 0 9 560 577 1245 1262 l1245 1245
-1245 1245 c-685 685 -1245 1251 -1245 1258 0 16 36 52 52 52 7 0 573 -560
1258 -1245z"/>
</g>
</svg>
