<?xml version="1.0" standalone="no"?>
<!DOCTYPE svg PUBLIC "-//W3C//DTD SVG 20010904//EN"
 "http://www.w3.org/TR/2001/REC-SVG-20010904/DTD/svg10.dtd">
<svg version="1.0" xmlns="http://www.w3.org/2000/svg"
 width="519.000000pt" height="519.000000pt" viewBox="0 0 519.000000 519.000000"
 preserveAspectRatio="xMidYMid meet">
<metadata>
Created by potrace 1.11, written by Peter Selinger 2001-2013
</metadata>
<g transform="translate(0.000000,519.000000) scale(0.100000,-0.100000)"
fill="#000000" stroke="none">
<path d="M70 5172 c-46 -23 -75 -79 -65 -130 6 -33 144 -175 1213 -1245 l1207
-1207 -1207 -1208 c-1312 -1313 -1242 -1236 -1204 -1310 34 -66 103 -90 164
-58 15 8 565 553 1222 1210 l1195 1196 1195 -1194 c657 -656 1206 -1201 1220
-1210 51 -34 136 -11 165 44 20 38 19 89 -1 120 -9 14 -554 563 -1210 1220
l-1194 1195 1196 1195 c657 657 1202 1207 1210 1222 32 61 8 130 -58 164 -74
38 3 108 -1310 -1204 l-1208 -1207 -1202 1202 c-681 681 -1215 1207 -1231
1213 -39 14 -56 13 -97 -8z m1300 -1267 l1225 -1225 1220 1220 c671 671 1230
1223 1243 1226 35 10 72 -20 72 -59 0 -29 -106 -138 -1222 -1254 l-1223 -1223
1223 -1223 c949 -949 1222 -1227 1222 -1246 0 -33 -27 -61 -59 -61 -21 0 -254
228 -1248 1222 l-1223 1223 -1223 -1223 c-1116 -1116 -1225 -1222 -1254 -1222
-39 0 -69 37 -59 72 3 13 555 572 1226 1243 l1220 1220 -1225 1225 c-898 898
-1225 1231 -1225 1248 0 28 34 62 62 62 17 0 350 -327 1248 -1225z"/>
</g>
</svg>
