<?xml version="1.0" standalone="no"?>
<!DOCTYPE svg PUBLIC "-//W3C//DTD SVG 20010904//EN"
 "http://www.w3.org/TR/2001/REC-SVG-20010904/DTD/svg10.dtd">
<svg version="1.0" xmlns="http://www.w3.org/2000/svg"
 width="519.000000pt" height="519.000000pt" viewBox="0 0 519.000000 519.000000"
 preserveAspectRatio="xMidYMid meet">
<metadata>
Created by potrace 1.11, written by Peter Selinger 2001-2013
</metadata>
<g transform="translate(0.000000,519.000000) scale(0.100000,-0.100000)"
fill="#000000" stroke="none">
<path d="M82 5173 c-61 -30 -91 -96 -78 -170 7 -34 131 -162 1194 -1226 l1187
-1187 -1182 -1183 c-649 -650 -1186 -1192 -1192 -1204 -30 -59 -1 -145 61
-183 37 -22 106 -27 141 -9 12 6 553 542 1202 1190 l1180 1179 1175 -1176
c646 -646 1187 -1182 1202 -1190 15 -8 50 -14 79 -14 48 0 55 3 95 44 41 40
44 47 44 95 0 29 -6 64 -14 79 -8 15 -544 556 -1190 1202 l-1176 1175 1179
1180 c648 649 1184 1190 1190 1202 18 35 13 104 -9 141 -38 62 -124 91 -183
61 -12 -6 -554 -543 -1204 -1193 l-1183 -1181 -1182 1182 c-671 671 -1195
1187 -1211 1193 -40 14 -87 12 -125 -7z m1308 -1269 l1205 -1204 1200 1201
c660 660 1210 1205 1222 1209 49 20 103 -24 103 -83 0 -15 -341 -363 -1207
-1229 l-1208 -1208 1208 -1208 c1308 -1309 1238 -1232 1182 -1287 -55 -56 22
-126 -1287 1182 l-1208 1208 -1208 -1208 c-866 -866 -1214 -1207 -1229 -1207
-59 0 -103 54 -83 103 4 12 549 562 1209 1222 l1201 1200 -1207 1207 c-1071
1071 -1206 1210 -1206 1237 0 49 44 86 88 74 11 -3 562 -547 1225 -1209z"/>
</g>
</svg>
