<?xml version="1.0" standalone="no"?>
<!DOCTYPE svg PUBLIC "-//W3C//DTD SVG 20010904//EN"
 "http://www.w3.org/TR/2001/REC-SVG-20010904/DTD/svg10.dtd">
<svg version="1.0" xmlns="http://www.w3.org/2000/svg"
 width="519.000000pt" height="519.000000pt" viewBox="0 0 519.000000 519.000000"
 preserveAspectRatio="xMidYMid meet">
<metadata>
Created by potrace 1.11, written by Peter Selinger 2001-2013
</metadata>
<g transform="translate(0.000000,519.000000) scale(0.100000,-0.100000)"
fill="#000000" stroke="none">
<path d="M123 5179 c-66 -19 -123 -102 -123 -179 0 -14 9 -43 19 -65 13 -28
376 -396 1170 -1190 l1151 -1150 -1159 -1160 c-1222 -1222 -1181 -1179 -1181
-1263 0 -29 26 -91 48 -115 47 -52 140 -71 205 -43 19 8 511 493 1187 1170
l1155 1156 1160 -1160 c656 -655 1172 -1164 1188 -1170 147 -54 291 90 237
237 -6 16 -515 532 -1170 1188 l-1160 1160 1156 1155 c677 676 1162 1168 1170
1187 28 65 9 158 -43 205 -24 22 -86 48 -115 48 -84 0 -41 41 -1263 -1181
l-1160 -1159 -1150 1151 c-794 794 -1162 1157 -1190 1170 -43 20 -82 22 -132
8z m100 -90 c12 -6 552 -540 1199 -1187 l1178 -1177 1188 1188 c1076 1076
1190 1187 1219 1187 19 0 43 -10 62 -26 25 -21 31 -33 31 -67 l0 -42 -1185
-1185 -1185 -1185 1185 -1185 1185 -1185 0 -43 c0 -59 -33 -92 -92 -92 l-43 0
-1185 1185 -1185 1185 -1185 -1185 -1185 -1185 -42 0 c-34 0 -46 6 -67 31 -16
19 -26 43 -26 62 0 29 111 143 1187 1219 l1188 1188 -1177 1178 c-647 647
-1181 1187 -1187 1199 -19 37 -13 73 18 104 31 31 67 37 104 18z"/>
</g>
</svg>
