<?xml version="1.0" standalone="no"?>
<!DOCTYPE svg PUBLIC "-//W3C//DTD SVG 20010904//EN"
 "http://www.w3.org/TR/2001/REC-SVG-20010904/DTD/svg10.dtd">
<svg version="1.0" xmlns="http://www.w3.org/2000/svg"
 width="519.000000pt" height="519.000000pt" viewBox="0 0 519.000000 519.000000"
 preserveAspectRatio="xMidYMid meet">
<metadata>
Created by potrace 1.11, written by Peter Selinger 2001-2013
</metadata>
<g transform="translate(0.000000,519.000000) scale(0.100000,-0.100000)"
fill="#000000" stroke="none">
<path d="M109 5167 c-91 -48 -133 -162 -95 -260 13 -34 233 -259 1151 -1177
l1135 -1135 -1135 -1135 c-802 -803 -1139 -1146 -1150 -1172 -42 -102 0 -219
97 -269 47 -24 146 -26 191 -3 18 9 540 523 1160 1143 620 619 1130 1128 1133
1131 3 2 516 -507 1142 -1132 643 -643 1149 -1142 1165 -1148 37 -13 128 -13
164 1 38 14 92 67 109 106 17 38 18 130 4 170 -6 16 -505 522 -1148 1165 -625
626 -1134 1139 -1132 1142 3 3 512 513 1131 1133 620 620 1134 1142 1143 1160
23 45 21 144 -3 191 -50 97 -167 139 -269 97 -26 -11 -369 -348 -1172 -1150
l-1135 -1135 -1130 1131 c-779 780 -1142 1137 -1170 1150 -56 26 -131 25 -186
-4z m138 -87 c16 -6 531 -514 1191 -1173 l1162 -1162 1170 1170 1170 1170 46
0 c39 0 50 -5 75 -33 22 -25 29 -42 29 -75 l0 -42 -1170 -1170 -1170 -1170
1156 -1155 c635 -635 1162 -1167 1170 -1182 51 -97 -47 -195 -144 -144 -15 8
-547 535 -1182 1170 l-1155 1156 -1170 -1170 -1170 -1170 -42 0 c-33 0 -50 7
-75 29 -28 25 -33 36 -33 75 l0 46 1170 1170 1170 1170 -1167 1167 c-1023
1024 -1168 1172 -1173 1204 -8 45 14 92 53 113 33 18 52 19 89 6z"/>
</g>
</svg>
