<?xml version="1.0" standalone="no"?>
<!DOCTYPE svg PUBLIC "-//W3C//DTD SVG 20010904//EN"
 "http://www.w3.org/TR/2001/REC-SVG-20010904/DTD/svg10.dtd">
<svg version="1.0" xmlns="http://www.w3.org/2000/svg"
 width="519.000000pt" height="519.000000pt" viewBox="0 0 519.000000 519.000000"
 preserveAspectRatio="xMidYMid meet">
<metadata>
Created by potrace 1.11, written by Peter Selinger 2001-2013
</metadata>
<g transform="translate(0.000000,519.000000) scale(0.100000,-0.100000)"
fill="#000000" stroke="none">
<path d="M180 5181 c-71 -23 -122 -66 -156 -131 -26 -51 -25 -153 3 -205 13
-24 470 -488 1127 -1145 l1106 -1105 -1109 -1110 c-610 -610 -1116 -1123
-1124 -1140 -23 -48 -30 -111 -17 -165 14 -60 77 -135 135 -161 54 -25 138
-24 195 2 35 15 290 264 1152 1127 l1108 1107 1117 -1117 c1029 -1028 1122
-1117 1163 -1128 189 -50 350 111 300 300 -11 41 -100 134 -1128 1163 l-1117
1117 1107 1108 c863 862 1112 1117 1127 1152 26 57 27 141 2 195 -26 58 -101
121 -161 135 -54 13 -117 6 -165 -17 -16 -8 -530 -514 -1140 -1124 l-1110
-1109 -1105 1106 c-660 660 -1121 1113 -1144 1126 -43 22 -127 32 -166 19z
m107 -121 c16 -6 524 -507 1171 -1153 l1142 -1142 1143 1142 c628 627 1152
1146 1164 1152 30 15 59 14 99 -5 59 -28 81 -102 50 -162 -8 -15 -526 -538
-1150 -1162 l-1136 -1135 1134 -1135 c623 -624 1141 -1146 1150 -1160 20 -31
21 -82 1 -120 -29 -55 -114 -78 -165 -44 -14 9 -536 527 -1160 1150 l-1135
1134 -1135 -1136 c-624 -624 -1147 -1142 -1162 -1150 -61 -32 -134 -9 -163 52
-39 83 -116 -2 1142 1256 l1148 1148 -1147 1147 c-1209 1211 -1169 1168 -1153
1242 6 28 47 74 75 84 25 9 57 8 87 -3z"/>
</g>
</svg>
