<?xml version="1.0" standalone="no"?>
<!DOCTYPE svg PUBLIC "-//W3C//DTD SVG 20010904//EN"
 "http://www.w3.org/TR/2001/REC-SVG-20010904/DTD/svg10.dtd">
<svg version="1.0" xmlns="http://www.w3.org/2000/svg"
 width="519.000000pt" height="519.000000pt" viewBox="0 0 519.000000 519.000000"
 preserveAspectRatio="xMidYMid meet">
<metadata>
Created by potrace 1.11, written by Peter Selinger 2001-2013
</metadata>
<g transform="translate(0.000000,519.000000) scale(0.100000,-0.100000)"
fill="#000000" stroke="none">
<path d="M185 5178 c-157 -58 -228 -232 -155 -379 16 -31 338 -361 1103 -1127
l1082 -1082 -1087 -1088 c-597 -598 -1094 -1103 -1104 -1122 -14 -25 -19 -57
-19 -115 0 -88 11 -117 68 -181 72 -83 212 -110 313 -59 38 19 292 268 1129
1105 l1080 1080 1085 -1084 c737 -735 1098 -1089 1125 -1102 55 -26 185 -26
236 -1 47 23 103 79 126 126 25 51 25 181 -1 236 -13 27 -367 388 -1102 1125
l-1084 1085 1080 1080 c837 837 1086 1091 1105 1129 51 101 24 241 -59 313
-64 57 -93 68 -181 68 -58 0 -90 -5 -115 -19 -19 -10 -524 -507 -1122 -1104
l-1088 -1087 -1082 1082 c-783 781 -1095 1087 -1128 1104 -52 25 -159 35 -205
17z m125 -114 c14 -9 535 -526 1157 -1148 l1133 -1131 1127 1127 c880 880
1136 1130 1162 1138 48 14 103 -3 135 -41 32 -38 40 -68 31 -117 -6 -33 -130
-161 -1136 -1167 l-1129 -1130 1131 -1130 c622 -622 1137 -1142 1145 -1157 32
-61 10 -148 -46 -182 -35 -20 -102 -21 -138 -2 -15 8 -535 523 -1157 1145
l-1130 1131 -1130 -1129 c-1006 -1006 -1134 -1130 -1167 -1136 -49 -9 -79 -1
-117 31 -38 32 -55 87 -41 135 8 26 258 282 1138 1162 l1127 1127 -1131 1133
c-622 622 -1139 1143 -1148 1157 -20 31 -21 92 -1 131 32 62 130 89 185 53z"/>
</g>
</svg>
