<?xml version="1.0" standalone="no"?>
<!DOCTYPE svg PUBLIC "-//W3C//DTD SVG 20010904//EN"
 "http://www.w3.org/TR/2001/REC-SVG-20010904/DTD/svg10.dtd">
<svg version="1.0" xmlns="http://www.w3.org/2000/svg"
 width="519.000000pt" height="519.000000pt" viewBox="0 0 519.000000 519.000000"
 preserveAspectRatio="xMidYMid meet">
<metadata>
Created by potrace 1.11, written by Peter Selinger 2001-2013
</metadata>
<g transform="translate(0.000000,519.000000) scale(0.100000,-0.100000)"
fill="#000000" stroke="none">
<path d="M190 5173 c-66 -24 -152 -114 -175 -182 -25 -75 -17 -171 19 -238 20
-35 321 -343 1081 -1103 l1055 -1055 -1059 -1060 c-838 -840 -1063 -1070
-1081 -1108 -71 -151 -11 -326 135 -398 60 -29 70 -31 148 -27 68 3 92 9 128
30 25 15 506 489 1099 1082 l1055 1056 1060 -1060 c1174 -1173 1104 -1110
1236 -1110 94 0 154 24 215 84 60 61 84 121 84 215 0 132 63 62 -1110 1236
l-1060 1060 1056 1055 c593 593 1067 1074 1082 1099 21 36 27 60 30 128 4 78
2 88 -27 148 -55 111 -160 171 -284 163 -124 -8 -70 41 -1222 -1109 l-1060
-1059 -1055 1055 c-768 768 -1068 1061 -1104 1081 -64 35 -176 43 -246 17z
m180 -149 c14 -9 521 -512 1127 -1118 l1103 -1101 1118 1118 1117 1117 55 0
c72 0 115 -26 141 -86 15 -34 19 -56 14 -87 -6 -40 -67 -103 -1121 -1157
l-1114 -1115 1101 -1100 c825 -824 1106 -1111 1121 -1143 27 -61 17 -115 -31
-163 -48 -48 -102 -58 -163 -31 -32 15 -319 296 -1143 1121 l-1100 1101 -1115
-1114 c-1054 -1054 -1117 -1115 -1157 -1121 -31 -5 -53 -1 -87 14 -60 26 -86
69 -86 141 l0 55 1117 1117 1118 1118 -1101 1103 c-606 606 -1109 1113 -1118
1127 -10 15 -16 45 -16 79 0 50 3 57 44 97 40 41 47 44 97 44 34 0 64 -6 79
-16z"/>
</g>
</svg>
