<?xml version="1.0" standalone="no"?>
<!DOCTYPE svg PUBLIC "-//W3C//DTD SVG 20010904//EN"
 "http://www.w3.org/TR/2001/REC-SVG-20010904/DTD/svg10.dtd">
<svg version="1.0" xmlns="http://www.w3.org/2000/svg"
 width="520.000000pt" height="520.000000pt" viewBox="0 0 520.000000 520.000000"
 preserveAspectRatio="xMidYMid meet">
<metadata>
Created by potrace 1.11, written by Peter Selinger 2001-2013
</metadata>
<g transform="translate(0.000000,520.000000) scale(0.100000,-0.100000)"
fill="#000000" stroke="none">
<path d="M252 5185 c-62 -17 -93 -36 -148 -90 -84 -81 -118 -194 -95 -313 8
-37 20 -83 29 -102 9 -22 386 -406 1036 -1057 l1021 -1023 -1017 -1017 c-662
-664 -1023 -1032 -1036 -1058 -29 -60 -45 -151 -38 -220 12 -112 80 -211 188
-270 50 -28 60 -30 163 -30 101 0 114 2 165 28 45 23 249 222 1070 1043 l1015
1014 1020 -1020 c1131 -1132 1052 -1061 1201 -1068 135 -7 238 39 309 136 49
67 68 139 63 237 -8 149 63 69 -1068 1200 l-1020 1020 1014 1015 c821 821
1020 1025 1043 1070 26 51 28 64 28 165 0 104 -2 113 -30 164 -39 71 -95 125
-164 158 -49 24 -67 28 -151 27 -170 0 -70 88 -1228 -1068 l-1022 -1021 -1018
1016 c-559 559 -1033 1025 -1052 1037 -71 41 -184 52 -278 27z m163 -156 c35
-9 183 -154 1112 -1082 l1073 -1072 1067 1066 c1165 1163 1106 1110 1205 1095
117 -18 186 -120 164 -243 -7 -34 -118 -148 -1084 -1116 l-1077 -1077 1067
-1068 c586 -587 1073 -1081 1082 -1099 38 -77 6 -193 -66 -241 -52 -34 -139
-42 -189 -17 -19 9 -514 497 -1101 1083 l-1068 1067 -1077 -1077 c-968 -966
-1082 -1077 -1116 -1084 -123 -22 -225 47 -243 164 -15 99 -68 40 1095 1205
l1066 1067 -1072 1073 c-983 984 -1073 1076 -1083 1117 -27 102 26 203 125
238 40 14 72 14 120 1z"/>
</g>
</svg>
