<?xml version="1.0" standalone="no"?>
<!DOCTYPE svg PUBLIC "-//W3C//DTD SVG 20010904//EN"
 "http://www.w3.org/TR/2001/REC-SVG-20010904/DTD/svg10.dtd">
<svg version="1.0" xmlns="http://www.w3.org/2000/svg"
 width="520.000000pt" height="520.000000pt" viewBox="0 0 520.000000 520.000000"
 preserveAspectRatio="xMidYMid meet">
<metadata>
Created by potrace 1.11, written by Peter Selinger 2001-2013
</metadata>
<g transform="translate(0.000000,520.000000) scale(0.100000,-0.100000)"
fill="#000000" stroke="none">
<path d="M11 5186 c-9 -11 -11 -361 -8 -1423 3 -1520 1 -1442 56 -1708 78
-373 251 -741 494 -1054 93 -120 286 -317 397 -407 308 -249 654 -422 1030
-514 231 -56 318 -65 625 -65 297 0 359 6 590 60 656 153 1236 569 1609 1155
124 194 263 524 316 750 69 297 64 157 67 1763 3 1298 2 1448 -12 1453 -46 18
-44 72 -48 -1424 -3 -1388 -3 -1409 -25 -1540 -44 -275 -116 -500 -237 -748
-244 -500 -649 -905 -1149 -1149 -181 -88 -298 -132 -479 -180 -775 -204
-1602 -26 -2232 482 -125 101 -328 309 -422 434 -253 336 -406 692 -485 1129
l-22 125 -4 1424 c-2 1012 -6 1428 -14 1438 -14 17 -33 17 -47 -1z m42 -1413
c3 -1381 3 -1411 24 -1539 113 -692 455 -1266 995 -1670 369 -276 802 -445
1265 -495 180 -19 516 -7 693 24 691 122 1294 513 1679 1088 210 313 332 619
403 1010 22 124 22 126 28 1554 5 1351 6 1430 23 1433 16 3 17 -66 17 -1335 0
-811 -4 -1383 -10 -1453 -54 -619 -309 -1169 -745 -1606 -184 -185 -331 -298
-547 -423 -338 -195 -699 -303 -1110 -333 -640 -47 -1291 161 -1798 572 -126
102 -337 321 -431 445 -256 341 -420 730 -495 1175 -17 97 -19 218 -21 1533
-3 1258 -2 1427 11 1427 13 0 16 -170 19 -1407z"/>
</g>
</svg>
