<?xml version="1.0" standalone="no"?>
<!DOCTYPE svg PUBLIC "-//W3C//DTD SVG 20010904//EN"
 "http://www.w3.org/TR/2001/REC-SVG-20010904/DTD/svg10.dtd">
<svg version="1.0" xmlns="http://www.w3.org/2000/svg"
 width="520.000000pt" height="520.000000pt" viewBox="0 0 520.000000 520.000000"
 preserveAspectRatio="xMidYMid meet">
<metadata>
Created by potrace 1.11, written by Peter Selinger 2001-2013
</metadata>
<g transform="translate(0.000000,520.000000) scale(0.100000,-0.100000)"
fill="#000000" stroke="none">
<path d="M20 5180 c-21 -21 -21 -23 -17 -1418 3 -1511 2 -1463 58 -1716 107
-485 345 -920 694 -1271 429 -432 980 -696 1579 -756 153 -15 527 -7 656 15
291 49 525 124 765 243 502 251 917 666 1168 1168 133 268 224 578 256 877 7
63 11 578 11 1472 l0 1375 -22 15 c-28 20 -49 20 -74 2 -19 -14 -19 -43 -24
-1418 -6 -1518 -4 -1444 -60 -1698 -84 -377 -248 -719 -491 -1019 -100 -125
-308 -327 -431 -419 -354 -266 -729 -417 -1193 -484 -128 -18 -491 -15 -628 5
-454 69 -855 240 -1209 517 -101 79 -293 268 -374 370 -246 306 -413 651 -498
1031 -56 250 -56 257 -56 1730 l0 1356 -23 21 c-29 28 -61 28 -87 2z m67 -22
c4 -7 10 -647 13 -1423 7 -1544 3 -1451 67 -1720 146 -618 544 -1176 1084
-1520 302 -193 668 -326 1039 -376 122 -17 487 -17 610 -1 755 100 1398 505
1804 1135 217 336 350 728 385 1132 7 76 11 602 11 1441 0 1402 -2 1355 44
1338 15 -6 16 -112 13 -1428 -3 -1568 1 -1468 -68 -1744 -82 -332 -235 -658
-430 -918 -253 -337 -551 -585 -924 -769 -243 -120 -490 -200 -750 -241 -136
-21 -503 -30 -647 -15 -497 52 -966 246 -1353 558 -113 91 -312 291 -399 401
-313 395 -504 883 -546 1397 -15 185 -13 2738 2 2753 16 16 35 15 45 0z"/>
</g>
</svg>
