<?xml version="1.0" standalone="no"?>
<!DOCTYPE svg PUBLIC "-//W3C//DTD SVG 20010904//EN"
 "http://www.w3.org/TR/2001/REC-SVG-20010904/DTD/svg10.dtd">
<svg version="1.0" xmlns="http://www.w3.org/2000/svg"
 width="520.000000pt" height="520.000000pt" viewBox="0 0 520.000000 520.000000"
 preserveAspectRatio="xMidYMid meet">
<metadata>
Created by potrace 1.11, written by Peter Selinger 2001-2013
</metadata>
<g transform="translate(0.000000,520.000000) scale(0.100000,-0.100000)"
fill="#000000" stroke="none">
<path d="M49 5185 c-14 -8 -32 -27 -38 -43 -9 -22 -11 -358 -8 -1403 3 -1357
3 -1376 25 -1509 79 -491 257 -894 559 -1270 410 -510 1043 -856 1712 -935
157 -19 477 -18 621 1 418 56 781 192 1120 419 567 379 963 967 1099 1630 50
244 50 219 50 1687 l1 1377 -24 28 c-31 36 -94 39 -128 5 l-23 -23 -6 -1397
c-5 -1474 -4 -1414 -49 -1639 -103 -512 -393 -1000 -800 -1347 -814 -695
-1995 -767 -2889 -176 -591 390 -973 1005 -1066 1713 -13 101 -15 311 -15
1461 0 957 -3 1352 -11 1375 -11 32 -53 61 -86 61 -10 -1 -30 -7 -44 -15z m79
-48 c8 -9 12 -421 15 -1398 3 -1263 4 -1393 20 -1489 66 -392 185 -699 392
-1010 577 -867 1628 -1272 2645 -1020 423 105 823 332 1135 645 366 365 603
828 689 1346 31 182 35 405 36 1660 0 962 3 1258 12 1267 19 19 56 14 68 -8 8
-14 10 -425 7 -1388 -3 -1473 -1 -1414 -56 -1677 -200 -956 -967 -1731 -1926
-1949 -592 -135 -1219 -52 -1755 231 -236 124 -416 258 -616 458 -422 422
-674 956 -734 1554 -15 157 -14 2763 2 2779 16 16 53 15 66 -1z"/>
</g>
</svg>
