<?xml version="1.0" standalone="no"?>
<!DOCTYPE svg PUBLIC "-//W3C//DTD SVG 20010904//EN"
 "http://www.w3.org/TR/2001/REC-SVG-20010904/DTD/svg10.dtd">
<svg version="1.0" xmlns="http://www.w3.org/2000/svg"
 width="520.000000pt" height="520.000000pt" viewBox="0 0 520.000000 520.000000"
 preserveAspectRatio="xMidYMid meet">
<metadata>
Created by potrace 1.11, written by Peter Selinger 2001-2013
</metadata>
<g transform="translate(0.000000,520.000000) scale(0.100000,-0.100000)"
fill="#000000" stroke="none">
<path d="M63 5180 c-69 -42 -64 67 -60 -1453 4 -1479 1 -1404 56 -1667 125
-596 476 -1153 961 -1520 349 -264 725 -426 1161 -501 159 -27 503 -37 675
-20 614 63 1168 330 1599 772 403 413 641 906 719 1489 22 160 23 2818 2 2859
-16 31 -70 61 -108 61 -30 0 -83 -33 -100 -62 -10 -19 -14 -289 -19 -1398 -6
-1497 -3 -1436 -63 -1685 -301 -1245 -1537 -2022 -2788 -1751 -451 98 -863
327 -1183 657 -183 189 -307 363 -419 589 -154 310 -226 589 -246 945 -5 88
-9 715 -10 1393 0 1372 5 1268 -67 1298 -44 19 -72 17 -110 -6z m96 -57 l20
-18 4 -1350 c4 -1473 2 -1421 63 -1693 207 -926 964 -1654 1904 -1831 326 -61
690 -52 1010 24 342 82 687 253 965 478 395 318 701 805 819 1302 63 268 60
180 66 1689 l5 1379 28 21 c26 19 30 19 55 5 l27 -15 0 -1384 c0 -1272 -1
-1394 -18 -1495 -88 -555 -333 -1042 -717 -1425 -416 -414 -950 -668 -1538
-731 -177 -19 -503 -7 -682 24 -359 63 -682 192 -980 392 -651 436 -1058 1132
-1120 1919 -6 78 -10 627 -10 1403 l0 1274 25 24 c29 30 45 31 74 8z"/>
</g>
</svg>
