<?xml version="1.0" standalone="no"?>
<!DOCTYPE svg PUBLIC "-//W3C//DTD SVG 20010904//EN"
 "http://www.w3.org/TR/2001/REC-SVG-20010904/DTD/svg10.dtd">
<svg version="1.0" xmlns="http://www.w3.org/2000/svg"
 width="520.000000pt" height="520.000000pt" viewBox="0 0 520.000000 520.000000"
 preserveAspectRatio="xMidYMid meet">
<metadata>
Created by potrace 1.11, written by Peter Selinger 2001-2013
</metadata>
<g transform="translate(0.000000,520.000000) scale(0.100000,-0.100000)"
fill="#000000" stroke="none">
<path d="M95 5186 c-37 -17 -70 -52 -84 -89 -14 -37 -15 -2508 -1 -2687 49
-626 312 -1201 751 -1641 361 -362 821 -610 1316 -708 217 -44 353 -54 597
-48 275 7 461 37 702 112 559 175 1051 544 1379 1035 240 358 375 734 425
1175 6 56 10 596 10 1425 0 1322 0 1335 -20 1368 -27 43 -99 76 -149 68 -40
-6 -75 -29 -105 -70 -21 -27 -21 -34 -27 -1394 -5 -1235 -7 -1377 -22 -1467
-61 -349 -178 -654 -354 -920 -371 -560 -937 -916 -1618 -1017 -135 -20 -483
-17 -625 5 -733 114 -1351 549 -1698 1197 -112 209 -183 424 -244 735 -8 43
-13 453 -17 1440 -6 1284 -7 1382 -23 1412 -36 66 -129 99 -193 69z m111 -87
c18 -20 19 -61 24 -1373 5 -1249 7 -1360 24 -1466 82 -512 297 -947 645 -1303
206 -211 391 -346 652 -476 331 -165 666 -243 1044 -243 393 0 755 87 1090
261 233 122 400 245 590 435 305 307 510 665 615 1080 76 300 73 242 80 1739
5 1310 5 1339 24 1353 28 20 69 17 97 -5 l24 -19 3 -1259 c2 -863 0 -1304 -8
-1403 -38 -491 -204 -937 -493 -1325 -98 -133 -307 -349 -438 -454 -615 -496
-1431 -675 -2195 -482 -185 47 -314 95 -499 186 -268 132 -455 265 -665 475
-411 409 -657 919 -725 1499 -13 105 -15 345 -15 1440 l0 1315 22 23 c28 30
78 31 104 2z"/>
</g>
</svg>
