<?xml version="1.0" standalone="no"?>
<!DOCTYPE svg PUBLIC "-//W3C//DTD SVG 20010904//EN"
 "http://www.w3.org/TR/2001/REC-SVG-20010904/DTD/svg10.dtd">
<svg version="1.0" xmlns="http://www.w3.org/2000/svg"
 width="520.000000pt" height="520.000000pt" viewBox="0 0 520.000000 520.000000"
 preserveAspectRatio="xMidYMid meet">
<metadata>
Created by potrace 1.11, written by Peter Selinger 2001-2013
</metadata>
<g transform="translate(0.000000,520.000000) scale(0.100000,-0.100000)"
fill="#000000" stroke="none">
<path d="M104 5181 c-47 -22 -80 -59 -95 -110 -7 -25 -9 -447 -6 -1371 4
-1440 1 -1380 57 -1650 32 -155 118 -406 192 -560 375 -784 1091 -1317 1953
-1456 135 -21 511 -30 657 -15 410 43 805 182 1143 402 159 103 264 187 404
324 435 424 704 974 770 1577 7 64 11 550 11 1418 0 1442 3 1360 -58 1412 -95
79 -222 53 -277 -56 l-25 -50 0 -1302 c0 -1392 0 -1402 -50 -1623 -195 -869
-876 -1537 -1745 -1710 -173 -34 -296 -44 -504 -38 -208 5 -307 19 -498 68
-777 199 -1397 821 -1598 1602 -71 280 -68 205 -74 1698 l-6 1346 -29 37 c-53
70 -143 93 -222 57z m135 -96 l30 -26 4 -1337 c3 -902 8 -1360 15 -1407 27
-170 58 -300 103 -440 245 -748 867 -1331 1628 -1525 240 -61 574 -86 813 -61
520 56 1003 279 1381 640 313 298 564 748 656 1172 51 236 51 251 51 1637 0
1413 -3 1340 56 1362 40 16 60 12 93 -16 l31 -26 0 -1323 c0 -1146 -2 -1340
-16 -1447 -135 -1058 -914 -1907 -1959 -2137 -188 -41 -343 -54 -590 -48 -302
6 -510 43 -781 138 -111 39 -346 151 -462 221 -296 178 -581 453 -777 748
-218 327 -342 656 -406 1075 -19 120 -24 2740 -6 2775 27 52 89 64 136 25z"/>
</g>
</svg>
