<?xml version="1.0" standalone="no"?>
<!DOCTYPE svg PUBLIC "-//W3C//DTD SVG 20010904//EN"
 "http://www.w3.org/TR/2001/REC-SVG-20010904/DTD/svg10.dtd">
<svg version="1.0" xmlns="http://www.w3.org/2000/svg"
 width="520.000000pt" height="520.000000pt" viewBox="0 0 520.000000 520.000000"
 preserveAspectRatio="xMidYMid meet">
<metadata>
Created by potrace 1.11, written by Peter Selinger 2001-2013
</metadata>
<g transform="translate(0.000000,520.000000) scale(0.100000,-0.100000)"
fill="#000000" stroke="none">
<path d="M142 5189 c-48 -14 -118 -88 -132 -139 -8 -29 -10 -415 -7 -1373 4
-1181 6 -1343 20 -1427 37 -212 61 -312 112 -466 303 -921 1101 -1596 2070
-1750 135 -21 512 -30 657 -15 480 50 951 239 1338 539 117 91 316 287 413
407 260 322 448 719 526 1111 17 82 35 193 40 246 7 63 11 559 11 1408 0 1076
-2 1316 -13 1343 -20 45 -88 104 -139 117 -90 25 -192 -19 -238 -100 l-25 -45
-6 -1355 c-3 -745 -9 -1368 -13 -1385 -4 -16 -14 -66 -22 -110 -147 -796 -759
-1465 -1540 -1685 -190 -53 -320 -72 -540 -77 -234 -6 -380 9 -589 62 -389 98
-717 285 -1005 574 -337 339 -529 719 -617 1221 -14 84 -17 245 -20 1424 -4
1281 -5 1330 -23 1366 -48 95 -153 139 -258 109z m140 -128 l33 -29 5 -1344 6
-1343 23 -125 c61 -329 176 -617 352 -880 374 -559 940 -909 1619 -1001 136
-19 449 -16 591 4 253 37 453 99 684 212 469 229 821 580 1051 1050 82 168
129 297 168 461 62 261 59 197 65 1647 l6 1329 28 24 c51 44 135 28 166 -33
15 -29 16 -2488 1 -2648 -44 -470 -207 -899 -486 -1275 -100 -136 -368 -404
-504 -504 -462 -343 -1011 -514 -1580 -492 -369 13 -682 92 -1015 256 -256
126 -456 269 -660 474 -372 373 -590 795 -697 1349 -22 111 -22 125 -25 1475
l-4 1363 30 29 c41 42 98 42 143 1z"/>
</g>
</svg>
