<?xml version="1.0" standalone="no"?>
<!DOCTYPE svg PUBLIC "-//W3C//DTD SVG 20010904//EN"
 "http://www.w3.org/TR/2001/REC-SVG-20010904/DTD/svg10.dtd">
<svg version="1.0" xmlns="http://www.w3.org/2000/svg"
 width="520.000000pt" height="520.000000pt" viewBox="0 0 520.000000 520.000000"
 preserveAspectRatio="xMidYMid meet">
<metadata>
Created by potrace 1.11, written by Peter Selinger 2001-2013
</metadata>
<g transform="translate(0.000000,520.000000) scale(0.100000,-0.100000)"
fill="#000000" stroke="none">
<path d="M180 5191 c-71 -23 -122 -66 -156 -131 -18 -34 -19 -86 -19 -1355 0
-1220 1 -1329 18 -1440 76 -504 253 -918 556 -1295 95 -118 269 -293 381 -383
320 -257 724 -448 1115 -526 195 -39 318 -51 529 -51 525 0 998 143 1436 435
557 370 958 959 1095 1605 55 264 55 256 55 1670 l0 1305 -29 50 c-89 156
-311 163 -408 13 l-28 -43 -6 -1315 c-6 -1423 -4 -1367 -61 -1615 -65 -284
-212 -586 -402 -830 -68 -87 -249 -267 -341 -340 -306 -240 -639 -382 -1030
-440 -147 -22 -414 -22 -570 0 -968 135 -1706 890 -1820 1862 -13 107 -15 332
-15 1379 0 1381 4 1303 -63 1372 -18 19 -49 43 -71 54 -43 22 -128 32 -166 19z
m144 -150 l31 -31 6 -1318 c6 -1434 3 -1365 64 -1617 114 -477 391 -912 772
-1216 333 -265 731 -431 1152 -480 171 -19 495 -7 664 25 451 86 871 313 1192
644 309 319 510 709 597 1163 21 113 22 127 27 1449 l6 1335 23 32 c47 66 152
66 193 0 19 -31 19 -54 16 -1377 -3 -1338 -3 -1346 -25 -1460 -101 -527 -315
-946 -667 -1309 -374 -385 -832 -627 -1366 -721 -156 -28 -512 -39 -670 -21
-680 78 -1265 402 -1691 936 -210 263 -399 662 -467 990 -57 270 -54 185 -58
1602 -4 1453 -9 1351 60 1394 45 28 101 20 141 -20z"/>
</g>
</svg>
