<?xml version="1.0" standalone="no"?>
<!DOCTYPE svg PUBLIC "-//W3C//DTD SVG 20010904//EN"
 "http://www.w3.org/TR/2001/REC-SVG-20010904/DTD/svg10.dtd">
<svg version="1.0" xmlns="http://www.w3.org/2000/svg"
 width="520.000000pt" height="520.000000pt" viewBox="0 0 520.000000 520.000000"
 preserveAspectRatio="xMidYMid meet">
<metadata>
Created by potrace 1.11, written by Peter Selinger 2001-2013
</metadata>
<g transform="translate(0.000000,520.000000) scale(0.100000,-0.100000)"
fill="#000000" stroke="none">
<path d="M187 5186 c-86 -31 -155 -104 -178 -188 -7 -26 -9 -466 -6 -1341 3
-1164 5 -1313 20 -1407 52 -322 126 -556 256 -815 131 -258 277 -461 481 -665
386 -387 862 -633 1415 -731 152 -27 517 -37 686 -20 893 92 1672 636 2070
1446 127 259 217 570 248 857 7 63 11 551 11 1385 l0 1288 -24 51 c-41 88
-144 154 -241 154 -91 0 -194 -62 -238 -144 l-22 -41 -6 -1300 c-5 -1171 -7
-1310 -23 -1405 -88 -531 -331 -961 -736 -1302 -146 -123 -399 -267 -590 -337
-392 -142 -826 -164 -1225 -61 -720 186 -1285 746 -1475 1464 -67 253 -64 168
-70 1616 l-5 1315 -31 55 c-64 113 -201 167 -317 126z m167 -157 c20 -17 40
-47 46 -67 6 -24 10 -470 10 -1287 0 -1017 3 -1270 14 -1355 60 -445 237 -832
535 -1174 173 -198 409 -379 651 -501 1000 -502 2208 -177 2822 760 168 256
270 514 331 840 20 106 20 153 26 1420 5 1055 9 1314 19 1333 33 58 128 80
189 42 69 -41 64 59 60 -1383 -3 -1185 -4 -1311 -20 -1407 -90 -537 -307 -979
-661 -1347 -389 -405 -871 -653 -1436 -740 -145 -22 -520 -25 -655 -4 -295 43
-520 113 -770 236 -260 128 -444 257 -642 452 -371 365 -605 812 -705 1344
l-23 124 -3 1333 -3 1334 40 39 c35 35 44 39 89 39 43 0 57 -5 86 -31z"/>
</g>
</svg>
