<?xml version="1.0" standalone="no"?>
<!DOCTYPE svg PUBLIC "-//W3C//DTD SVG 20010904//EN"
 "http://www.w3.org/TR/2001/REC-SVG-20010904/DTD/svg10.dtd">
<svg version="1.0" xmlns="http://www.w3.org/2000/svg"
 width="520.000000pt" height="520.000000pt" viewBox="0 0 520.000000 520.000000"
 preserveAspectRatio="xMidYMid meet">
<metadata>
Created by potrace 1.11, written by Peter Selinger 2001-2013
</metadata>
<g transform="translate(0.000000,520.000000) scale(0.100000,-0.100000)"
fill="#000000" stroke="none">
<path d="M203 5182 c-101 -36 -171 -115 -193 -216 -8 -37 -10 -410 -8 -1326 4
-1254 4 -1277 26 -1410 94 -582 333 -1058 732 -1460 384 -387 866 -635 1425
-731 154 -27 500 -37 671 -20 1136 115 2074 966 2287 2077 48 245 48 272 45
1624 l-3 1275 -27 45 c-62 105 -149 155 -268 154 -61 0 -85 -5 -126 -26 -59
-31 -118 -93 -145 -152 -18 -39 -19 -89 -19 -1231 0 -673 -5 -1244 -10 -1315
-39 -497 -239 -937 -581 -1279 -306 -307 -694 -500 -1134 -567 -146 -22 -414
-21 -560 1 -919 140 -1609 862 -1705 1785 -6 57 -10 589 -10 1317 0 1199 0
1223 -20 1276 -56 150 -228 232 -377 179z m167 -154 c87 -45 80 66 80 -1298 0
-762 4 -1247 11 -1320 77 -853 654 -1580 1463 -1845 237 -78 412 -105 673
-105 204 0 352 18 535 64 743 187 1341 777 1537 1516 69 260 64 153 70 1590 6
1282 6 1306 26 1339 59 100 189 106 252 12 l23 -34 0 -1259 c0 -1293 -2 -1354
-41 -1553 -209 -1058 -1080 -1855 -2147 -1966 -169 -17 -506 -7 -661 21 -404
71 -760 227 -1086 473 -105 80 -318 288 -410 402 -218 270 -379 592 -465 928
-78 309 -73 223 -77 1637 -2 696 -1 1279 2 1297 11 62 82 122 145 123 14 0 46
-10 70 -22z"/>
</g>
</svg>
