<?xml version="1.0" standalone="no"?>
<!DOCTYPE svg PUBLIC "-//W3C//DTD SVG 20010904//EN"
 "http://www.w3.org/TR/2001/REC-SVG-20010904/DTD/svg10.dtd">
<svg version="1.0" xmlns="http://www.w3.org/2000/svg"
 width="520.000000pt" height="520.000000pt" viewBox="0 0 520.000000 520.000000"
 preserveAspectRatio="xMidYMid meet">
<metadata>
Created by potrace 1.11, written by Peter Selinger 2001-2013
</metadata>
<g transform="translate(0.000000,520.000000) scale(0.100000,-0.100000)"
fill="#000000" stroke="none">
<path d="M257 5190 c-97 -25 -175 -87 -219 -178 l-33 -67 0 -1260 c0 -1348 0
-1350 51 -1603 211 -1042 1047 -1854 2097 -2036 235 -41 600 -46 827 -11 556
84 1052 336 1451 734 338 339 563 731 679 1186 78 309 75 230 75 1700 l0 1310
-27 51 c-100 190 -351 238 -508 97 -28 -25 -63 -69 -78 -97 l-27 -51 -6 -1275
c-6 -1402 -3 -1335 -69 -1588 -173 -663 -709 -1199 -1372 -1372 -301 -78 -590
-87 -893 -25 -716 145 -1304 704 -1485 1413 -56 222 -54 161 -60 1552 l-5
1285 -23 46 c-37 74 -87 125 -155 158 -69 34 -158 46 -220 31z m171 -189 c72
-51 66 58 73 -1376 6 -1398 2 -1309 60 -1545 109 -444 398 -875 777 -1160 820
-616 1973 -546 2709 164 339 327 535 692 625 1166 21 113 22 133 27 1397 6
1280 6 1282 27 1310 74 99 205 99 278 0 l21 -28 0 -1272 c0 -1342 1 -1312 -46
-1547 -144 -717 -633 -1352 -1296 -1684 -238 -119 -484 -194 -778 -237 -135
-20 -502 -18 -645 4 -559 86 -1025 325 -1410 723 -345 356 -556 773 -652 1285
l-23 124 -3 1296 -3 1295 23 34 c40 59 84 82 149 78 37 -3 66 -12 87 -27z"/>
</g>
</svg>
