<?xml version="1.0" standalone="no"?>
<!DOCTYPE svg PUBLIC "-//W3C//DTD SVG 20010904//EN"
 "http://www.w3.org/TR/2001/REC-SVG-20010904/DTD/svg10.dtd">
<svg version="1.0" xmlns="http://www.w3.org/2000/svg"
 width="519.000000pt" height="519.000000pt" viewBox="0 0 519.000000 519.000000"
 preserveAspectRatio="xMidYMid meet">
<metadata>
Created by potrace 1.11, written by Peter Selinger 2001-2013
</metadata>
<g transform="translate(0.000000,519.000000) scale(0.100000,-0.100000)"
fill="#000000" stroke="none">
<path d="M75 5180 c-11 -4 -31 -20 -45 -35 l-25 -27 -3 -2511 c-2 -1849 1
-2519 9 -2539 6 -15 26 -37 44 -48 32 -20 46 -20 2548 -20 l2516 0 36 35 c29
30 35 43 35 78 -1 51 -17 82 -56 108 -28 19 -74 19 -2461 19 l-2433 0 0 2430
c0 2682 5 2471 -64 2504 -37 17 -69 20 -101 6z m83 -66 l22 -15 0 -2460 0
-2459 2457 0 c2272 0 2458 -1 2475 -17 22 -20 23 -61 1 -85 -15 -17 -107 -18
-2519 -18 l-2503 0 -15 22 c-14 20 -16 275 -16 2515 0 2480 0 2493 20 2513 24
24 48 25 78 4z"/>
</g>
</svg>
