<?xml version="1.0" standalone="no"?>
<!DOCTYPE svg PUBLIC "-//W3C//DTD SVG 20010904//EN"
 "http://www.w3.org/TR/2001/REC-SVG-20010904/DTD/svg10.dtd">
<svg version="1.0" xmlns="http://www.w3.org/2000/svg"
 width="519.000000pt" height="519.000000pt" viewBox="0 0 519.000000 519.000000"
 preserveAspectRatio="xMidYMid meet">
<metadata>
Created by potrace 1.11, written by Peter Selinger 2001-2013
</metadata>
<g transform="translate(0.000000,519.000000) scale(0.100000,-0.100000)"
fill="#000000" stroke="none">
<path d="M95 5176 c-37 -17 -70 -52 -84 -89 -8 -20 -11 -772 -11 -2494 l0
-2467 21 -43 c14 -30 33 -50 60 -63 38 -20 72 -20 2515 -20 2264 0 2479 1
2510 16 102 49 111 197 15 261 l-34 23 -2388 0 -2389 0 -2 2393 -3 2392 -22
31 c-12 17 -34 39 -48 48 -35 23 -104 29 -140 12z m110 -91 l25 -24 0 -2416 0
-2415 2414 0 2413 0 27 -21 c33 -26 36 -79 6 -109 -20 -20 -33 -20 -2492 -20
l-2472 0 -23 22 -23 21 0 2469 0 2469 25 24 c13 14 36 25 50 25 14 0 37 -11
50 -25z"/>
</g>
</svg>
