<?xml version="1.0" standalone="no"?>
<!DOCTYPE svg PUBLIC "-//W3C//DTD SVG 20010904//EN"
 "http://www.w3.org/TR/2001/REC-SVG-20010904/DTD/svg10.dtd">
<svg version="1.0" xmlns="http://www.w3.org/2000/svg"
 width="520.000000pt" height="520.000000pt" viewBox="0 0 520.000000 520.000000"
 preserveAspectRatio="xMidYMid meet">
<metadata>
Created by potrace 1.11, written by Peter Selinger 2001-2013
</metadata>
<g transform="translate(0.000000,520.000000) scale(0.100000,-0.100000)"
fill="#000000" stroke="none">
<path d="M115 5189 c-42 -12 -93 -64 -105 -107 -14 -50 -14 -4913 0 -4962 11
-41 61 -94 103 -109 20 -8 779 -11 2491 -11 l2463 0 43 23 c78 41 110 139 75
224 -21 50 -42 72 -90 94 -38 18 -131 19 -2387 19 l-2348 0 0 2348 c0 2256 -1
2349 -19 2387 -39 85 -129 123 -226 94z m126 -108 l29 -29 0 -2391 0 -2391
2389 0 2389 0 31 -26 c41 -34 44 -92 6 -129 l-24 -25 -2461 0 -2461 0 -24 25
-25 24 0 2450 c0 1779 3 2457 11 2475 24 52 96 61 140 17z"/>
</g>
</svg>
