<?xml version="1.0" standalone="no"?>
<!DOCTYPE svg PUBLIC "-//W3C//DTD SVG 20010904//EN"
 "http://www.w3.org/TR/2001/REC-SVG-20010904/DTD/svg10.dtd">
<svg version="1.0" xmlns="http://www.w3.org/2000/svg"
 width="519.000000pt" height="519.000000pt" viewBox="0 0 519.000000 519.000000"
 preserveAspectRatio="xMidYMid meet">
<metadata>
Created by potrace 1.11, written by Peter Selinger 2001-2013
</metadata>
<g transform="translate(0.000000,519.000000) scale(0.100000,-0.100000)"
fill="#000000" stroke="none">
<path d="M125 5171 c-49 -23 -89 -64 -109 -113 -14 -33 -16 -293 -16 -2465 l0
-2428 24 -52 c17 -36 38 -60 67 -80 l43 -28 2453 -3 c2397 -2 2454 -2 2491 17
73 38 112 102 112 186 0 94 -63 181 -147 204 -26 8 -762 11 -2330 11 l-2293 0
0 2303 c0 2219 -1 2303 -19 2342 -49 106 -173 154 -276 106z m160 -122 l30
-29 3 -2355 2 -2355 2351 0 2351 0 34 -34 c38 -38 43 -70 19 -116 -34 -65 165
-60 -2482 -60 -2367 0 -2409 0 -2440 20 -21 13 -35 31 -42 57 -8 26 -11 780
-11 2423 0 2251 1 2387 18 2420 20 41 74 72 111 64 15 -4 40 -19 56 -35z"/>
</g>
</svg>
