<?xml version="1.0" standalone="no"?>
<!DOCTYPE svg PUBLIC "-//W3C//DTD SVG 20010904//EN"
 "http://www.w3.org/TR/2001/REC-SVG-20010904/DTD/svg10.dtd">
<svg version="1.0" xmlns="http://www.w3.org/2000/svg"
 width="521.000000pt" height="521.000000pt" viewBox="0 0 521.000000 521.000000"
 preserveAspectRatio="xMidYMid meet">
<metadata>
Created by potrace 1.11, written by Peter Selinger 2001-2013
</metadata>
<g transform="translate(0.000000,521.000000) scale(0.100000,-0.100000)"
fill="#000000" stroke="none">
<path d="M175 5201 c-70 -18 -116 -55 -151 -121 -18 -34 -19 -112 -19 -2475
l0 -2440 22 -42 c31 -57 87 -100 147 -113 36 -8 759 -10 2468 -8 l2416 3 43
30 c24 17 57 50 73 73 26 37 30 51 30 114 1 40 -2 85 -7 101 -10 38 -72 104
-121 130 l-41 22 -2277 3 -2278 2 -2 2278 c-3 2199 -4 2278 -22 2312 -23 44
-73 98 -108 116 -33 17 -132 26 -173 15z m143 -145 l37 -34 3 -2331 2 -2331
2310 0 c1941 0 2316 -2 2344 -14 49 -20 76 -60 76 -113 0 -38 -5 -50 -34 -79
l-34 -34 -2405 0 c-1539 0 -2415 4 -2431 10 -14 5 -35 24 -46 42 -20 33 -20
52 -20 2431 0 2628 -4 2438 58 2471 48 27 98 20 140 -18z"/>
</g>
</svg>
