<?xml version="1.0" standalone="no"?>
<!DOCTYPE svg PUBLIC "-//W3C//DTD SVG 20010904//EN"
 "http://www.w3.org/TR/2001/REC-SVG-20010904/DTD/svg10.dtd">
<svg version="1.0" xmlns="http://www.w3.org/2000/svg"
 width="519.000000pt" height="519.000000pt" viewBox="0 0 519.000000 519.000000"
 preserveAspectRatio="xMidYMid meet">
<metadata>
Created by potrace 1.11, written by Peter Selinger 2001-2013
</metadata>
<g transform="translate(0.000000,519.000000) scale(0.100000,-0.100000)"
fill="#000000" stroke="none">
<path d="M165 5157 c-60 -29 -116 -88 -139 -148 -15 -41 -16 -225 -14 -2429 3
-2336 3 -2386 22 -2424 27 -53 80 -104 135 -130 l46 -21 2365 -3 c2686 -3
2432 -11 2525 83 132 131 96 348 -71 431 -38 19 -86 19 -2261 22 l-2223 2 -2
2218 -3 2217 -21 46 c-45 98 -127 151 -239 157 -58 2 -79 -1 -120 -21z m163
-121 c15 -8 38 -26 52 -41 l25 -27 3 -2279 2 -2279 2266 0 c2458 0 2289 4
2343 -54 33 -36 39 -110 12 -153 -43 -69 170 -63 -2445 -61 l-2365 3 -30 29
c-16 15 -34 40 -40 55 -8 18 -10 705 -9 2378 l3 2352 21 28 c23 32 78 63 112
63 13 0 35 -6 50 -14z"/>
</g>
</svg>
