<?xml version="1.0" standalone="no"?>
<!DOCTYPE svg PUBLIC "-//W3C//DTD SVG 20010904//EN"
 "http://www.w3.org/TR/2001/REC-SVG-20010904/DTD/svg10.dtd">
<svg version="1.0" xmlns="http://www.w3.org/2000/svg"
 width="519.000000pt" height="519.000000pt" viewBox="0 0 519.000000 519.000000"
 preserveAspectRatio="xMidYMid meet">
<metadata>
Created by potrace 1.11, written by Peter Selinger 2001-2013
</metadata>
<g transform="translate(0.000000,519.000000) scale(0.100000,-0.100000)"
fill="#000000" stroke="none">
<path d="M210 5181 c-73 -24 -145 -85 -183 -156 l-22 -40 -3 -2379 -2 -2379
23 -51 c33 -72 79 -121 142 -151 l54 -25 2378 0 2379 0 51 26 c60 29 117 88
144 148 21 47 25 157 8 216 -20 65 -78 131 -148 167 l-63 33 -2184 0 -2184 0
-2 2188 -3 2187 -28 57 c-51 104 -138 160 -257 164 -41 2 -86 0 -100 -5z m160
-159 c22 -12 44 -35 58 -62 l22 -44 0 -2238 0 -2238 2246 0 c2121 0 2248 -1
2276 -17 95 -57 94 -201 -2 -258 -35 -20 -42 -20 -2354 -23 -1505 -1 -2331 1
-2355 8 -20 5 -52 26 -71 45 l-35 36 -2 2352 c-3 2333 -3 2352 17 2385 42 68
129 91 200 54z"/>
</g>
</svg>
