<?xml version="1.0" standalone="no"?>
<!DOCTYPE svg PUBLIC "-//W3C//DTD SVG 20010904//EN"
 "http://www.w3.org/TR/2001/REC-SVG-20010904/DTD/svg10.dtd">
<svg version="1.0" xmlns="http://www.w3.org/2000/svg"
 width="519.000000pt" height="519.000000pt" viewBox="0 0 519.000000 519.000000"
 preserveAspectRatio="xMidYMid meet">
<metadata>
Created by potrace 1.11, written by Peter Selinger 2001-2013
</metadata>
<g transform="translate(0.000000,519.000000) scale(0.100000,-0.100000)"
fill="#000000" stroke="none">
<path d="M257 5179 c-97 -23 -182 -94 -226 -188 l-26 -56 0 -2340 0 -2340 26
-56 c36 -76 86 -129 156 -165 l58 -29 2350 0 2350 0 47 22 c66 30 133 96 165
162 24 48 28 68 27 141 0 67 -5 95 -23 131 -36 75 -86 125 -159 161 l-67 33
-2137 3 -2138 2 -2 2143 -3 2142 -23 46 c-36 73 -87 125 -155 158 -69 33 -159
45 -220 30z m171 -188 c18 -12 40 -37 50 -54 16 -30 17 -166 20 -2239 l2
-2208 2201 0 c2012 0 2204 -1 2235 -16 132 -63 110 -265 -33 -303 -29 -8 -692
-10 -2324 -9 l-2284 3 -40 21 c-24 12 -49 37 -62 60 l-23 39 0 2311 0 2311 23
34 c39 58 83 81 148 77 37 -3 66 -12 87 -27z"/>
</g>
</svg>
