<?xml version="1.0" standalone="no"?>
<!DOCTYPE svg PUBLIC "-//W3C//DTD SVG 20010904//EN"
 "http://www.w3.org/TR/2001/REC-SVG-20010904/DTD/svg10.dtd">
<svg version="1.0" xmlns="http://www.w3.org/2000/svg"
 width="519.000000pt" height="519.000000pt" viewBox="0 0 519.000000 519.000000"
 preserveAspectRatio="xMidYMid meet">
<metadata>
Created by potrace 1.11, written by Peter Selinger 2001-2013
</metadata>
<g transform="translate(0.000000,519.000000) scale(0.100000,-0.100000)"
fill="#000000" stroke="none">
<path d="M16 5168 c-22 -31 -20 -61 5 -84 20 -18 58 -19 1270 -22 l1249 -2 0
-2470 0 -2470 -1254 0 -1255 0 -15 -22 c-21 -30 -20 -61 2 -81 17 -16 211 -17
2583 -17 1982 0 2568 3 2577 12 17 17 15 74 -4 92 -14 14 -142 16 -1265 16
l-1249 0 0 2470 0 2470 1238 0 c974 0 1242 3 1262 13 32 16 40 70 14 98 -17
19 -72 19 -2580 19 l-2563 0 -15 -22z m5142 -32 c9 -47 46 -46 -1280 -46
l-1248 0 0 -2500 0 -2500 1263 -2 1262 -3 0 -25 0 -25 -1280 -5 c-704 -3
-1854 -4 -2556 -2 -1364 2 -1301 0 -1283 47 5 13 156 15 1270 15 l1264 0 0
2500 0 2500 -1251 0 c-843 0 -1257 3 -1270 10 -22 12 -25 30 -7 48 9 9 587 11
2562 10 2513 -3 2551 -3 2554 -22z"/>
</g>
</svg>
