<?xml version="1.0" standalone="no"?>
<!DOCTYPE svg PUBLIC "-//W3C//DTD SVG 20010904//EN"
 "http://www.w3.org/TR/2001/REC-SVG-20010904/DTD/svg10.dtd">
<svg version="1.0" xmlns="http://www.w3.org/2000/svg"
 width="522.000000pt" height="519.000000pt" viewBox="0 0 522.000000 519.000000"
 preserveAspectRatio="xMidYMid meet">
<metadata>
Created by potrace 1.11, written by Peter Selinger 2001-2013
</metadata>
<g transform="translate(0.000000,519.000000) scale(0.100000,-0.100000)"
fill="#000000" stroke="none">
<path d="M35 5155 c-36 -35 -34 -88 4 -126 l29 -29 1221 0 1221 0 -2 -2407 -3
-2408 -1227 -3 -1227 -2 -20 -26 c-28 -36 -27 -86 3 -121 l24 -28 2542 -3
c2789 -2 2583 -7 2610 57 15 36 7 74 -20 101 -20 20 -39 20 -1260 20 l-1240 0
0 2410 0 2410 1221 0 1221 0 29 29 c37 37 38 79 3 120 l-26 31 -2539 0 -2540
0 -24 -25z m5093 -27 c15 -15 15 -51 0 -66 -9 -9 -300 -12 -1250 -12 l-1238 0
0 -2455 0 -2455 1254 0 1255 0 15 -21 c15 -22 11 -48 -8 -61 -6 -4 -1153 -8
-2548 -8 -2498 0 -2537 0 -2548 19 -14 27 -13 37 6 55 14 14 141 16 1250 16
l1234 0 0 2455 0 2455 -1240 0 -1240 0 -12 25 c-9 21 -8 28 7 45 18 20 29 20
2535 20 1943 0 2519 -3 2528 -12z"/>
</g>
</svg>
