<?xml version="1.0" standalone="no"?>
<!DOCTYPE svg PUBLIC "-//W3C//DTD SVG 20010904//EN"
 "http://www.w3.org/TR/2001/REC-SVG-20010904/DTD/svg10.dtd">
<svg version="1.0" xmlns="http://www.w3.org/2000/svg"
 width="520.000000pt" height="520.000000pt" viewBox="0 0 520.000000 520.000000"
 preserveAspectRatio="xMidYMid meet">
<metadata>
Created by potrace 1.11, written by Peter Selinger 2001-2013
</metadata>
<g transform="translate(0.000000,520.000000) scale(0.100000,-0.100000)"
fill="#000000" stroke="none">
<path d="M58 5184 c-74 -40 -76 -159 -3 -204 32 -20 45 -20 1229 -20 l1196 0
0 -2360 0 -2360 -1203 0 c-1335 0 -1233 5 -1263 -66 -23 -55 -18 -90 20 -132
l34 -37 2511 -3 c2739 -2 2558 -6 2597 54 22 33 24 92 4 129 -31 58 35 55
-1265 55 l-1195 0 0 2360 0 2360 1193 0 c926 0 1197 3 1216 13 39 20 62 58 63
108 1 52 -20 90 -58 107 -19 9 -659 12 -2537 12 -2202 -1 -2515 -3 -2539 -16z
m5062 -64 c11 -11 20 -29 20 -40 0 -11 -9 -29 -20 -40 -20 -20 -33 -20 -1240
-20 l-1220 0 0 -2420 0 -2420 1224 0 1225 0 15 -22 c22 -31 20 -45 -9 -73
l-24 -25 -2496 0 c-2482 0 -2495 0 -2515 20 -25 25 -26 62 -2 83 17 16 121 17
1238 19 l1219 3 3 2418 2 2417 -1218 0 c-1086 0 -1220 2 -1240 16 -26 18 -29
60 -5 86 15 17 107 18 2520 18 2490 0 2503 0 2523 -20z"/>
</g>
</svg>
