<?xml version="1.0" standalone="no"?>
<!DOCTYPE svg PUBLIC "-//W3C//DTD SVG 20010904//EN"
 "http://www.w3.org/TR/2001/REC-SVG-20010904/DTD/svg10.dtd">
<svg version="1.0" xmlns="http://www.w3.org/2000/svg"
 width="519.000000pt" height="519.000000pt" viewBox="0 0 519.000000 519.000000"
 preserveAspectRatio="xMidYMid meet">
<metadata>
Created by potrace 1.11, written by Peter Selinger 2001-2013
</metadata>
<g transform="translate(0.000000,519.000000) scale(0.100000,-0.100000)"
fill="#000000" stroke="none">
<path d="M96 5141 c-96 -63 -88 -208 14 -262 33 -18 85 -19 1187 -19 l1153 0
-2 -2267 -3 -2268 -1165 -5 c-1074 -5 -1167 -6 -1189 -22 -41 -29 -61 -69 -61
-124 0 -61 27 -108 80 -135 33 -18 119 -19 2484 -19 2429 0 2450 0 2491 20
103 50 112 193 16 257 l-34 23 -1158 0 -1159 0 0 2270 0 2270 1159 2 c1159 3
1160 3 1188 24 90 67 97 177 14 247 l-33 27 -2476 0 c-2410 0 -2478 -1 -2506
-19z m4968 -72 c30 -23 35 -72 12 -105 -14 -19 -41 -19 -1208 -24 l-1193 -5
-3 -2342 -2 -2343 1184 0 c1182 0 1183 0 1210 -21 33 -26 36 -79 6 -109 -20
-20 -33 -20 -2474 -20 l-2455 0 -20 26 c-28 35 -26 69 4 99 l24 25 1186 0
1185 0 0 2345 0 2345 -1189 0 -1190 0 -20 26 c-28 35 -26 69 4 99 l24 25 2444
0 2444 0 27 -21z"/>
</g>
</svg>
