<?xml version="1.0" standalone="no"?>
<!DOCTYPE svg PUBLIC "-//W3C//DTD SVG 20010904//EN"
 "http://www.w3.org/TR/2001/REC-SVG-20010904/DTD/svg10.dtd">
<svg version="1.0" xmlns="http://www.w3.org/2000/svg"
 width="520.000000pt" height="520.000000pt" viewBox="0 0 520.000000 520.000000"
 preserveAspectRatio="xMidYMid meet">
<metadata>
Created by potrace 1.11, written by Peter Selinger 2001-2013
</metadata>
<g transform="translate(0.000000,520.000000) scale(0.100000,-0.100000)"
fill="#000000" stroke="none">
<path d="M114 5189 c-18 -5 -48 -27 -67 -48 -80 -89 -51 -233 57 -282 39 -18
93 -19 1179 -19 l1137 0 0 -2240 0 -2240 -1148 -2 -1148 -3 -43 -28 c-108 -71
-107 -238 2 -301 l44 -26 2484 2 2484 3 34 24 c63 45 88 147 56 224 -18 43
-64 83 -113 97 -24 6 -420 10 -1164 10 l-1128 0 0 2240 0 2240 1138 0 c1084 0
1139 1 1177 19 22 10 50 29 62 42 74 81 50 227 -47 277 l-44 22 -2461 -1
c-1441 0 -2473 -5 -2491 -10z m4971 -104 c25 -24 33 -73 19 -110 -18 -46 12
-45 -1239 -45 l-1175 0 0 -2330 0 -2330 1179 0 1179 0 31 -26 c25 -20 31 -34
31 -64 0 -22 -8 -47 -19 -61 l-19 -24 -1229 -5 c-675 -3 -1788 -3 -2471 0
l-1244 5 -19 24 c-27 33 -24 84 5 118 l24 28 1186 3 1186 2 0 2330 0 2330
-1181 0 -1181 0 -29 29 c-42 43 -35 115 15 139 14 7 806 11 2474 11 l2453 1
24 -25z"/>
</g>
</svg>
