<?xml version="1.0" standalone="no"?>
<!DOCTYPE svg PUBLIC "-//W3C//DTD SVG 20010904//EN"
 "http://www.w3.org/TR/2001/REC-SVG-20010904/DTD/svg10.dtd">
<svg version="1.0" xmlns="http://www.w3.org/2000/svg"
 width="519.000000pt" height="519.000000pt" viewBox="0 0 519.000000 519.000000"
 preserveAspectRatio="xMidYMid meet">
<metadata>
Created by potrace 1.11, written by Peter Selinger 2001-2013
</metadata>
<g transform="translate(0.000000,519.000000) scale(0.100000,-0.100000)"
fill="#000000" stroke="none">
<path d="M140 5159 c-56 -25 -77 -44 -101 -91 -56 -110 -17 -233 92 -289 37
-18 69 -19 1149 -19 l1110 0 0 -2165 0 -2165 -1099 0 c-794 0 -1107 -3 -1132
-11 -136 -46 -190 -210 -105 -322 17 -23 51 -52 76 -64 l44 -23 2427 0 2426 0
44 23 c116 61 146 218 62 317 -74 86 25 80 -1220 80 l-1103 0 0 2165 0 2165
1108 0 1109 0 44 23 c66 35 102 93 107 171 3 49 0 71 -16 103 -27 51 -81 99
-129 112 -26 8 -795 11 -2443 11 -2396 0 -2405 -1 -2450 -21z m4909 -124 c34
-39 39 -71 16 -115 -33 -63 38 -60 -1220 -60 l-1145 0 2 -2267 3 -2268 1150
-2 c886 -2 1155 -6 1173 -15 27 -14 52 -57 52 -88 0 -34 -28 -78 -60 -95 -26
-13 -297 -15 -2435 -13 l-2407 3 -29 33 c-41 45 -41 102 0 143 l29 29 1156 0
1156 0 0 2270 0 2270 -1156 2 -1156 3 -29 33 c-41 45 -41 102 0 143 l29 29
2420 0 2420 0 31 -35z"/>
</g>
</svg>
