<?xml version="1.0" standalone="no"?>
<!DOCTYPE svg PUBLIC "-//W3C//DTD SVG 20010904//EN"
 "http://www.w3.org/TR/2001/REC-SVG-20010904/DTD/svg10.dtd">
<svg version="1.0" xmlns="http://www.w3.org/2000/svg"
 width="519.000000pt" height="519.000000pt" viewBox="0 0 519.000000 519.000000"
 preserveAspectRatio="xMidYMid meet">
<metadata>
Created by potrace 1.11, written by Peter Selinger 2001-2013
</metadata>
<g transform="translate(0.000000,519.000000) scale(0.100000,-0.100000)"
fill="#000000" stroke="none">
<path d="M132 5164 c-176 -87 -175 -333 2 -427 l41 -22 1093 -3 1092 -2 0
-2120 0 -2120 -1090 0 c-1181 0 -1120 3 -1188 -55 -70 -59 -100 -175 -67 -261
23 -60 69 -112 120 -135 38 -18 141 -19 2465 -19 l2425 0 53 30 c76 44 105 95
110 191 3 61 0 83 -16 115 -25 49 -66 91 -114 115 -36 18 -76 19 -1128 19
l-1090 0 0 2120 0 2120 1093 2 1094 3 48 30 c27 17 63 50 80 74 26 37 30 53
33 120 5 91 -13 137 -74 191 -74 65 127 60 -2517 60 l-2413 0 -52 -26z m4902
-123 c56 -52 52 -141 -7 -185 -28 -21 -29 -21 -1168 -24 l-1139 -2 0 -2235 0
-2235 1113 0 c693 0 1125 -4 1146 -10 44 -12 78 -44 92 -87 9 -27 7 -39 -8
-70 -10 -20 -29 -45 -43 -55 -24 -17 -120 -18 -2423 -18 -1681 0 -2404 3
-2418 11 -29 15 -59 69 -59 104 0 36 31 89 62 107 19 10 243 14 1161 16 l1137
2 0 2235 0 2235 -1134 0 -1133 0 -34 23 c-58 39 -74 98 -44 157 33 64 -165 59
2472 57 l2401 -2 26 -24z"/>
</g>
</svg>
