<?xml version="1.0" standalone="no"?>
<!DOCTYPE svg PUBLIC "-//W3C//DTD SVG 20010904//EN"
 "http://www.w3.org/TR/2001/REC-SVG-20010904/DTD/svg10.dtd">
<svg version="1.0" xmlns="http://www.w3.org/2000/svg"
 width="519.000000pt" height="519.000000pt" viewBox="0 0 519.000000 519.000000"
 preserveAspectRatio="xMidYMid meet">
<metadata>
Created by potrace 1.11, written by Peter Selinger 2001-2013
</metadata>
<g transform="translate(0.000000,519.000000) scale(0.100000,-0.100000)"
fill="#000000" stroke="none">
<path d="M164 5161 c-53 -24 -105 -77 -134 -135 -18 -39 -21 -59 -18 -119 2
-41 12 -88 22 -108 23 -49 79 -104 131 -129 41 -20 59 -20 1103 -20 l1062 0 0
-2055 0 -2055 -1068 -2 c-999 -3 -1069 -4 -1099 -21 -100 -54 -153 -140 -153
-247 1 -107 50 -188 144 -238 l51 -27 2374 -3 c1592 -1 2386 1 2411 8 72 19
132 69 168 140 31 59 34 71 29 131 -7 114 -76 207 -180 246 -24 8 -305 12
-1084 12 l-1053 1 0 2055 0 2055 1058 0 1057 0 51 24 c88 41 154 144 154 241
0 97 -66 200 -154 241 l-51 24 -2390 0 c-2310 0 -2391 -1 -2431 -19z m4823
-131 c51 -31 66 -62 61 -125 -3 -35 -12 -63 -24 -76 -45 -51 -6 -49 -1189 -49
l-1105 0 0 -2185 0 -2185 1103 0 c1061 0 1104 -1 1144 -19 50 -23 73 -63 73
-127 0 -41 -5 -51 -39 -85 l-39 -39 -2369 0 -2370 0 -34 23 c-90 60 -66 207
39 237 24 6 415 10 1130 10 l1092 0 0 2185 0 2185 -1107 0 c-1088 0 -1109 0
-1141 20 -76 47 -93 141 -36 202 16 16 38 34 49 38 11 5 1080 9 2375 9 2317 1
2356 1 2387 -19z"/>
</g>
</svg>
