<?xml version="1.0" standalone="no"?>
<!DOCTYPE svg PUBLIC "-//W3C//DTD SVG 20010904//EN"
 "http://www.w3.org/TR/2001/REC-SVG-20010904/DTD/svg10.dtd">
<svg version="1.0" xmlns="http://www.w3.org/2000/svg"
 width="519.000000pt" height="519.000000pt" viewBox="0 0 519.000000 519.000000"
 preserveAspectRatio="xMidYMid meet">
<metadata>
Created by potrace 1.11, written by Peter Selinger 2001-2013
</metadata>
<g transform="translate(0.000000,519.000000) scale(0.100000,-0.100000)"
fill="#000000" stroke="none">
<path d="M190 5173 c-65 -24 -152 -113 -175 -182 -37 -112 2 -255 89 -326 92
-75 1 -70 1159 -73 l1037 -2 0 -2000 0 -2000 -1037 0 -1038 0 -50 -24 c-67
-31 -140 -113 -160 -179 -44 -147 16 -291 147 -356 l61 -31 2377 0 2376 0 51
26 c108 53 162 144 163 270 0 98 -28 163 -96 223 -86 75 -18 71 -1166 71
l-1028 0 0 2000 0 2000 1038 2 1037 3 50 27 c63 33 118 90 144 148 31 69 29
190 -5 258 -28 56 -72 100 -137 134 l-42 23 -2375 2 c-2148 1 -2379 0 -2420
-14z m4763 -144 c96 -50 121 -162 53 -238 -47 -53 -3 -51 -1171 -51 l-1085 0
0 -2150 0 -2150 1098 0 c1070 0 1098 -1 1129 -20 91 -55 87 -199 -7 -255 -35
-20 -42 -20 -2340 -23 -1641 -2 -2320 0 -2356 8 -129 27 -166 169 -69 260 l27
25 1109 3 1109 2 0 2150 0 2150 -1099 2 c-1098 3 -1100 3 -1128 24 -52 39 -75
83 -70 137 5 57 30 95 78 119 32 17 166 18 2367 18 1705 0 2339 -3 2355 -11z"/>
</g>
</svg>
