<?xml version="1.0" standalone="no"?>
<!DOCTYPE svg PUBLIC "-//W3C//DTD SVG 20010904//EN"
 "http://www.w3.org/TR/2001/REC-SVG-20010904/DTD/svg10.dtd">
<svg version="1.0" xmlns="http://www.w3.org/2000/svg"
 width="519.000000pt" height="519.000000pt" viewBox="0 0 519.000000 519.000000"
 preserveAspectRatio="xMidYMid meet">
<metadata>
Created by potrace 1.11, written by Peter Selinger 2001-2013
</metadata>
<g transform="translate(0.000000,519.000000) scale(0.100000,-0.100000)"
fill="#000000" stroke="none">
<path d="M240 5181 c-92 -28 -169 -94 -209 -180 -22 -47 -26 -69 -25 -141 0
-72 4 -93 27 -137 39 -76 80 -118 149 -153 l61 -30 1014 0 1013 0 0 -1945 0
-1945 -1018 -2 -1017 -3 -50 -27 c-68 -35 -122 -92 -154 -158 -36 -75 -37
-202 -3 -271 36 -73 87 -125 155 -159 l62 -30 2360 2 2360 3 45 22 c59 29 124
94 152 152 17 34 24 68 26 134 4 83 2 93 -27 152 -38 77 -102 136 -177 165
-54 20 -74 20 -1054 20 l-1000 0 0 1945 0 1945 1003 0 c1154 0 1061 -8 1163
94 73 74 94 126 94 235 0 63 -5 87 -29 136 -34 74 -102 136 -177 165 -55 20
-65 20 -2387 19 -1283 0 -2343 -4 -2357 -8z m4696 -170 c57 -26 87 -72 92
-140 4 -65 -19 -109 -77 -148 l-34 -23 -1078 0 -1079 0 0 -2105 0 -2105 1068
0 1068 0 44 -22 c65 -34 85 -67 85 -143 0 -69 -15 -99 -69 -139 l-27 -21
-2312 -3 c-1272 -1 -2322 0 -2335 3 -39 10 -101 74 -113 118 -20 77 28 168
104 196 19 8 366 11 1093 11 l1064 0 0 2105 0 2105 -1070 0 c-1045 0 -1072 0
-1109 20 -65 33 -100 110 -81 179 14 52 46 90 94 112 40 18 123 19 2336 19
2217 0 2296 -1 2336 -19z"/>
</g>
</svg>
