<?xml version="1.0" standalone="no"?>
<!DOCTYPE svg PUBLIC "-//W3C//DTD SVG 20010904//EN"
 "http://www.w3.org/TR/2001/REC-SVG-20010904/DTD/svg10.dtd">
<svg version="1.0" xmlns="http://www.w3.org/2000/svg"
 width="519.000000pt" height="519.000000pt" viewBox="0 0 519.000000 519.000000"
 preserveAspectRatio="xMidYMid meet">
<metadata>
Created by potrace 1.11, written by Peter Selinger 2001-2013
</metadata>
<g transform="translate(0.000000,519.000000) scale(0.100000,-0.100000)"
fill="#000000" stroke="none">
<path d="M5 5178 c-3 -7 -4 -1174 -3 -2593 l3 -2580 24 -3 c13 -2 28 2 32 10
5 7 9 1149 9 2538 l0 2525 2538 -2538 c1873 -1873 2543 -2537 2560 -2537 l22
0 -2 2593 -3 2592 -25 0 -25 0 -5 -2538 -5 -2537 -2540 2540 c-1480 1480
-2547 2540 -2558 2540 -10 0 -20 -6 -22 -12z m2585 -2553 l2545 -2545 5 2542
c5 2411 6 2543 23 2546 16 3 17 -125 17 -2572 0 -1886 -3 -2577 -11 -2582 -7
-4 -1045 1027 -2565 2547 l-2554 2554 -2 -2549 c-2 -2029 -6 -2550 -15 -2554
-10 -3 -13 517 -13 2577 0 2059 3 2581 13 2581 6 0 1157 -1145 2557 -2545z"/>
</g>
</svg>
