<?xml version="1.0" standalone="no"?>
<!DOCTYPE svg PUBLIC "-//W3C//DTD SVG 20010904//EN"
 "http://www.w3.org/TR/2001/REC-SVG-20010904/DTD/svg10.dtd">
<svg version="1.0" xmlns="http://www.w3.org/2000/svg"
 width="520.000000pt" height="520.000000pt" viewBox="0 0 520.000000 520.000000"
 preserveAspectRatio="xMidYMid meet">
<metadata>
Created by potrace 1.11, written by Peter Selinger 2001-2013
</metadata>
<g transform="translate(0.000000,520.000000) scale(0.100000,-0.100000)"
fill="#000000" stroke="none">
<path d="M20 5180 c-20 -20 -20 -31 -18 -2587 l3 -2568 29 -14 c26 -12 33 -12
55 0 l26 15 3 2477 c1 1362 5 2477 9 2477 5 0 1129 -1121 2499 -2491 2387
-2387 2493 -2491 2520 -2485 16 4 34 12 39 17 16 16 18 5117 2 5149 -17 34
-68 39 -96 11 l-21 -21 0 -2472 0 -2473 -2493 2493 c-1839 1839 -2498 2492
-2515 2492 -12 0 -31 -9 -42 -20z m2567 -2522 l2513 -2513 0 2501 c0 2270 1
2503 16 2515 11 9 20 10 32 2 16 -9 17 -192 17 -2563 0 -2422 -1 -2553 -18
-2564 -15 -9 -354 326 -2537 2509 l-2520 2520 0 -2511 c0 -2311 -1 -2512 -16
-2518 -46 -18 -44 -142 -44 2569 0 1403 3 2555 7 2558 3 4 13 7 22 7 9 0 1147
-1131 2528 -2512z"/>
</g>
</svg>
