<?xml version="1.0" standalone="no"?>
<!DOCTYPE svg PUBLIC "-//W3C//DTD SVG 20010904//EN"
 "http://www.w3.org/TR/2001/REC-SVG-20010904/DTD/svg10.dtd">
<svg version="1.0" xmlns="http://www.w3.org/2000/svg"
 width="519.000000pt" height="519.000000pt" viewBox="0 0 519.000000 519.000000"
 preserveAspectRatio="xMidYMid meet">
<metadata>
Created by potrace 1.11, written by Peter Selinger 2001-2013
</metadata>
<g transform="translate(0.000000,519.000000) scale(0.100000,-0.100000)"
fill="#000000" stroke="none">
<path d="M29 5161 l-29 -29 0 -2542 0 -2541 25 -24 c34 -35 96 -35 130 0 l25
24 0 2413 0 2413 2438 -2438 2437 -2437 43 0 c32 0 49 6 67 25 l25 24 0 2546
0 2546 -25 24 c-35 36 -88 34 -126 -4 l-29 -29 0 -2409 0 -2408 -2427 2426
c-1336 1335 -2438 2432 -2450 2438 -37 19 -73 13 -104 -18z m2556 -2491 l2470
-2470 5 2467 5 2468 28 3 c16 2 35 -2 43 -9 12 -10 14 -351 14 -2532 0 -2331
-1 -2522 -17 -2539 -9 -10 -23 -18 -32 -18 -9 0 -1129 1113 -2488 2472 l-2473
2473 0 -2454 c0 -2270 -1 -2456 -17 -2473 -19 -21 -44 -23 -61 -6 -9 9 -12
588 -12 2543 0 1393 3 2535 7 2538 32 33 15 50 2528 -2463z"/>
</g>
</svg>
