<?xml version="1.0" standalone="no"?>
<!DOCTYPE svg PUBLIC "-//W3C//DTD SVG 20010904//EN"
 "http://www.w3.org/TR/2001/REC-SVG-20010904/DTD/svg10.dtd">
<svg version="1.0" xmlns="http://www.w3.org/2000/svg"
 width="519.000000pt" height="519.000000pt" viewBox="0 0 519.000000 519.000000"
 preserveAspectRatio="xMidYMid meet">
<metadata>
Created by potrace 1.11, written by Peter Selinger 2001-2013
</metadata>
<g transform="translate(0.000000,519.000000) scale(0.100000,-0.100000)"
fill="#000000" stroke="none">
<path d="M58 5174 c-62 -33 -58 169 -58 -2590 l0 -2516 34 -34 c29 -29 41 -34
83 -34 55 0 86 17 108 60 13 26 15 313 15 2372 l0 2343 2388 -2388 2387 -2387
58 0 c51 0 62 4 88 29 l29 29 0 2532 0 2532 -34 34 c-29 29 -41 34 -81 34 -40
0 -52 -5 -81 -34 l-34 -34 0 -2358 0 -2359 -2382 2381 c-1311 1310 -2393 2387
-2405 2393 -30 15 -83 13 -115 -5z m2517 -2474 l2430 -2430 5 2416 c5 2377 5
2416 24 2430 25 18 57 18 82 0 19 -14 19 -53 22 -2516 l2 -2501 -24 -24 c-14
-14 -33 -25 -43 -25 -10 0 -1027 1009 -2455 2437 l-2438 2438 0 -2415 c0
-1328 -4 -2420 -8 -2426 -24 -37 -91 -36 -106 1 -3 9 -6 1140 -6 2513 0 2308
1 2497 17 2514 43 47 -74 160 2498 -2412z"/>
</g>
</svg>
