<?xml version="1.0" standalone="no"?>
<!DOCTYPE svg PUBLIC "-//W3C//DTD SVG 20010904//EN"
 "http://www.w3.org/TR/2001/REC-SVG-20010904/DTD/svg10.dtd">
<svg version="1.0" xmlns="http://www.w3.org/2000/svg"
 width="519.000000pt" height="519.000000pt" viewBox="0 0 519.000000 519.000000"
 preserveAspectRatio="xMidYMid meet">
<metadata>
Created by potrace 1.11, written by Peter Selinger 2001-2013
</metadata>
<g transform="translate(0.000000,519.000000) scale(0.100000,-0.100000)"
fill="#000000" stroke="none">
<path d="M72 5170 c-18 -11 -41 -34 -52 -52 -20 -33 -20 -56 -20 -2521 0
-2733 -5 -2516 60 -2571 26 -22 42 -26 90 -26 48 0 64 4 90 26 65 55 60 -142
60 2366 l0 2283 2328 -2326 c1280 -1280 2337 -2332 2349 -2338 31 -16 109 -14
144 4 16 9 39 30 49 48 20 32 20 70 20 2534 l0 2501 -26 32 c-73 86 -197 78
-251 -16 l-23 -39 0 -2280 0 -2280 -2327 2326 c-1281 1280 -2338 2332 -2350
2338 -35 18 -104 13 -141 -9z m2498 -2446 c1312 -1311 2388 -2384 2393 -2384
4 0 7 1064 7 2364 0 2282 1 2365 18 2387 27 33 78 30 109 -5 l23 -27 0 -2470
0 -2470 -25 -24 c-56 -57 122 -227 -2472 2367 l-2393 2393 0 -2357 c0 -1731
-3 -2364 -11 -2382 -17 -36 -65 -54 -98 -35 -14 8 -31 26 -38 39 -19 37 -19
4913 0 4950 15 30 55 52 82 44 11 -3 1093 -1079 2405 -2390z"/>
</g>
</svg>
