<?xml version="1.0" standalone="no"?>
<!DOCTYPE svg PUBLIC "-//W3C//DTD SVG 20010904//EN"
 "http://www.w3.org/TR/2001/REC-SVG-20010904/DTD/svg10.dtd">
<svg version="1.0" xmlns="http://www.w3.org/2000/svg"
 width="520.000000pt" height="520.000000pt" viewBox="0 0 520.000000 520.000000"
 preserveAspectRatio="xMidYMid meet">
<metadata>
Created by potrace 1.11, written by Peter Selinger 2001-2013
</metadata>
<g transform="translate(0.000000,520.000000) scale(0.100000,-0.100000)"
fill="#000000" stroke="none">
<path d="M113 5189 c-43 -12 -90 -62 -103 -107 -7 -25 -10 -838 -10 -2492 l0
-2455 23 -40 c35 -62 77 -85 156 -85 81 0 128 27 160 93 l21 43 0 2220 0 2219
2283 -2282 c1738 -1738 2289 -2283 2312 -2288 17 -4 37 -9 47 -11 56 -16 168
54 186 115 4 15 7 1135 7 2491 0 2328 -1 2467 -17 2497 -10 18 -35 45 -55 60
-31 24 -46 28 -103 28 -78 0 -125 -26 -159 -86 l-21 -37 0 -2221 c0 -1221 -3
-2221 -7 -2221 -5 0 -1032 1024 -2283 2275 -1303 1302 -2287 2279 -2303 2285
-34 12 -90 12 -134 -1z m2452 -2429 c1293 -1292 2353 -2350 2358 -2350 4 0 7
1046 7 2325 l0 2326 25 24 c32 33 84 33 122 1 l28 -24 3 -2444 c2 -1826 -1
-2450 -9 -2471 -13 -31 -55 -57 -91 -57 -17 0 -614 591 -2380 2357 l-2358
2358 -2 -2332 -3 -2332 -23 -23 c-33 -34 -97 -31 -128 5 l-24 28 0 2453 0
2453 26 27 c19 18 37 26 63 26 34 0 128 -92 2386 -2350z"/>
</g>
</svg>
