<?xml version="1.0" standalone="no"?>
<!DOCTYPE svg PUBLIC "-//W3C//DTD SVG 20010904//EN"
 "http://www.w3.org/TR/2001/REC-SVG-20010904/DTD/svg10.dtd">
<svg version="1.0" xmlns="http://www.w3.org/2000/svg"
 width="519.000000pt" height="519.000000pt" viewBox="0 0 519.000000 519.000000"
 preserveAspectRatio="xMidYMid meet">
<metadata>
Created by potrace 1.11, written by Peter Selinger 2001-2013
</metadata>
<g transform="translate(0.000000,519.000000) scale(0.100000,-0.100000)"
fill="#000000" stroke="none">
<path d="M109 5167 c-24 -13 -57 -43 -74 -66 l-30 -43 -3 -2441 c-2 -1713 0
-2453 8 -2479 25 -86 101 -138 203 -138 85 0 143 35 181 111 l26 53 0 2155 0
2156 2228 -2227 c1275 -1275 2239 -2232 2255 -2238 37 -13 128 -13 164 1 38
14 92 67 109 106 12 27 14 420 14 2478 0 2384 0 2447 -19 2483 -37 72 -104
112 -186 112 -83 0 -148 -39 -188 -115 l-22 -40 -5 -2158 -5 -2157 -2215 2216
c-1545 1545 -2227 2222 -2255 2235 -56 26 -131 25 -186 -4z m2459 -2400 l2312
-2312 0 2281 c0 2253 0 2282 20 2306 25 33 73 52 106 44 15 -4 39 -20 55 -36
l29 -28 0 -2427 0 -2427 -34 -34 c-27 -27 -42 -34 -72 -34 -38 0 -77 38 -2351
2312 l-2313 2313 0 -2255 c0 -1552 -3 -2267 -11 -2293 -18 -65 -104 -99 -157
-61 -56 39 -52 -132 -52 2474 0 2647 -5 2455 62 2485 18 8 47 13 63 10 24 -4
510 -486 2343 -2318z"/>
</g>
</svg>
