<?xml version="1.0" standalone="no"?>
<!DOCTYPE svg PUBLIC "-//W3C//DTD SVG 20010904//EN"
 "http://www.w3.org/TR/2001/REC-SVG-20010904/DTD/svg10.dtd">
<svg version="1.0" xmlns="http://www.w3.org/2000/svg"
 width="519.000000pt" height="519.000000pt" viewBox="0 0 519.000000 519.000000"
 preserveAspectRatio="xMidYMid meet">
<metadata>
Created by potrace 1.11, written by Peter Selinger 2001-2013
</metadata>
<g transform="translate(0.000000,519.000000) scale(0.100000,-0.100000)"
fill="#000000" stroke="none">
<path d="M132 5164 c-56 -28 -92 -67 -117 -127 -13 -32 -15 -304 -15 -2438 0
-1794 3 -2411 12 -2440 15 -52 73 -117 122 -140 26 -12 64 -19 106 -19 110 0
195 62 226 167 12 39 14 386 14 2127 l0 2081 2173 -2172 c1554 -1554 2183
-2177 2209 -2188 21 -8 65 -15 98 -15 93 0 167 45 209 128 l21 41 0 2423 c0
2332 -1 2425 -19 2464 -23 49 -88 107 -140 122 -120 37 -250 -23 -298 -135
-11 -27 -13 -392 -13 -2128 0 -1152 -3 -2095 -7 -2095 -5 0 -987 978 -2183
2174 -1898 1897 -2180 2176 -2215 2185 -67 18 -126 13 -183 -15z m2425 -2366
l2273 -2273 0 2210 c0 1432 4 2223 10 2246 16 58 52 84 117 84 49 0 58 -3 84
-33 l29 -32 0 -2406 0 -2406 -34 -34 c-29 -29 -41 -34 -82 -34 l-49 0 -2272
2272 -2273 2273 0 -2223 c0 -1854 -2 -2228 -14 -2255 -18 -44 -56 -67 -110
-67 -36 0 -52 6 -78 29 l-33 29 -3 2399 c-2 1827 1 2405 10 2427 15 38 64 66
113 66 40 0 47 -7 2312 -2272z"/>
</g>
</svg>
