<?xml version="1.0" standalone="no"?>
<!DOCTYPE svg PUBLIC "-//W3C//DTD SVG 20010904//EN"
 "http://www.w3.org/TR/2001/REC-SVG-20010904/DTD/svg10.dtd">
<svg version="1.0" xmlns="http://www.w3.org/2000/svg"
 width="519.000000pt" height="519.000000pt" viewBox="0 0 519.000000 519.000000"
 preserveAspectRatio="xMidYMid meet">
<metadata>
Created by potrace 1.11, written by Peter Selinger 2001-2013
</metadata>
<g transform="translate(0.000000,519.000000) scale(0.100000,-0.100000)"
fill="#000000" stroke="none">
<path d="M160 5170 c-61 -28 -108 -75 -136 -135 l-24 -50 1 -2390 c0 -1971 2
-2397 13 -2428 21 -57 62 -104 119 -137 45 -26 62 -30 130 -30 119 0 193 45
248 150 l24 45 3 2035 2 2035 2113 -2112 c1662 -1662 2122 -2116 2157 -2132
54 -25 173 -28 224 -7 49 20 112 81 135 130 l21 42 0 2410 0 2409 -30 52
c-109 190 -388 175 -479 -27 -20 -45 -21 -55 -21 -2080 l0 -2035 -2117 2116
c-1487 1486 -2130 2122 -2158 2135 -61 28 -169 30 -225 4z m153 -124 c19 -8
938 -920 2252 -2235 l2220 -2221 5 2189 5 2190 21 28 c11 15 37 36 58 47 49
24 97 15 144 -29 l37 -33 3 -2377 c2 -2133 1 -2379 -13 -2406 -22 -42 -71 -69
-125 -69 l-45 0 -2230 2230 c-1227 1227 -2233 2230 -2238 2230 -4 0 -7 -982
-7 -2182 0 -2147 0 -2184 -20 -2215 -59 -97 -209 -75 -241 37 -7 23 -9 808 -7
2387 l3 2352 21 28 c22 30 78 63 107 63 10 0 32 -6 50 -14z"/>
</g>
</svg>
