<?xml version="1.0" standalone="no"?>
<!DOCTYPE svg PUBLIC "-//W3C//DTD SVG 20010904//EN"
 "http://www.w3.org/TR/2001/REC-SVG-20010904/DTD/svg10.dtd">
<svg version="1.0" xmlns="http://www.w3.org/2000/svg"
 width="520.000000pt" height="520.000000pt" viewBox="0 0 520.000000 520.000000"
 preserveAspectRatio="xMidYMid meet">
<metadata>
Created by potrace 1.11, written by Peter Selinger 2001-2013
</metadata>
<g transform="translate(0.000000,520.000000) scale(0.100000,-0.100000)"
fill="#000000" stroke="none">
<path d="M194 5182 c-85 -30 -147 -92 -176 -176 -16 -48 -17 -185 -18 -2407 0
-2642 -7 -2405 76 -2498 54 -60 110 -89 190 -97 128 -14 239 47 296 163 l33
68 3 1970 2 1970 2068 -2067 c2304 -2302 2092 -2104 2242 -2102 60 0 85 6 126
26 63 33 116 90 140 154 18 48 19 118 19 2424 l0 2375 -23 47 c-31 63 -110
132 -174 154 -68 22 -168 15 -232 -17 -57 -28 -111 -85 -140 -148 l-21 -46 -3
-1975 -2 -1975 -2063 2062 c-1749 1749 -2070 2066 -2112 2084 -68 30 -165 35
-231 11z m163 -142 c16 -6 961 -944 2211 -2193 l2182 -2182 0 2135 c0 2059 1
2137 19 2170 27 50 62 73 123 78 44 3 59 0 88 -20 19 -13 43 -39 52 -58 17
-33 18 -167 18 -2368 0 -2133 -1 -2337 -16 -2368 -30 -62 -96 -93 -171 -80
-34 7 -259 228 -2225 2194 l-2188 2187 -2 -2142 -3 -2142 -21 -28 c-70 -94
-190 -96 -251 -4 l-23 34 0 2346 c0 2323 0 2346 20 2379 38 62 116 88 187 62z"/>
</g>
</svg>
