<?xml version="1.0" standalone="no"?>
<!DOCTYPE svg PUBLIC "-//W3C//DTD SVG 20010904//EN"
 "http://www.w3.org/TR/2001/REC-SVG-20010904/DTD/svg10.dtd">
<svg version="1.0" xmlns="http://www.w3.org/2000/svg"
 width="519.000000pt" height="519.000000pt" viewBox="0 0 519.000000 519.000000"
 preserveAspectRatio="xMidYMid meet">
<metadata>
Created by potrace 1.11, written by Peter Selinger 2001-2013
</metadata>
<g transform="translate(0.000000,519.000000) scale(0.100000,-0.100000)"
fill="#000000" stroke="none">
<path d="M218 5175 c-60 -23 -125 -72 -158 -121 -65 -93 -60 98 -58 -2479 l3
-2350 23 -43 c34 -63 93 -124 149 -152 64 -33 189 -40 262 -15 70 23 147 95
182 170 l29 60 0 1915 0 1915 2013 -2012 c2251 -2251 2050 -2063 2207 -2063
69 0 95 5 137 24 66 31 129 94 159 161 l24 52 -2 2364 -3 2364 -25 48 c-28 56
-89 115 -152 149 -36 19 -58 23 -138 23 -84 0 -101 -3 -147 -28 -66 -34 -116
-84 -151 -150 l-27 -52 -3 -1920 -2 -1920 -2013 2012 c-1703 1703 -2020 2016
-2062 2034 -63 28 -192 36 -247 14z m170 -160 c26 -11 646 -624 2175 -2153
l2137 -2137 0 2075 c0 1372 4 2087 10 2112 13 46 77 105 125 114 71 13 149
-26 179 -90 15 -31 16 -232 16 -2349 l0 -2314 -23 -34 c-47 -70 -127 -97 -204
-69 -16 6 -944 927 -2170 2153 l-2143 2142 -2 -2102 -3 -2102 -21 -28 c-40
-54 -83 -75 -145 -71 -68 5 -114 35 -140 92 -18 40 -19 120 -19 2338 0 1599 3
2305 11 2325 14 37 57 82 94 99 40 18 78 17 123 -1z"/>
</g>
</svg>
