<?xml version="1.0" standalone="no"?>
<!DOCTYPE svg PUBLIC "-//W3C//DTD SVG 20010904//EN"
 "http://www.w3.org/TR/2001/REC-SVG-20010904/DTD/svg10.dtd">
<svg version="1.0" xmlns="http://www.w3.org/2000/svg"
 width="519.000000pt" height="519.000000pt" viewBox="0 0 519.000000 519.000000"
 preserveAspectRatio="xMidYMid meet">
<metadata>
Created by potrace 1.11, written by Peter Selinger 2001-2013
</metadata>
<g transform="translate(0.000000,519.000000) scale(0.100000,-0.100000)"
fill="#000000" stroke="none">
<path d="M17 5172 c-22 -24 -21 -65 1 -85 17 -16 205 -17 2493 -17 l2474 0
-2493 -2493 c-2636 -2637 -2521 -2517 -2476 -2561 14 -14 262 -16 2583 -16
1983 0 2570 3 2579 12 18 18 14 73 -6 91 -17 16 -204 17 -2488 17 l-2469 0
2488 2488 c2264 2265 2487 2490 2487 2519 0 17 -7 39 -16 47 -14 14 -262 16
-2578 16 -2470 0 -2563 -1 -2579 -18z m5141 -41 c3 -20 -382 -410 -2505 -2533
l-2508 -2508 2505 -2 2505 -3 3 -28 3 -27 -2563 2 c-2508 3 -2563 3 -2566 22
-3 14 644 667 2509 2532 l2514 2514 -2508 0 c-2220 0 -2508 2 -2513 15 -4 8
-4 22 0 30 5 13 296 15 2563 13 l2558 -3 3 -24z"/>
</g>
</svg>
