<?xml version="1.0" standalone="no"?>
<!DOCTYPE svg PUBLIC "-//W3C//DTD SVG 20010904//EN"
 "http://www.w3.org/TR/2001/REC-SVG-20010904/DTD/svg10.dtd">
<svg version="1.0" xmlns="http://www.w3.org/2000/svg"
 width="519.000000pt" height="519.000000pt" viewBox="0 0 519.000000 519.000000"
 preserveAspectRatio="xMidYMid meet">
<metadata>
Created by potrace 1.11, written by Peter Selinger 2001-2013
</metadata>
<g transform="translate(0.000000,519.000000) scale(0.100000,-0.100000)"
fill="#000000" stroke="none">
<path d="M29 5161 c-41 -41 -37 -102 10 -138 13 -10 548 -12 2431 -13 l2415 0
-2438 -2438 c-2185 -2185 -2438 -2441 -2444 -2474 -5 -32 -1 -41 25 -68 l30
-30 2542 0 2541 0 24 25 c36 35 34 88 -4 126 l-29 29 -2409 0 -2408 0 2438
2438 c2392 2393 2437 2438 2437 2475 0 29 -7 46 -29 68 l-29 29 -2537 0 -2537
0 -29 -29z m5109 -33 c7 -7 12 -21 12 -32 0 -14 -794 -815 -2472 -2493 l-2473
-2473 2461 0 c1900 0 2463 -3 2472 -12 17 -17 15 -38 -5 -60 -15 -17 -108 -18
-2538 -18 -1947 0 -2524 3 -2533 12 -39 39 -105 -30 2455 2530 l2468 2468
-2456 0 c-1896 0 -2458 3 -2467 12 -13 13 -16 60 -5 71 3 4 1145 7 2538 7
1955 0 2534 -3 2543 -12z"/>
</g>
</svg>
