<?xml version="1.0" standalone="no"?>
<!DOCTYPE svg PUBLIC "-//W3C//DTD SVG 20010904//EN"
 "http://www.w3.org/TR/2001/REC-SVG-20010904/DTD/svg10.dtd">
<svg version="1.0" xmlns="http://www.w3.org/2000/svg"
 width="519.000000pt" height="519.000000pt" viewBox="0 0 519.000000 519.000000"
 preserveAspectRatio="xMidYMid meet">
<metadata>
Created by potrace 1.11, written by Peter Selinger 2001-2013
</metadata>
<g transform="translate(0.000000,519.000000) scale(0.100000,-0.100000)"
fill="#000000" stroke="none">
<path d="M39 5151 c-29 -29 -39 -47 -39 -71 0 -45 25 -93 59 -113 27 -16 182
-17 2378 -17 l2348 0 -2388 -2388 c-2260 -2260 -2389 -2391 -2394 -2429 -7
-50 16 -97 57 -118 26 -13 316 -15 2546 -15 l2516 0 34 34 c28 28 34 42 34 76
0 23 -8 55 -17 71 -38 64 149 59 -2420 59 l-2338 0 2376 2378 c1308 1307 2382
2387 2388 2399 27 53 3 131 -49 158 -26 13 -315 15 -2541 15 l-2511 0 -39 -39z
m5073 -38 c10 -9 18 -30 18 -47 0 -28 -245 -276 -2427 -2458 l-2428 -2428
2409 0 c2228 0 2411 -1 2428 -17 22 -20 24 -66 2 -87 -14 -14 -256 -16 -2516
-16 -2314 0 -2503 1 -2520 17 -47 43 -159 -73 2414 2500 l2433 2433 -2414 0
c-2233 0 -2416 1 -2433 17 -22 20 -23 61 -1 85 15 17 107 18 2516 18 2313 0
2502 -1 2519 -17z"/>
</g>
</svg>
