<?xml version="1.0" standalone="no"?>
<!DOCTYPE svg PUBLIC "-//W3C//DTD SVG 20010904//EN"
 "http://www.w3.org/TR/2001/REC-SVG-20010904/DTD/svg10.dtd">
<svg version="1.0" xmlns="http://www.w3.org/2000/svg"
 width="519.000000pt" height="519.000000pt" viewBox="0 0 519.000000 519.000000"
 preserveAspectRatio="xMidYMid meet">
<metadata>
Created by potrace 1.11, written by Peter Selinger 2001-2013
</metadata>
<g transform="translate(0.000000,519.000000) scale(0.100000,-0.100000)"
fill="#000000" stroke="none">
<path d="M72 5170 c-94 -57 -96 -196 -3 -257 l34 -23 2286 0 2286 0 -2327
-2327 c-1333 -1334 -2332 -2340 -2338 -2356 -23 -64 -7 -128 45 -177 l27 -25
2501 -3 c2347 -3 2504 -2 2535 14 101 53 96 210 -8 265 -33 18 -115 19 -2315
19 l-2280 0 2335 2335 2335 2335 0 69 c0 60 -3 73 -25 96 -55 59 138 55 -2567
55 -2465 0 -2488 0 -2521 -20z m5001 -62 c32 -17 46 -39 47 -73 0 -27 -263
-293 -2392 -2422 l-2393 -2393 2372 0 2372 0 20 -26 c28 -35 26 -69 -4 -99
l-24 -25 -2473 0 c-1928 1 -2476 3 -2489 13 -25 19 -41 56 -34 80 4 12 1081
1096 2393 2410 l2387 2387 -2362 0 -2362 0 -27 23 c-45 39 -34 105 21 127 34
14 4922 12 4948 -2z"/>
</g>
</svg>
