<?xml version="1.0" standalone="no"?>
<!DOCTYPE svg PUBLIC "-//W3C//DTD SVG 20010904//EN"
 "http://www.w3.org/TR/2001/REC-SVG-20010904/DTD/svg10.dtd">
<svg version="1.0" xmlns="http://www.w3.org/2000/svg"
 width="519.000000pt" height="519.000000pt" viewBox="0 0 519.000000 519.000000"
 preserveAspectRatio="xMidYMid meet">
<metadata>
Created by potrace 1.11, written by Peter Selinger 2001-2013
</metadata>
<g transform="translate(0.000000,519.000000) scale(0.100000,-0.100000)"
fill="#000000" stroke="none">
<path d="M100 5168 c-129 -66 -132 -243 -5 -315 l40 -23 2220 0 2220 0 -2272
-2272 c-1625 -1626 -2277 -2284 -2288 -2310 -37 -90 -1 -188 87 -234 23 -12
390 -14 2494 -14 l2466 0 40 22 c23 13 51 41 65 66 50 84 17 202 -70 250 -30
16 -163 17 -2255 22 l-2222 5 2271 2270 c1345 1344 2277 2283 2285 2302 18 42
18 116 0 151 -19 36 -65 78 -99 91 -20 8 -772 11 -2481 11 l-2452 0 -44 -22z
m4974 -93 c20 -19 26 -33 26 -67 l0 -43 -2347 -2347 -2348 -2348 2313 0 c1740
0 2319 -3 2335 -12 34 -18 46 -39 47 -81 0 -27 -7 -45 -25 -62 l-24 -25 -2456
0 -2456 0 -24 26 c-17 18 -25 39 -25 63 0 34 94 130 2352 2388 l2353 2353
-2325 0 c-1812 1 -2329 3 -2341 13 -47 36 -51 97 -10 138 l29 29 2450 0 2449
0 27 -25z"/>
</g>
</svg>
