<?xml version="1.0" standalone="no"?>
<!DOCTYPE svg PUBLIC "-//W3C//DTD SVG 20010904//EN"
 "http://www.w3.org/TR/2001/REC-SVG-20010904/DTD/svg10.dtd">
<svg version="1.0" xmlns="http://www.w3.org/2000/svg"
 width="519.000000pt" height="519.000000pt" viewBox="0 0 519.000000 519.000000"
 preserveAspectRatio="xMidYMid meet">
<metadata>
Created by potrace 1.11, written by Peter Selinger 2001-2013
</metadata>
<g transform="translate(0.000000,519.000000) scale(0.100000,-0.100000)"
fill="#000000" stroke="none">
<path d="M125 5171 c-168 -78 -164 -314 7 -385 33 -14 266 -16 2190 -16 l2153
0 -2226 -2227 c-2420 -2421 -2256 -2249 -2247 -2359 6 -69 46 -128 107 -161
l44 -23 2444 0 c2382 0 2445 0 2481 19 74 38 112 102 112 186 0 32 -7 72 -16
91 -23 48 -87 100 -139 113 -31 8 -654 11 -2177 11 l-2133 0 2221 2223 c1826
1826 2224 2229 2234 2261 7 21 10 65 8 97 -5 73 -43 132 -107 166 l-44 23
-2436 0 c-2350 0 -2437 -1 -2476 -19z m4922 -107 c32 -24 48 -70 39 -111 -5
-20 -689 -710 -2314 -2335 l-2307 -2308 2280 0 c2145 0 2281 -1 2301 -18 55
-44 59 -109 10 -158 l-34 -34 -2418 0 c-1914 0 -2424 3 -2444 13 -34 17 -62
74 -55 112 4 24 505 529 2313 2338 l2307 2307 -2263 0 c-2520 0 -2313 -6
-2348 68 -24 51 -4 109 46 135 33 16 166 17 2447 15 l2412 -3 28 -21z"/>
</g>
</svg>
