<?xml version="1.0" standalone="no"?>
<!DOCTYPE svg PUBLIC "-//W3C//DTD SVG 20010904//EN"
 "http://www.w3.org/TR/2001/REC-SVG-20010904/DTD/svg10.dtd">
<svg version="1.0" xmlns="http://www.w3.org/2000/svg"
 width="520.000000pt" height="520.000000pt" viewBox="0 0 520.000000 520.000000"
 preserveAspectRatio="xMidYMid meet">
<metadata>
Created by potrace 1.11, written by Peter Selinger 2001-2013
</metadata>
<g transform="translate(0.000000,520.000000) scale(0.100000,-0.100000)"
fill="#000000" stroke="none">
<path d="M170 5191 c-97 -30 -155 -99 -167 -201 -11 -98 41 -195 131 -243 l41
-22 2105 -3 2105 -2 -2181 -2183 c-2066 -2067 -2182 -2185 -2194 -2230 -34
-129 37 -263 159 -297 52 -14 4807 -14 4865 1 157 39 218 252 109 379 -19 22
-54 51 -77 63 l-41 22 -2105 3 -2105 2 2177 2178 c1870 1869 2180 2183 2193
2221 40 115 -5 239 -108 294 l-42 22 -2420 2 c-1331 1 -2431 -2 -2445 -6z
m4874 -145 c30 -28 36 -40 36 -75 0 -23 -5 -52 -11 -64 -7 -12 -1029 -1038
-2272 -2282 l-2261 -2260 2235 -5 c1939 -4 2237 -7 2256 -20 63 -41 70 -142
13 -192 l-30 -28 -2411 0 -2412 0 -33 36 c-28 29 -34 43 -34 77 0 23 8 54 18
68 9 14 1031 1040 2271 2280 l2255 2254 -2235 5 c-2432 5 -2257 1 -2293 61
-32 54 -12 134 42 163 24 13 324 15 2429 16 l2402 0 35 -34z"/>
</g>
</svg>
