<?xml version="1.0" standalone="no"?>
<!DOCTYPE svg PUBLIC "-//W3C//DTD SVG 20010904//EN"
 "http://www.w3.org/TR/2001/REC-SVG-20010904/DTD/svg10.dtd">
<svg version="1.0" xmlns="http://www.w3.org/2000/svg"
 width="519.000000pt" height="519.000000pt" viewBox="0 0 519.000000 519.000000"
 preserveAspectRatio="xMidYMid meet">
<metadata>
Created by potrace 1.11, written by Peter Selinger 2001-2013
</metadata>
<g transform="translate(0.000000,519.000000) scale(0.100000,-0.100000)"
fill="#000000" stroke="none">
<path d="M176 5175 c-54 -19 -106 -63 -141 -120 -27 -43 -30 -57 -30 -129 0
-71 4 -88 29 -134 17 -29 48 -66 70 -83 86 -63 -54 -59 2155 -59 l2016 0
-2117 -2117 c-1164 -1165 -2124 -2134 -2134 -2153 -28 -52 -26 -181 3 -235 28
-53 78 -99 133 -124 45 -20 53 -21 2440 -21 2328 0 2396 1 2437 19 55 25 118
91 139 146 11 31 15 65 13 117 -4 63 -9 81 -37 125 -20 32 -53 65 -85 85 l-52
33 -2050 3 -2050 2 2117 2118 c1667 1667 2121 2127 2137 2162 28 61 28 159 0
220 -25 55 -71 105 -124 133 l-40 22 -2395 2 c-2019 2 -2401 0 -2434 -12z
m4797 -129 c65 -28 99 -94 83 -163 -5 -20 -672 -693 -2234 -2255 l-2227 -2228
2180 0 c2093 0 2182 -1 2214 -18 40 -21 71 -73 71 -117 0 -44 -31 -96 -71
-117 -33 -17 -122 -18 -2406 -16 l-2372 3 -30 29 c-41 40 -57 88 -42 135 8 29
455 481 2231 2256 1221 1221 2220 2223 2220 2227 0 5 -981 8 -2180 8 -2383 0
-2215 -4 -2255 57 -11 16 -19 47 -19 75 -1 55 23 94 75 120 32 17 166 18 2382
18 1966 0 2353 -2 2380 -14z"/>
</g>
</svg>
