<?xml version="1.0" standalone="no"?>
<!DOCTYPE svg PUBLIC "-//W3C//DTD SVG 20010904//EN"
 "http://www.w3.org/TR/2001/REC-SVG-20010904/DTD/svg10.dtd">
<svg version="1.0" xmlns="http://www.w3.org/2000/svg"
 width="519.000000pt" height="519.000000pt" viewBox="0 0 519.000000 519.000000"
 preserveAspectRatio="xMidYMid meet">
<metadata>
Created by potrace 1.11, written by Peter Selinger 2001-2013
</metadata>
<g transform="translate(0.000000,519.000000) scale(0.100000,-0.100000)"
fill="#000000" stroke="none">
<path d="M210 5181 c-47 -15 -85 -39 -126 -83 -67 -69 -79 -100 -79 -203 0
-82 3 -95 31 -145 33 -59 101 -118 162 -141 31 -12 357 -14 2002 -17 l1965 -2
-2056 -2058 c-1673 -1674 -2061 -2066 -2080 -2107 -19 -41 -24 -66 -24 -135 0
-76 3 -91 30 -139 33 -59 78 -101 142 -131 42 -20 61 -20 2421 -20 l2378 0 51
26 c60 29 117 88 144 148 21 47 25 157 8 216 -18 59 -78 130 -139 164 l-55 31
-1985 3 -1985 2 2067 2068 c1627 1627 2071 2077 2087 2112 28 63 29 184 1 243
-30 64 -72 109 -131 142 l-54 30 -2375 2 c-1306 1 -2386 -2 -2400 -6z m4768
-163 c47 -29 76 -94 67 -151 -6 -40 -116 -151 -2198 -2234 l-2192 -2193 2145
0 c2135 0 2145 0 2178 -20 45 -28 76 -97 67 -152 -9 -50 -67 -112 -115 -121
-18 -4 -1073 -7 -2344 -7 -2231 0 -2312 1 -2352 19 -60 27 -88 77 -82 147 l5
56 2189 2189 2189 2189 -2130 0 c-2055 0 -2131 1 -2171 19 -60 27 -88 77 -82
147 4 43 11 61 34 85 16 17 38 35 49 39 11 5 1075 9 2364 9 l2344 1 35 -22z"/>
</g>
</svg>
