<?xml version="1.0" standalone="no"?>
<!DOCTYPE svg PUBLIC "-//W3C//DTD SVG 20010904//EN"
 "http://www.w3.org/TR/2001/REC-SVG-20010904/DTD/svg10.dtd">
<svg version="1.0" xmlns="http://www.w3.org/2000/svg"
 width="519.000000pt" height="519.000000pt" viewBox="0 0 519.000000 519.000000"
 preserveAspectRatio="xMidYMid meet">
<metadata>
Created by potrace 1.11, written by Peter Selinger 2001-2013
</metadata>
<g transform="translate(0.000000,519.000000) scale(0.100000,-0.100000)"
fill="#000000" stroke="none">
<path d="M222 5171 c-141 -49 -232 -190 -219 -337 11 -119 76 -213 185 -266
l67 -33 1905 -3 1904 -2 -2005 -2008 c-2250 -2251 -2054 -2041 -2053 -2202 0
-73 4 -93 27 -138 35 -67 90 -122 153 -153 l49 -24 2365 0 2365 0 53 29 c108
60 163 148 170 271 3 66 0 91 -19 140 -29 78 -106 155 -184 184 l-56 21 -1907
0 -1907 0 2012 2013 c1424 1424 2018 2025 2034 2057 20 38 24 60 24 140 0 80
-4 103 -24 144 -31 63 -86 118 -153 153 l-53 28 -2340 2 c-2247 2 -2342 2
-2393 -16z m4740 -143 c55 -33 86 -79 94 -140 14 -98 151 47 -2139 -2245
l-2122 -2123 2065 -2 2065 -3 38 -24 c142 -88 117 -305 -40 -351 -27 -8 -703
-10 -2348 -8 l-2310 3 -38 23 c-80 50 -114 169 -72 252 9 20 955 974 2128
2147 l2112 2113 -2058 0 c-2035 0 -2058 0 -2097 20 -94 48 -132 166 -84 261
18 36 79 87 112 95 15 3 32 7 37 9 6 2 1045 3 2310 2 l2300 -2 47 -27z"/>
</g>
</svg>
