<?xml version="1.0" standalone="no"?>
<!DOCTYPE svg PUBLIC "-//W3C//DTD SVG 20010904//EN"
 "http://www.w3.org/TR/2001/REC-SVG-20010904/DTD/svg10.dtd">
<svg version="1.0" xmlns="http://www.w3.org/2000/svg"
 width="519.000000pt" height="519.000000pt" viewBox="0 0 519.000000 519.000000"
 preserveAspectRatio="xMidYMid meet">
<metadata>
Created by potrace 1.11, written by Peter Selinger 2001-2013
</metadata>
<g transform="translate(0.000000,519.000000) scale(0.100000,-0.100000)"
fill="#000000" stroke="none">
<path d="M5 5178 c-3 -7 -4 -1174 -3 -2593 l3 -2580 24 -3 c13 -2 28 2 32 10
5 7 9 1149 9 2538 l0 2525 1258 -1258 c691 -691 1264 -1257 1272 -1257 8 0
581 566 1272 1257 l1258 1258 2 -2535 3 -2535 25 0 25 0 0 2590 c0 2535 0
2590 -19 2593 -14 3 -350 -327 -1295 -1272 l-1276 -1276 -1275 1275 c-740 740
-1282 1275 -1293 1275 -10 0 -20 -6 -22 -12z m1315 -1283 l1275 -1275 1276
1276 c932 932 1281 1275 1293 1271 15 -6 16 -228 16 -2575 0 -1413 -3 -2572
-7 -2575 -3 -4 -12 -2 -20 4 -11 10 -13 439 -13 2553 l0 2541 -1268 -1268
c-697 -697 -1272 -1267 -1277 -1267 -6 0 -579 569 -1275 1265 l-1265 1265 -5
-2545 c-3 -1684 -8 -2546 -15 -2548 -7 -1 -11 863 -13 2576 -2 2060 0 2577 10
2577 7 0 587 -574 1288 -1275z"/>
</g>
</svg>
