<?xml version="1.0" standalone="no"?>
<!DOCTYPE svg PUBLIC "-//W3C//DTD SVG 20010904//EN"
 "http://www.w3.org/TR/2001/REC-SVG-20010904/DTD/svg10.dtd">
<svg version="1.0" xmlns="http://www.w3.org/2000/svg"
 width="519.000000pt" height="519.000000pt" viewBox="0 0 519.000000 519.000000"
 preserveAspectRatio="xMidYMid meet">
<metadata>
Created by potrace 1.11, written by Peter Selinger 2001-2013
</metadata>
<g transform="translate(0.000000,519.000000) scale(0.100000,-0.100000)"
fill="#000000" stroke="none">
<path d="M20 5170 c-20 -20 -20 -33 -20 -2578 0 -2466 1 -2559 18 -2575 26
-24 68 -21 86 5 14 20 16 273 16 2493 l0 2470 1223 -1223 c1080 -1079 1226
-1222 1252 -1222 27 0 172 142 1250 1220 671 671 1223 1220 1227 1220 5 0 8
-1116 8 -2480 0 -2441 0 -2479 19 -2490 28 -14 57 -12 75 6 14 14 16 262 16
2579 l0 2564 -22 15 c-12 9 -29 16 -38 16 -8 0 -581 -566 -1272 -1257 l-1258
-1258 -1258 1258 c-921 921 -1263 1257 -1280 1257 -12 0 -31 -9 -42 -20z
m1315 -1270 l1260 -1260 1260 1260 c693 693 1267 1260 1275 1260 9 0 21 -5 28
-12 9 -9 12 -590 12 -2554 0 -2298 -2 -2544 -16 -2558 -19 -19 -26 -20 -42 -4
-9 9 -12 581 -12 2512 l0 2501 -1243 -1243 c-683 -683 -1249 -1242 -1257
-1242 -8 0 -576 561 -1262 1247 l-1248 1248 0 -2511 c0 -2311 -1 -2512 -16
-2518 -46 -18 -44 -142 -44 2569 0 1403 3 2555 7 2558 3 4 13 7 22 7 9 0 583
-567 1276 -1260z"/>
</g>
</svg>
