<?xml version="1.0" standalone="no"?>
<!DOCTYPE svg PUBLIC "-//W3C//DTD SVG 20010904//EN"
 "http://www.w3.org/TR/2001/REC-SVG-20010904/DTD/svg10.dtd">
<svg version="1.0" xmlns="http://www.w3.org/2000/svg"
 width="520.000000pt" height="520.000000pt" viewBox="0 0 520.000000 520.000000"
 preserveAspectRatio="xMidYMid meet">
<metadata>
Created by potrace 1.11, written by Peter Selinger 2001-2013
</metadata>
<g transform="translate(0.000000,520.000000) scale(0.100000,-0.100000)"
fill="#000000" stroke="none">
<path d="M42 5190 c-12 -5 -27 -21 -32 -35 -7 -17 -10 -920 -10 -2561 l0
-2535 25 -24 c34 -35 96 -35 130 0 l25 24 0 2416 0 2416 1186 -1185 c685 -686
1195 -1189 1209 -1192 13 -3 35 -2 49 3 14 4 556 538 1205 1186 648 647 1181
1177 1185 1177 3 0 6 -1086 6 -2413 l0 -2414 23 -21 c23 -22 76 -29 112 -16
47 19 45 -111 45 2584 0 2806 6 2582 -66 2596 -19 3 -44 4 -56 0 -13 -3 -576
-559 -1253 -1235 l-1229 -1231 -1226 1226 c-674 674 -1232 1229 -1240 1234
-19 12 -58 12 -88 0z m1310 -1277 l1248 -1248 1248 1248 c686 686 1252 1247
1259 1247 6 0 19 -7 27 -16 14 -14 16 -259 16 -2543 0 -1952 -3 -2530 -12
-2539 -15 -15 -51 -15 -66 0 -9 9 -12 572 -12 2472 l0 2461 -1218 -1218 c-966
-966 -1222 -1217 -1242 -1217 -20 0 -276 251 -1242 1217 l-1218 1218 0 -2453
c0 -1672 -3 -2459 -10 -2473 -14 -26 -66 -26 -80 0 -7 14 -10 820 -10 2535 0
2503 0 2516 20 2536 11 11 26 20 32 20 7 0 574 -561 1260 -1247z"/>
</g>
</svg>
