<?xml version="1.0" standalone="no"?>
<!DOCTYPE svg PUBLIC "-//W3C//DTD SVG 20010904//EN"
 "http://www.w3.org/TR/2001/REC-SVG-20010904/DTD/svg10.dtd">
<svg version="1.0" xmlns="http://www.w3.org/2000/svg"
 width="519.000000pt" height="519.000000pt" viewBox="0 0 519.000000 519.000000"
 preserveAspectRatio="xMidYMid meet">
<metadata>
Created by potrace 1.11, written by Peter Selinger 2001-2013
</metadata>
<g transform="translate(0.000000,519.000000) scale(0.100000,-0.100000)"
fill="#000000" stroke="none">
<path d="M63 5170 c-69 -41 -63 186 -61 -2590 l3 -2512 37 -34 c43 -38 88 -45
138 -19 65 33 60 -159 60 2417 l0 2343 1143 -1142 c695 -696 1154 -1146 1172
-1153 75 -28 11 -87 1247 1148 l1148 1147 0 -2339 c0 -2568 -5 -2381 59 -2419
57 -34 137 -13 166 43 13 26 15 315 15 2539 l0 2510 -31 35 c-32 37 -79 53
-121 41 -12 -4 -566 -550 -1230 -1213 l-1208 -1207 -1202 1202 c-681 681
-1215 1207 -1231 1213 -41 15 -68 12 -104 -10z m1307 -1265 l1225 -1225 1225
1225 c817 817 1232 1225 1245 1225 11 0 31 -7 43 -16 l22 -15 0 -2501 c0
-2314 -1 -2503 -17 -2520 -20 -22 -61 -23 -85 -1 -17 15 -18 104 -18 2427 l0
2411 -1193 -1193 c-942 -942 -1197 -1192 -1217 -1192 -20 0 -275 250 -1215
1190 -655 655 -1193 1190 -1198 1190 -4 0 -7 -1084 -7 -2409 0 -2177 -2 -2411
-16 -2425 -23 -24 -70 -20 -88 6 -14 20 -16 275 -16 2515 0 2480 0 2493 20
2513 11 11 30 20 43 20 16 0 346 -324 1247 -1225z"/>
</g>
</svg>
