<?xml version="1.0" standalone="no"?>
<!DOCTYPE svg PUBLIC "-//W3C//DTD SVG 20010904//EN"
 "http://www.w3.org/TR/2001/REC-SVG-20010904/DTD/svg10.dtd">
<svg version="1.0" xmlns="http://www.w3.org/2000/svg"
 width="519.000000pt" height="519.000000pt" viewBox="0 0 519.000000 519.000000"
 preserveAspectRatio="xMidYMid meet">
<metadata>
Created by potrace 1.11, written by Peter Selinger 2001-2013
</metadata>
<g transform="translate(0.000000,519.000000) scale(0.100000,-0.100000)"
fill="#000000" stroke="none">
<path d="M72 5170 c-18 -11 -41 -34 -52 -52 -20 -33 -20 -56 -20 -2521 0
-2733 -5 -2516 60 -2571 62 -52 175 -28 220 46 20 33 20 56 20 2318 l0 2285
1108 -1106 c897 -897 1114 -1109 1145 -1119 90 -28 10 -101 1225 1113 l1112
1112 0 -2275 c0 -2222 1 -2276 20 -2317 24 -55 70 -83 133 -83 59 0 102 21
127 63 20 32 20 70 20 2534 l0 2501 -26 32 c-47 55 -123 77 -177 49 -12 -6
-554 -543 -1204 -1193 l-1183 -1181 -1182 1182 c-671 671 -1195 1187 -1211
1193 -44 16 -99 12 -135 -10z m1313 -1260 l1210 -1210 1204 1204 c672 672
1215 1207 1228 1211 27 6 78 -17 87 -40 3 -9 6 -1128 6 -2486 l0 -2470 -25
-24 c-30 -31 -71 -32 -102 -3 l-23 21 0 2371 0 2371 -1168 -1168 c-1103 -1103
-1169 -1167 -1202 -1167 -33 0 -99 64 -1202 1167 l-1168 1168 0 -2358 c0
-2089 -2 -2361 -15 -2387 -27 -53 -103 -53 -130 0 -13 26 -15 309 -15 2490 l0
2462 29 29 c16 16 40 29 53 29 17 0 322 -300 1233 -1210z"/>
</g>
</svg>
