<?xml version="1.0" standalone="no"?>
<!DOCTYPE svg PUBLIC "-//W3C//DTD SVG 20010904//EN"
 "http://www.w3.org/TR/2001/REC-SVG-20010904/DTD/svg10.dtd">
<svg version="1.0" xmlns="http://www.w3.org/2000/svg"
 width="519.000000pt" height="519.000000pt" viewBox="0 0 519.000000 519.000000"
 preserveAspectRatio="xMidYMid meet">
<metadata>
Created by potrace 1.11, written by Peter Selinger 2001-2013
</metadata>
<g transform="translate(0.000000,519.000000) scale(0.100000,-0.100000)"
fill="#000000" stroke="none">
<path d="M123 5179 c-44 -13 -100 -70 -112 -116 -8 -26 -11 -809 -11 -2476 0
-2171 2 -2442 15 -2474 20 -48 41 -71 87 -94 66 -34 147 -22 202 29 60 56 56
-106 56 2309 l0 2218 1073 -1072 c929 -928 1077 -1073 1112 -1082 49 -13 51
-13 100 0 35 9 183 154 1113 1082 l1072 1072 0 -2215 c0 -2142 1 -2216 19
-2256 49 -107 190 -138 278 -61 68 60 63 -148 63 2552 0 2390 -1 2457 -19
2493 -23 46 -46 67 -94 87 -43 18 -68 19 -122 4 -35 -9 -194 -165 -1200 -1170
l-1160 -1159 -1150 1151 c-794 794 -1162 1157 -1190 1170 -43 20 -82 22 -132
8z m100 -90 c12 -6 552 -540 1199 -1187 l1178 -1177 1188 1188 c1076 1076
1190 1187 1219 1187 19 0 43 -10 62 -26 l31 -26 0 -2454 0 -2455 -25 -24 c-17
-18 -35 -25 -62 -25 -42 1 -63 13 -81 47 -9 16 -12 595 -12 2335 l0 2313
-1137 -1137 c-626 -625 -1148 -1139 -1161 -1143 -13 -4 -35 -4 -50 0 -18 4
-407 386 -1164 1143 l-1138 1137 0 -2323 0 -2323 -25 -24 c-37 -38 -95 -35
-129 6 l-26 31 0 2445 0 2445 29 29 c31 31 67 37 104 18z"/>
</g>
</svg>
