<?xml version="1.0" standalone="no"?>
<!DOCTYPE svg PUBLIC "-//W3C//DTD SVG 20010904//EN"
 "http://www.w3.org/TR/2001/REC-SVG-20010904/DTD/svg10.dtd">
<svg version="1.0" xmlns="http://www.w3.org/2000/svg"
 width="519.000000pt" height="519.000000pt" viewBox="0 0 519.000000 519.000000"
 preserveAspectRatio="xMidYMid meet">
<metadata>
Created by potrace 1.11, written by Peter Selinger 2001-2013
</metadata>
<g transform="translate(0.000000,519.000000) scale(0.100000,-0.100000)"
fill="#000000" stroke="none">
<path d="M111 5167 c-24 -12 -57 -42 -75 -66 l-31 -43 -3 -2441 c-2 -1713 0
-2453 8 -2479 14 -48 53 -94 101 -118 45 -24 134 -27 182 -7 44 19 103 87 116
134 8 26 11 702 11 2183 l0 2145 1038 -1036 c994 -993 1039 -1037 1085 -1048
51 -12 106 -7 147 15 14 7 486 474 1050 1038 564 564 1028 1026 1032 1026 5 0
8 -972 8 -2160 0 -2104 0 -2162 19 -2198 37 -73 102 -112 185 -112 68 0 102
12 145 53 66 63 61 -142 61 2542 0 2384 0 2447 -19 2483 -50 97 -167 139 -269
97 -26 -11 -369 -348 -1172 -1150 l-1135 -1135 -1130 1131 c-779 780 -1142
1137 -1170 1150 -56 26 -131 25 -184 -4z m142 -88 c12 -6 545 -534 1185 -1173
l1162 -1161 1170 1170 1170 1170 46 0 c39 0 50 -5 75 -33 l29 -32 0 -2420 c0
-1854 -3 -2425 -12 -2445 -22 -48 -88 -68 -143 -43 -59 27 -55 -133 -55 2340
l0 2273 -1118 -1118 -1117 -1117 -50 0 -50 0 -1117 1117 -1118 1118 0 -2283 0
-2284 -29 -29 c-41 -41 -98 -41 -143 0 l-33 29 -3 2419 c-2 1842 1 2425 10
2447 21 52 92 80 141 55z"/>
</g>
</svg>
