<?xml version="1.0" standalone="no"?>
<!DOCTYPE svg PUBLIC "-//W3C//DTD SVG 20010904//EN"
 "http://www.w3.org/TR/2001/REC-SVG-20010904/DTD/svg10.dtd">
<svg version="1.0" xmlns="http://www.w3.org/2000/svg"
 width="519.000000pt" height="519.000000pt" viewBox="0 0 519.000000 519.000000"
 preserveAspectRatio="xMidYMid meet">
<metadata>
Created by potrace 1.11, written by Peter Selinger 2001-2013
</metadata>
<g transform="translate(0.000000,519.000000) scale(0.100000,-0.100000)"
fill="#000000" stroke="none">
<path d="M155 5175 c-52 -19 -130 -100 -144 -151 -8 -28 -11 -736 -11 -2434 1
-1975 3 -2402 14 -2433 49 -135 204 -196 334 -131 29 14 64 41 77 58 59 77 55
-70 55 2205 l0 2086 993 -992 c545 -545 1007 -999 1026 -1008 46 -23 146 -23
197 0 27 13 347 325 1031 1009 l993 991 0 -2100 c0 -2010 1 -2102 19 -2140 22
-50 86 -109 136 -125 20 -7 65 -10 101 -8 75 5 130 37 179 107 l30 43 3 2425
2 2426 -24 53 c-54 118 -204 167 -323 105 -22 -11 -495 -477 -1143 -1125
l-1105 -1106 -1120 1118 c-976 975 -1125 1120 -1161 1130 -54 16 -110 14 -159
-3z m145 -121 c14 -9 537 -528 1163 -1153 l1137 -1136 1148 1148 c1082 1082
1151 1149 1189 1154 45 6 93 -14 117 -49 14 -20 16 -264 16 -2426 l0 -2404
-34 -34 c-27 -27 -42 -34 -75 -34 -51 0 -86 16 -108 49 -17 25 -18 147 -23
2254 l-5 2227 -1080 -1080 c-766 -766 -1089 -1083 -1113 -1091 -74 -24 -24
-70 -1184 1089 l-1088 1087 0 -2223 c0 -2418 4 -2258 -54 -2296 -32 -20 -105
-21 -134 0 -56 39 -52 -131 -52 2459 0 2615 -4 2426 58 2459 36 20 92 20 122
0z"/>
</g>
</svg>
