<?xml version="1.0" standalone="no"?>
<!DOCTYPE svg PUBLIC "-//W3C//DTD SVG 20010904//EN"
 "http://www.w3.org/TR/2001/REC-SVG-20010904/DTD/svg10.dtd">
<svg version="1.0" xmlns="http://www.w3.org/2000/svg"
 width="519.000000pt" height="519.000000pt" viewBox="0 0 519.000000 519.000000"
 preserveAspectRatio="xMidYMid meet">
<metadata>
Created by potrace 1.11, written by Peter Selinger 2001-2013
</metadata>
<g transform="translate(0.000000,519.000000) scale(0.100000,-0.100000)"
fill="#000000" stroke="none">
<path d="M194 5180 c-61 -19 -126 -73 -158 -130 l-31 -55 -3 -2380 c-2 -2633
-7 -2440 63 -2522 19 -23 60 -54 91 -69 48 -24 63 -26 128 -22 86 6 145 35
196 95 64 78 60 -63 60 2152 l0 2016 948 -947 c1038 -1038 985 -990 1107 -991
122 0 69 -47 1107 991 l948 947 2 -2030 3 -2030 21 -46 c44 -94 126 -150 232
-157 112 -8 211 51 258 153 l24 50 0 2391 0 2390 -26 52 c-32 65 -93 118 -158
137 -63 19 -99 19 -167 -1 -53 -15 -80 -42 -1146 -1107 l-1093 -1092 -1082
1082 c-778 777 -1096 1087 -1128 1103 -50 25 -147 35 -196 20z m141 -142 c11
-6 525 -515 1142 -1131 l1123 -1122 1133 1133 c1202 1202 1135 1139 1217 1132
36 -3 80 -38 96 -76 12 -28 14 -403 14 -2386 0 -2330 0 -2353 -20 -2386 -24
-39 -75 -72 -113 -72 -43 0 -94 28 -117 65 -20 32 -20 44 -20 2216 l0 2184
-1057 -1056 c-582 -582 -1068 -1062 -1080 -1068 -32 -16 -95 -13 -123 5 -14 9
-499 490 -1077 1068 l-1053 1051 0 -2189 0 -2189 -25 -33 c-53 -70 -158 -68
-212 3 l-28 36 -3 2345 c-1 1575 1 2357 8 2382 14 52 38 78 85 95 39 13 71 11
110 -7z"/>
</g>
</svg>
