<?xml version="1.0" standalone="no"?>
<!DOCTYPE svg PUBLIC "-//W3C//DTD SVG 20010904//EN"
 "http://www.w3.org/TR/2001/REC-SVG-20010904/DTD/svg10.dtd">
<svg version="1.0" xmlns="http://www.w3.org/2000/svg"
 width="520.000000pt" height="523.000000pt" viewBox="0 0 520.000000 523.000000"
 preserveAspectRatio="xMidYMid meet">
<metadata>
Created by potrace 1.11, written by Peter Selinger 2001-2013
</metadata>
<g transform="translate(0.000000,523.000000) scale(0.100000,-0.100000)"
fill="#000000" stroke="none">
<path d="M192 5210 c-70 -23 -118 -63 -156 -130 l-31 -55 0 -2410 0 -2410 25
-49 c54 -106 157 -162 284 -154 117 8 195 59 245 160 l31 61 0 1989 c0 1093 4
1988 8 1988 5 0 419 -414 921 -919 851 -858 916 -921 967 -940 78 -30 161 -28
233 4 50 23 155 125 961 938 498 502 910 913 915 915 7 2 10 -665 10 -1985 l0
-1988 28 -57 c69 -140 222 -202 373 -150 96 33 164 114 184 218 8 43 10 689 8
2414 l-3 2355 -23 50 c-59 129 -185 193 -328 166 -36 -6 -82 -22 -102 -35 -21
-13 -253 -242 -517 -507 -263 -266 -738 -744 -1054 -1062 l-575 -577 -796 802
c-437 442 -908 917 -1045 1056 -137 139 -266 264 -286 278 -43 30 -127 54
-184 53 -22 0 -64 -9 -93 -19z m176 -144 c15 -8 522 -515 1127 -1125 604 -611
1100 -1111 1101 -1111 2 0 688 690 1759 1768 247 249 462 460 477 468 69 36
165 4 200 -66 17 -33 18 -168 18 -2384 l0 -2350 -21 -42 c-15 -31 -32 -48 -63
-63 -50 -25 -75 -26 -122 -6 -42 17 -56 31 -78 72 -15 29 -16 215 -16 2185 l0
2153 -1043 -1047 c-992 -997 -1044 -1047 -1084 -1053 -72 -11 -111 16 -293
201 -91 92 -551 557 -1022 1033 l-858 864 0 -2139 c0 -1421 -4 -2151 -10
-2176 -13 -47 -67 -94 -119 -103 -54 -9 -123 22 -151 67 -20 33 -20 38 -17
2410 l2 2377 30 31 c17 18 39 36 50 40 32 14 104 11 133 -4z"/>
</g>
</svg>
