<?xml version="1.0" standalone="no"?>
<!DOCTYPE svg PUBLIC "-//W3C//DTD SVG 20010904//EN"
 "http://www.w3.org/TR/2001/REC-SVG-20010904/DTD/svg10.dtd">
<svg version="1.0" xmlns="http://www.w3.org/2000/svg"
 width="519.000000pt" height="519.000000pt" viewBox="0 0 519.000000 519.000000"
 preserveAspectRatio="xMidYMid meet">
<metadata>
Created by potrace 1.11, written by Peter Selinger 2001-2013
</metadata>
<g transform="translate(0.000000,519.000000) scale(0.100000,-0.100000)"
fill="#000000" stroke="none">
<path d="M226 5146 c-74 -31 -120 -69 -163 -130 -68 -99 -63 88 -61 -2452 l3
-2299 33 -67 c63 -129 174 -198 317 -198 101 0 173 28 243 94 65 61 98 122
112 207 6 42 10 673 10 1859 l0 1795 833 -832 c670 -669 843 -837 887 -860 50
-25 65 -28 156 -28 92 0 105 2 157 30 45 24 226 198 892 859 l835 828 2 -1848
3 -1849 32 -61 c40 -77 116 -146 191 -174 81 -31 215 -25 288 13 68 35 147
123 173 193 l21 55 -2 2317 -3 2317 -22 47 c-30 66 -102 139 -170 174 -53 26
-67 29 -158 29 -86 0 -107 -4 -150 -25 -39 -19 -267 -239 -1070 -1036 l-1020
-1012 -1010 1007 c-1136 1133 -1055 1062 -1214 1068 -74 3 -94 0 -145 -21z
m209 -155 c28 -13 366 -343 1101 -1074 l1061 -1056 1070 1064 c906 901 1076
1065 1109 1074 102 28 192 -12 235 -104 18 -39 19 -124 19 -2308 0 -2024 -2
-2272 -15 -2305 -70 -167 -317 -157 -365 16 -7 25 -10 693 -10 2040 l0 2004
-963 -957 c-661 -658 -975 -963 -1002 -976 -48 -23 -104 -24 -151 -4 -23 10
-361 338 -1002 976 l-967 961 -5 -2029 -5 -2029 -24 -36 c-36 -52 -84 -81
-145 -86 -100 -8 -182 50 -206 148 -8 32 -10 677 -8 2300 l3 2255 22 42 c49
90 156 127 248 84z"/>
</g>
</svg>
