<?xml version="1.0" standalone="no"?>
<!DOCTYPE svg PUBLIC "-//W3C//DTD SVG 20010904//EN"
 "http://www.w3.org/TR/2001/REC-SVG-20010904/DTD/svg10.dtd">
<svg version="1.0" xmlns="http://www.w3.org/2000/svg"
 width="519.000000pt" height="519.000000pt" viewBox="0 0 519.000000 519.000000"
 preserveAspectRatio="xMidYMid meet">
<metadata>
Created by potrace 1.11, written by Peter Selinger 2001-2013
</metadata>
<g transform="translate(0.000000,519.000000) scale(0.100000,-0.100000)"
fill="#000000" stroke="none">
<path d="M7 5183 c-4 -3 -7 -13 -7 -22 0 -9 576 -592 1280 -1296 l1280 -1280
0 -1281 c0 -1373 -2 -1312 47 -1302 17 3 18 61 21 1293 l2 1290 1281 1281
c944 944 1280 1286 1277 1300 -2 10 -12 20 -22 22 -14 3 -355 -332 -1295
-1272 l-1276 -1276 -1275 1275 c-701 701 -1282 1275 -1291 1275 -9 0 -19 -3
-22 -7z m1313 -1288 l1275 -1275 1275 1275 c701 701 1281 1275 1287 1275 7 0
13 -6 13 -12 0 -7 -575 -588 -1277 -1290 l-1278 -1278 -5 -1285 c-3 -844 -8
-1286 -15 -1288 -7 -1 -11 433 -13 1283 l-2 1285 -1280 1280 c-704 704 -1280
1286 -1280 1292 0 7 6 13 12 13 7 0 587 -574 1288 -1275z"/>
</g>
</svg>
