<?xml version="1.0" standalone="no"?>
<!DOCTYPE svg PUBLIC "-//W3C//DTD SVG 20010904//EN"
 "http://www.w3.org/TR/2001/REC-SVG-20010904/DTD/svg10.dtd">
<svg version="1.0" xmlns="http://www.w3.org/2000/svg"
 width="520.000000pt" height="520.000000pt" viewBox="0 0 520.000000 520.000000"
 preserveAspectRatio="xMidYMid meet">
<metadata>
Created by potrace 1.11, written by Peter Selinger 2001-2013
</metadata>
<g transform="translate(0.000000,520.000000) scale(0.100000,-0.100000)"
fill="#000000" stroke="none">
<path d="M20 5180 c-11 -11 -20 -30 -20 -43 0 -16 335 -357 1270 -1292 l1270
-1270 0 -1270 c0 -975 3 -1274 12 -1283 17 -17 74 -15 92 4 14 14 16 144 16
1282 l0 1267 1265 1265 c1150 1150 1265 1268 1265 1297 0 17 -7 39 -16 47 -44
44 2 87 -1324 -1239 l-1255 -1255 -1255 1255 c-923 923 -1261 1255 -1277 1255
-13 0 -32 -9 -43 -20z m1315 -1270 l1260 -1260 1260 1260 c693 693 1267 1260
1276 1260 26 0 42 -26 30 -47 -5 -10 -577 -585 -1270 -1278 l-1261 -1260 0
-1271 c0 -1347 1 -1305 -44 -1288 -15 6 -16 113 -16 1283 l0 1276 -1270 1270
c-698 698 -1270 1277 -1270 1286 0 20 9 29 29 29 9 0 583 -567 1276 -1260z"/>
</g>
</svg>
