<?xml version="1.0" standalone="no"?>
<!DOCTYPE svg PUBLIC "-//W3C//DTD SVG 20010904//EN"
 "http://www.w3.org/TR/2001/REC-SVG-20010904/DTD/svg10.dtd">
<svg version="1.0" xmlns="http://www.w3.org/2000/svg"
 width="519.000000pt" height="519.000000pt" viewBox="0 0 519.000000 519.000000"
 preserveAspectRatio="xMidYMid meet">
<metadata>
Created by potrace 1.11, written by Peter Selinger 2001-2013
</metadata>
<g transform="translate(0.000000,519.000000) scale(0.100000,-0.100000)"
fill="#000000" stroke="none">
<path d="M29 5161 c-32 -33 -37 -67 -15 -109 8 -15 573 -585 1255 -1267 l1241
-1240 0 -1251 0 -1251 23 -21 c23 -22 76 -29 112 -16 46 18 45 -17 45 1306 l0
1243 1250 1250 1250 1250 0 43 c0 57 -33 92 -87 92 -37 0 -68 -30 -1270 -1232
l-1233 -1233 -1223 1222 c-672 671 -1232 1226 -1244 1232 -37 19 -73 13 -104
-18z m1321 -1256 l1245 -1245 1240 1240 c682 682 1248 1243 1258 1246 23 7 57
-22 57 -50 0 -14 -391 -412 -1255 -1276 l-1255 -1255 0 -1251 c0 -959 -3
-1253 -12 -1262 -18 -18 -56 -14 -68 7 -7 13 -10 427 -10 1268 l0 1248 -1255
1255 c-690 690 -1255 1261 -1255 1268 0 16 36 52 52 52 7 0 573 -560 1258
-1245z"/>
</g>
</svg>
