<?xml version="1.0" standalone="no"?>
<!DOCTYPE svg PUBLIC "-//W3C//DTD SVG 20010904//EN"
 "http://www.w3.org/TR/2001/REC-SVG-20010904/DTD/svg10.dtd">
<svg version="1.0" xmlns="http://www.w3.org/2000/svg"
 width="519.000000pt" height="519.000000pt" viewBox="0 0 519.000000 519.000000"
 preserveAspectRatio="xMidYMid meet">
<metadata>
Created by potrace 1.11, written by Peter Selinger 2001-2013
</metadata>
<g transform="translate(0.000000,519.000000) scale(0.100000,-0.100000)"
fill="#000000" stroke="none">
<path d="M80 5183 c-28 -10 -69 -56 -75 -84 -16 -74 -61 -26 1241 -1329 l1234
-1235 0 -1234 0 -1233 34 -34 c29 -29 41 -34 80 -34 39 0 52 6 84 34 l37 34 3
1239 2 1238 1224 1225 c673 674 1229 1235 1235 1247 15 29 13 82 -3 111 -28
52 -100 76 -149 51 -12 -6 -563 -552 -1224 -1212 l-1203 -1202 -1202 1202
c-681 681 -1215 1207 -1231 1213 -30 11 -62 12 -87 3z m1295 -1283 l1220
-1220 1220 1220 c946 945 1226 1220 1244 1220 35 0 61 -28 61 -64 0 -28 -128
-159 -1230 -1261 l-1230 -1230 0 -1230 c0 -1355 4 -1275 -60 -1275 -64 0 -60
-94 -60 1268 l0 1237 -1235 1235 c-958 958 -1235 1241 -1235 1259 0 33 27 61
59 61 21 0 252 -226 1246 -1220z"/>
</g>
</svg>
