<?xml version="1.0" standalone="no"?>
<!DOCTYPE svg PUBLIC "-//W3C//DTD SVG 20010904//EN"
 "http://www.w3.org/TR/2001/REC-SVG-20010904/DTD/svg10.dtd">
<svg version="1.0" xmlns="http://www.w3.org/2000/svg"
 width="519.000000pt" height="519.000000pt" viewBox="0 0 519.000000 519.000000"
 preserveAspectRatio="xMidYMid meet">
<metadata>
Created by potrace 1.11, written by Peter Selinger 2001-2013
</metadata>
<g transform="translate(0.000000,519.000000) scale(0.100000,-0.100000)"
fill="#000000" stroke="none">
<path d="M72 5170 c-65 -40 -92 -133 -58 -198 8 -15 560 -571 1225 -1237
l1211 -1210 0 -1215 c0 -1173 1 -1216 19 -1244 63 -96 208 -88 262 14 18 33
19 86 19 1245 l0 1210 1220 1220 1220 1220 0 62 c0 52 -4 66 -26 93 -48 56
-114 74 -181 50 -16 -6 -540 -523 -1208 -1190 l-1180 -1180 -1175 1176 c-646
646 -1187 1182 -1202 1190 -39 20 -107 18 -146 -6z m1313 -1260 l1210 -1210
1204 1204 c672 672 1215 1207 1228 1211 27 6 78 -17 87 -40 21 -57 56 -20
-1219 -1295 l-1225 -1225 0 -1219 0 -1220 -22 -23 c-29 -31 -72 -30 -103 2
l-25 24 0 1223 0 1223 -1225 1225 c-922 922 -1225 1231 -1225 1248 0 30 52 82
82 82 17 0 322 -300 1233 -1210z"/>
</g>
</svg>
