<?xml version="1.0" standalone="no"?>
<!DOCTYPE svg PUBLIC "-//W3C//DTD SVG 20010904//EN"
 "http://www.w3.org/TR/2001/REC-SVG-20010904/DTD/svg10.dtd">
<svg version="1.0" xmlns="http://www.w3.org/2000/svg"
 width="519.000000pt" height="519.000000pt" viewBox="0 0 519.000000 519.000000"
 preserveAspectRatio="xMidYMid meet">
<metadata>
Created by potrace 1.11, written by Peter Selinger 2001-2013
</metadata>
<g transform="translate(0.000000,519.000000) scale(0.100000,-0.100000)"
fill="#000000" stroke="none">
<path d="M105 5176 c-37 -17 -80 -62 -94 -99 -14 -36 -14 -98 -1 -134 6 -16
531 -549 1210 -1228 l1200 -1200 0 -1194 c0 -1336 -6 -1235 73 -1292 33 -24
50 -29 99 -29 87 0 140 34 173 112 13 33 15 175 15 1220 l0 1183 1181 1180
c649 649 1192 1199 1206 1223 22 36 25 52 21 105 -3 45 -10 72 -27 95 -46 65
-140 89 -219 57 -26 -11 -375 -353 -1192 -1170 l-1155 -1155 -1155 1155 c-635
635 -1169 1162 -1187 1170 -38 18 -108 19 -148 1z m1312 -1268 l1183 -1183
1183 1183 c1182 1182 1182 1182 1223 1182 68 0 111 -68 80 -126 -8 -16 -551
-564 -1205 -1219 l-1191 -1190 0 -1198 c0 -1312 3 -1241 -59 -1266 -34 -15
-67 -7 -99 22 l-22 20 0 1206 0 1206 -1205 1205 -1205 1205 0 43 c0 59 33 92
92 92 l43 0 1182 -1182z"/>
</g>
</svg>
