<?xml version="1.0" standalone="no"?>
<!DOCTYPE svg PUBLIC "-//W3C//DTD SVG 20010904//EN"
 "http://www.w3.org/TR/2001/REC-SVG-20010904/DTD/svg10.dtd">
<svg version="1.0" xmlns="http://www.w3.org/2000/svg"
 width="519.000000pt" height="519.000000pt" viewBox="0 0 519.000000 519.000000"
 preserveAspectRatio="xMidYMid meet">
<metadata>
Created by potrace 1.11, written by Peter Selinger 2001-2013
</metadata>
<g transform="translate(0.000000,519.000000) scale(0.100000,-0.100000)"
fill="#000000" stroke="none">
<path d="M125 5171 c-106 -49 -154 -174 -106 -276 13 -28 383 -404 1195 -1215
l1176 -1175 0 -1176 0 -1176 23 -44 c35 -66 93 -102 171 -107 49 -3 71 0 103
17 53 27 98 82 112 137 8 30 11 399 11 1201 l0 1158 1176 1175 c689 688 1182
1188 1190 1207 8 18 14 57 14 86 0 142 -126 235 -267 197 -45 -12 -116 -81
-1188 -1151 l-1140 -1139 -1130 1131 c-779 780 -1142 1137 -1170 1150 -51 24
-119 24 -170 0z m132 -101 c16 -6 531 -514 1186 -1168 l1157 -1157 1165 1165
1165 1165 46 0 c39 0 50 -5 75 -33 22 -25 29 -42 29 -75 l0 -42 -1190 -1190
-1190 -1190 0 -1190 c0 -1112 -2 -1191 -18 -1211 -44 -55 -109 -59 -158 -10
l-34 34 0 1188 0 1189 -1184 1185 c-1039 1039 -1186 1189 -1191 1221 -8 45 14
92 53 113 33 18 52 19 89 6z"/>
</g>
</svg>
