<?xml version="1.0" standalone="no"?>
<!DOCTYPE svg PUBLIC "-//W3C//DTD SVG 20010904//EN"
 "http://www.w3.org/TR/2001/REC-SVG-20010904/DTD/svg10.dtd">
<svg version="1.0" xmlns="http://www.w3.org/2000/svg"
 width="520.000000pt" height="520.000000pt" viewBox="0 0 520.000000 520.000000"
 preserveAspectRatio="xMidYMid meet">
<metadata>
Created by potrace 1.11, written by Peter Selinger 2001-2013
</metadata>
<g transform="translate(0.000000,520.000000) scale(0.100000,-0.100000)"
fill="#000000" stroke="none">
<path d="M160 5187 c-32 -8 -58 -24 -91 -57 -58 -58 -78 -133 -59 -226 l12
-59 1151 -1154 c634 -635 1160 -1161 1170 -1169 16 -12 17 -80 17 -1166 0
-1254 -2 -1197 55 -1272 36 -47 106 -78 179 -78 80 0 129 18 176 65 74 75 70
-2 70 1283 l0 1151 1163 1162 c639 640 1167 1175 1174 1190 40 96 22 204 -47
274 -40 40 -54 48 -113 59 -53 10 -77 10 -119 0 -53 -12 -58 -18 -1168 -1126
-614 -613 -1122 -1114 -1130 -1114 -8 0 -515 500 -1125 1110 -1033 1033 -1114
1112 -1160 1125 -55 17 -90 17 -155 2z m154 -137 c17 -11 537 -526 1155 -1145
619 -619 1128 -1125 1131 -1125 3 0 512 506 1131 1125 618 619 1138 1134 1155
1145 19 12 49 20 74 20 34 0 48 -6 76 -34 28 -28 34 -42 34 -76 0 -25 -8 -55
-20 -74 -11 -17 -539 -550 -1175 -1185 l-1155 -1155 0 -1168 c0 -1284 4 -1210
-60 -1243 -37 -19 -83 -19 -120 0 -64 33 -60 -41 -60 1243 l0 1168 -1155 1155
c-636 635 -1164 1168 -1175 1185 -12 19 -20 49 -20 74 0 34 6 48 34 76 28 28
42 34 76 34 25 0 55 -8 74 -20z"/>
</g>
</svg>
