<?xml version="1.0" standalone="no"?>
<!DOCTYPE svg PUBLIC "-//W3C//DTD SVG 20010904//EN"
 "http://www.w3.org/TR/2001/REC-SVG-20010904/DTD/svg10.dtd">
<svg version="1.0" xmlns="http://www.w3.org/2000/svg"
 width="519.000000pt" height="519.000000pt" viewBox="0 0 519.000000 519.000000"
 preserveAspectRatio="xMidYMid meet">
<metadata>
Created by potrace 1.11, written by Peter Selinger 2001-2013
</metadata>
<g transform="translate(0.000000,519.000000) scale(0.100000,-0.100000)"
fill="#000000" stroke="none">
<path d="M176 5176 c-54 -20 -106 -65 -141 -121 -27 -44 -30 -57 -30 -129 0
-65 5 -90 24 -126 16 -32 364 -387 1162 -1185 l1139 -1140 0 -1135 0 -1135 24
-50 c28 -60 99 -127 154 -143 68 -21 152 -15 210 14 58 29 96 69 126 134 21
45 21 52 24 1185 l2 1140 1140 1140 c888 889 1144 1150 1159 1185 25 55 28
161 6 214 -21 49 -80 113 -129 139 -55 29 -184 31 -236 3 -19 -10 -524 -507
-1122 -1104 l-1088 -1087 -1082 1082 c-783 781 -1095 1087 -1128 1104 -57 28
-159 35 -214 15z m151 -136 c16 -6 516 -499 1151 -1133 l1122 -1122 1123 1122
c636 636 1134 1127 1150 1133 39 14 63 13 103 -6 64 -31 93 -119 60 -182 -8
-15 -530 -542 -1160 -1172 l-1146 -1145 0 -1155 c0 -1128 -1 -1156 -20 -1187
-52 -86 -184 -81 -232 8 -17 32 -18 89 -18 1184 l0 1150 -1154 1155 c-1020
1020 -1155 1159 -1161 1192 -20 107 82 195 182 158z"/>
</g>
</svg>
