<?xml version="1.0" standalone="no"?>
<!DOCTYPE svg PUBLIC "-//W3C//DTD SVG 20010904//EN"
 "http://www.w3.org/TR/2001/REC-SVG-20010904/DTD/svg10.dtd">
<svg version="1.0" xmlns="http://www.w3.org/2000/svg"
 width="519.000000pt" height="519.000000pt" viewBox="0 0 519.000000 519.000000"
 preserveAspectRatio="xMidYMid meet">
<metadata>
Created by potrace 1.11, written by Peter Selinger 2001-2013
</metadata>
<g transform="translate(0.000000,519.000000) scale(0.100000,-0.100000)"
fill="#000000" stroke="none">
<path d="M214 5180 c-54 -17 -128 -73 -161 -123 -42 -62 -57 -118 -50 -188 11
-122 -44 -62 1172 -1279 l1125 -1125 0 -1112 c0 -1093 0 -1113 20 -1166 27
-72 105 -147 179 -172 76 -25 171 -17 240 21 63 33 95 70 130 144 l26 55 3
1120 2 1120 1124 1125 c1262 1264 1173 1164 1164 1310 -3 43 -12 89 -22 108
-28 54 -86 112 -140 140 -71 37 -187 38 -261 3 -40 -19 -259 -232 -1110 -1082
l-1060 -1059 -1055 1055 c-863 864 -1065 1060 -1108 1082 -58 29 -164 40 -218
23z m159 -165 c18 -8 525 -508 1127 -1110 l1095 -1095 1105 1104 c1199 1198
1122 1128 1215 1113 94 -15 147 -127 101 -213 -8 -16 -521 -535 -1140 -1154
l-1126 -1125 0 -1130 c0 -1093 -1 -1131 -20 -1172 -47 -105 -197 -114 -261
-17 -18 28 -19 69 -19 1169 l0 1140 -1116 1115 c-614 613 -1129 1133 -1145
1154 -92 124 45 287 184 221z"/>
</g>
</svg>
