<?xml version="1.0" standalone="no"?>
<!DOCTYPE svg PUBLIC "-//W3C//DTD SVG 20010904//EN"
 "http://www.w3.org/TR/2001/REC-SVG-20010904/DTD/svg10.dtd">
<svg version="1.0" xmlns="http://www.w3.org/2000/svg"
 width="521.000000pt" height="521.000000pt" viewBox="0 0 521.000000 521.000000"
 preserveAspectRatio="xMidYMid meet">
<metadata>
Created by potrace 1.11, written by Peter Selinger 2001-2013
</metadata>
<g transform="translate(0.000000,521.000000) scale(0.100000,-0.100000)"
fill="#000000" stroke="none">
<path d="M263 5199 c-88 -17 -187 -98 -230 -189 -43 -89 -40 -234 8 -326 12
-23 458 -477 1115 -1134 l1094 -1095 2 -1100 c3 -1096 3 -1100 24 -1145 32
-68 107 -145 172 -177 51 -25 67 -28 157 -28 81 0 109 5 147 22 63 29 144 106
176 168 l27 50 5 1106 5 1107 1094 1093 c939 939 1098 1102 1120 1149 23 48
26 68 26 155 0 81 -4 109 -22 147 -30 67 -105 143 -172 175 -49 23 -69 27
-151 27 -170 1 -69 89 -1230 -1070 l-1025 -1024 -1010 1011 c-556 556 -1027
1022 -1048 1035 -71 46 -183 63 -284 43z m158 -164 c38 -13 188 -159 1114
-1085 l1070 -1070 1075 1073 c1126 1125 1096 1097 1176 1097 138 0 233 -150
175 -275 -13 -28 -362 -383 -1125 -1145 l-1106 -1105 0 -1110 c0 -1055 -1
-1112 -19 -1150 -55 -123 -217 -152 -312 -56 -20 20 -42 54 -48 76 -8 28 -11
368 -11 1140 l0 1100 -1110 1110 c-1010 1010 -1111 1114 -1126 1159 -34 102
18 208 121 244 43 15 75 14 126 -3z"/>
</g>
</svg>
