<?xml version="1.0" standalone="no"?>
<!DOCTYPE svg PUBLIC "-//W3C//DTD SVG 20010904//EN"
 "http://www.w3.org/TR/2001/REC-SVG-20010904/DTD/svg10.dtd">
<svg version="1.0" xmlns="http://www.w3.org/2000/svg"
 width="520.000000pt" height="520.000000pt" viewBox="0 0 520.000000 520.000000"
 preserveAspectRatio="xMidYMid meet">
<metadata>
Created by potrace 1.11, written by Peter Selinger 2001-2013
</metadata>
<g transform="translate(0.000000,520.000000) scale(0.100000,-0.100000)"
fill="#000000" stroke="none">
<path d="M1165 5189 c-215 -25 -432 -108 -613 -236 -96 -68 -258 -234 -325
-334 -99 -149 -169 -319 -204 -497 -25 -129 -22 -366 6 -499 54 -257 164 -465
349 -655 187 -193 392 -307 675 -375 66 -15 193 -17 1532 -23 1438 -6 1461 -6
1550 -27 251 -59 450 -168 625 -343 209 -208 328 -461 361 -770 29 -267 -47
-562 -207 -802 -202 -303 -528 -502 -899 -547 -61 -7 -515 -11 -1420 -11
-1441 0 -1443 0 -1630 55 -200 58 -377 165 -530 319 -222 222 -341 487 -363
807 -7 92 -7 94 -34 97 -37 4 -41 -18 -29 -146 54 -529 396 -961 894 -1127
204 -68 132 -65 1693 -65 1551 0 1497 -2 1689 61 441 146 771 507 876 960 31
134 37 362 14 501 -48 288 -174 528 -386 733 -174 169 -380 281 -628 342 -59
15 -222 17 -1526 23 -1591 7 -1508 4 -1697 65 -191 61 -353 160 -499 305 -338
336 -455 827 -303 1279 126 378 408 659 788 786 203 68 145 66 1721 62 1294
-3 1426 -5 1488 -20 262 -65 447 -166 623 -342 235 -233 345 -490 376 -875 3
-30 7 -35 28 -35 24 0 25 3 28 70 8 197 -82 488 -211 680 -197 294 -480 486
-835 567 l-97 22 -1400 2 c-787 1 -1435 -2 -1480 -7z m2915 -24 c205 -33 414
-121 571 -239 250 -189 415 -440 493 -751 22 -90 41 -284 28 -297 -20 -20 -32
3 -32 60 0 80 -25 226 -56 324 -121 385 -421 691 -802 818 -207 69 -113 65
-1692 65 l-1425 0 -104 -23 c-508 -112 -888 -501 -987 -1010 -25 -128 -23
-347 5 -479 53 -256 162 -457 345 -639 201 -201 429 -317 706 -359 80 -13 314
-15 1464 -15 1519 0 1483 1 1684 -66 453 -150 774 -510 873 -977 31 -144 31
-370 0 -514 -54 -255 -168 -469 -345 -648 -191 -192 -396 -306 -664 -367 l-97
-22 -1389 -3 c-1512 -4 -1509 -4 -1701 52 -482 140 -842 549 -920 1046 -17
114 -17 210 2 216 7 3 13 -24 18 -84 9 -115 39 -265 71 -355 132 -366 422
-651 784 -772 207 -69 133 -66 1686 -66 1540 0 1487 -2 1678 61 446 148 775
533 852 998 22 137 15 367 -16 491 -58 236 -181 452 -352 616 -169 163 -335
257 -570 321 l-103 28 -1460 6 c-1429 5 -1462 6 -1555 26 -257 56 -465 165
-645 335 -189 178 -307 383 -373 647 -23 95 -26 126 -27 286 0 253 33 395 141
605 126 243 311 428 554 554 143 74 261 111 440 139 14 2 655 5 1425 6 1212 1
1413 -1 1495 -14z"/>
</g>
</svg>
