<?xml version="1.0" standalone="no"?>
<!DOCTYPE svg PUBLIC "-//W3C//DTD SVG 20010904//EN"
 "http://www.w3.org/TR/2001/REC-SVG-20010904/DTD/svg10.dtd">
<svg version="1.0" xmlns="http://www.w3.org/2000/svg"
 width="520.000000pt" height="520.000000pt" viewBox="0 0 520.000000 520.000000"
 preserveAspectRatio="xMidYMid meet">
<metadata>
Created by potrace 1.11, written by Peter Selinger 2001-2013
</metadata>
<g transform="translate(0.000000,520.000000) scale(0.100000,-0.100000)"
fill="#000000" stroke="none">
<path d="M1196 5189 c-586 -58 -1069 -507 -1173 -1093 -21 -121 -21 -343 1
-461 99 -534 483 -934 1026 -1068 84 -20 108 -21 1535 -27 1572 -7 1464 -3
1650 -60 269 -83 526 -292 670 -546 263 -460 197 -1030 -163 -1414 -183 -196
-417 -323 -682 -371 -110 -20 -2809 -21 -2920 0 -464 84 -833 410 -961 851
-26 87 -49 231 -49 303 0 44 -5 62 -20 77 -28 28 -64 25 -89 -6 -19 -24 -20
-36 -15 -113 21 -305 133 -577 330 -803 180 -205 412 -345 691 -416 l108 -27
1455 0 c1370 0 1460 1 1538 18 528 117 924 511 1038 1037 26 118 27 410 1 527
-55 258 -166 469 -342 652 -184 192 -378 306 -643 379 l-97 27 -1450 5 c-1428
6 -1451 7 -1540 27 -328 77 -586 251 -760 513 -147 220 -213 455 -201 715 14
317 129 579 350 801 168 168 352 269 603 331 62 15 193 17 1458 20 981 3 1414
1 1470 -7 278 -39 515 -157 709 -355 203 -207 318 -472 341 -785 7 -93 17
-110 66 -110 53 0 62 22 56 140 -24 475 -317 911 -751 1116 -107 50 -186 77
-316 106 -95 22 -99 22 -1465 24 -753 1 -1410 -2 -1459 -7z m2914 -47 c137
-30 211 -56 335 -117 310 -153 550 -433 653 -761 43 -137 55 -203 56 -319 1
-97 0 -100 -22 -103 -28 -4 -29 -1 -42 135 -15 157 -50 286 -113 417 -155 319
-417 547 -747 651 -182 57 -156 56 -1683 53 l-1402 -3 -117 -32 c-445 -120
-778 -454 -889 -891 -141 -551 116 -1132 619 -1394 107 -56 202 -91 330 -120
97 -22 99 -22 1542 -28 1436 -6 1446 -6 1525 -27 118 -32 237 -77 321 -123
314 -169 547 -462 638 -803 38 -143 49 -244 43 -396 -9 -208 -48 -357 -143
-541 -181 -350 -502 -592 -897 -677 -76 -17 -182 -18 -1517 -18 -1556 0 -1474
-3 -1664 57 -452 142 -799 540 -880 1008 -33 194 -26 283 21 254 14 -9 19 -30
24 -100 42 -566 422 -1006 984 -1137 89 -21 110 -21 1435 -25 1366 -3 1476 -1
1626 34 463 107 824 479 926 954 27 124 29 346 4 473 -85 438 -401 802 -818
941 -188 63 -75 59 -1663 66 -1590 7 -1473 2 -1670 66 -419 137 -747 491 -851
919 -137 567 107 1144 610 1438 147 85 350 150 521 166 50 5 702 8 1450 7
1344 -2 1361 -3 1455 -24z"/>
</g>
</svg>
