<?xml version="1.0" standalone="no"?>
<!DOCTYPE svg PUBLIC "-//W3C//DTD SVG 20010904//EN"
 "http://www.w3.org/TR/2001/REC-SVG-20010904/DTD/svg10.dtd">
<svg version="1.0" xmlns="http://www.w3.org/2000/svg"
 width="520.000000pt" height="520.000000pt" viewBox="0 0 520.000000 520.000000"
 preserveAspectRatio="xMidYMid meet">
<metadata>
Created by potrace 1.11, written by Peter Selinger 2001-2013
</metadata>
<g transform="translate(0.000000,520.000000) scale(0.100000,-0.100000)"
fill="#000000" stroke="none">
<path d="M1188 5190 c-395 -47 -756 -272 -970 -605 -149 -230 -212 -449 -212
-730 0 -231 40 -408 135 -596 185 -369 497 -615 909 -717 l105 -26 1435 -6
c1565 -7 1447 -2 1630 -62 336 -108 623 -398 733 -738 41 -126 52 -206 52
-365 -1 -176 -18 -271 -76 -418 -156 -395 -502 -667 -924 -727 -44 -6 -575
-10 -1410 -10 -1470 0 -1434 -1 -1617 60 -402 135 -702 483 -772 895 -8 50
-18 126 -22 169 -5 64 -10 83 -30 102 -35 35 -87 33 -126 -7 l-31 -30 7 -98
c21 -333 146 -621 368 -857 196 -206 464 -350 744 -399 131 -23 2828 -23 2960
0 564 98 1001 535 1099 1099 20 117 19 336 -1 457 -81 479 -433 888 -896 1043
-189 64 -76 59 -1648 66 -1573 7 -1459 3 -1655 67 -342 112 -620 392 -734 742
-113 347 -48 749 170 1041 175 235 406 384 704 453 88 21 113 21 1390 25 1387
4 1478 1 1646 -44 371 -99 676 -386 799 -754 32 -95 60 -251 60 -338 0 -64 11
-87 51 -108 37 -18 74 -12 107 18 20 19 22 31 22 113 0 326 -160 682 -414 923
-185 174 -394 284 -656 344 -95 22 -95 22 -1480 24 -762 1 -1415 -2 -1452 -6z
m2932 -63 c198 -53 328 -110 471 -208 92 -63 218 -182 287 -271 152 -198 249
-451 268 -704 7 -102 -2 -134 -40 -134 -35 0 -43 17 -51 110 -20 253 -97 463
-239 655 -172 232 -400 380 -706 458 l-85 22 -1420 0 c-1349 0 -1424 -1 -1505
-19 -360 -79 -668 -315 -830 -636 -144 -285 -169 -623 -69 -924 134 -405 444
-685 889 -803 60 -16 184 -18 1500 -23 1584 -7 1466 -2 1672 -70 439 -146 773
-528 865 -987 24 -122 24 -368 0 -482 -60 -279 -166 -479 -357 -672 -159 -160
-329 -265 -535 -328 -192 -58 -123 -56 -1645 -56 l-1405 0 -105 23 c-509 113
-883 486 -1005 1002 -8 36 -18 118 -22 182 -6 117 -6 118 18 127 17 6 30 5 44
-4 17 -10 21 -28 28 -118 23 -320 180 -634 417 -832 171 -142 349 -228 565
-272 84 -17 176 -18 1475 -18 1291 0 1391 1 1473 18 247 50 453 160 628 336
235 234 352 518 352 851 0 322 -112 604 -332 833 -163 169 -372 290 -593 341
-144 33 -266 36 -1593 36 -1465 0 -1399 -3 -1605 66 -321 107 -597 348 -749
652 -146 291 -172 667 -68 982 65 199 163 357 317 510 155 155 314 254 516
319 194 62 123 60 1684 57 1318 -2 1430 -3 1490 -19z"/>
</g>
</svg>
