<?xml version="1.0" standalone="no"?>
<!DOCTYPE svg PUBLIC "-//W3C//DTD SVG 20010904//EN"
 "http://www.w3.org/TR/2001/REC-SVG-20010904/DTD/svg10.dtd">
<svg version="1.0" xmlns="http://www.w3.org/2000/svg"
 width="520.000000pt" height="520.000000pt" viewBox="0 0 520.000000 520.000000"
 preserveAspectRatio="xMidYMid meet">
<metadata>
Created by potrace 1.11, written by Peter Selinger 2001-2013
</metadata>
<g transform="translate(0.000000,520.000000) scale(0.100000,-0.100000)"
fill="#000000" stroke="none">
<path d="M1198 5189 c-42 -5 -119 -20 -170 -33 -517 -131 -899 -539 -1004
-1071 -26 -133 -24 -377 4 -512 117 -550 513 -944 1075 -1070 64 -15 236 -17
1487 -23 1407 -6 1415 -6 1496 -27 237 -64 409 -164 563 -329 238 -255 343
-604 285 -945 -83 -481 -464 -849 -950 -919 -57 -8 -462 -10 -1434 -7 -1481 3
-1378 -1 -1559 61 -219 76 -426 236 -557 432 -118 177 -167 333 -190 607 -5
57 -10 71 -35 97 -61 60 -155 44 -193 -34 -18 -37 -19 -48 -8 -165 37 -385
221 -726 516 -955 156 -121 308 -196 505 -250 l116 -31 1395 -3 c1497 -4 1492
-4 1670 48 484 139 843 524 956 1026 24 108 30 369 10 491 -79 500 -436 922
-911 1077 -196 64 -84 59 -1635 66 -1397 6 -1416 7 -1500 27 -226 57 -384 140
-535 284 -104 99 -166 184 -230 314 -275 557 -48 1224 509 1495 131 64 258 97
421 111 87 7 554 9 1400 7 1245 -4 1272 -5 1360 -25 236 -55 416 -153 572
-310 190 -193 301 -443 319 -717 10 -142 42 -186 135 -186 33 0 47 6 75 34 34
34 34 34 34 129 0 581 -437 1127 -1019 1272 -53 13 -140 29 -193 34 -119 13
-2666 13 -2780 0z m2770 -60 c218 -23 441 -106 611 -226 86 -60 228 -199 296
-288 145 -190 239 -446 252 -683 5 -99 4 -114 -12 -132 -10 -11 -31 -20 -46
-20 -40 0 -59 33 -59 101 0 70 -24 212 -51 302 -67 227 -226 452 -424 600
-101 76 -272 159 -395 192 -165 44 -279 47 -1650 43 -1245 -4 -1277 -5 -1365
-25 -49 -11 -131 -36 -181 -55 -373 -140 -652 -468 -735 -863 -26 -125 -26
-346 0 -470 107 -506 514 -877 1026 -935 57 -6 578 -10 1406 -10 1445 0 1398
2 1594 -61 194 -62 361 -165 515 -319 252 -251 380 -559 380 -916 0 -635 -454
-1173 -1079 -1278 -83 -14 -259 -16 -1456 -16 -1497 0 -1434 -2 -1633 61 -192
62 -345 154 -497 301 -230 220 -360 485 -394 800 -15 135 -14 146 14 173 29
30 45 31 75 7 19 -16 23 -32 31 -136 35 -470 352 -878 797 -1025 191 -64 147
-62 1657 -58 1239 3 1376 5 1437 20 241 60 420 159 583 322 170 170 279 374
326 610 18 88 18 358 1 440 -68 319 -249 588 -510 760 -114 75 -224 123 -370
163 l-97 27 -1415 6 c-1272 5 -1423 7 -1490 22 -527 118 -911 502 -1021 1020
-31 144 -31 370 0 514 55 260 169 471 356 658 213 213 474 340 771 374 108 13
2637 13 2752 0z"/>
</g>
</svg>
