<?xml version="1.0" standalone="no"?>
<!DOCTYPE svg PUBLIC "-//W3C//DTD SVG 20010904//EN"
 "http://www.w3.org/TR/2001/REC-SVG-20010904/DTD/svg10.dtd">
<svg version="1.0" xmlns="http://www.w3.org/2000/svg"
 width="520.000000pt" height="520.000000pt" viewBox="0 0 520.000000 520.000000"
 preserveAspectRatio="xMidYMid meet">
<metadata>
Created by potrace 1.11, written by Peter Selinger 2001-2013
</metadata>
<g transform="translate(0.000000,520.000000) scale(0.100000,-0.100000)"
fill="#000000" stroke="none">
<path d="M1218 5189 c-480 -52 -915 -376 -1104 -822 -194 -460 -131 -978 168
-1376 72 -96 220 -235 325 -304 153 -103 301 -166 488 -210 89 -21 110 -21
1490 -27 l1400 -5 98 -27 c386 -106 673 -393 774 -773 23 -89 26 -119 26 -265
1 -147 -2 -176 -26 -263 -103 -384 -387 -668 -774 -775 l-98 -27 -1340 -3
c-1194 -3 -1351 -1 -1438 13 -239 40 -445 149 -609 323 -184 196 -269 402
-294 715 -5 68 -10 83 -35 111 -38 43 -79 60 -133 54 -60 -7 -101 -39 -122
-94 -16 -42 -16 -58 -6 -173 30 -321 156 -598 374 -827 187 -195 401 -320 672
-392 l101 -27 1395 -3 c1256 -3 1405 -1 1495 13 430 71 799 341 998 732 102
201 147 390 147 623 0 329 -101 614 -308 872 -201 249 -509 427 -836 483 -76
13 -268 15 -1381 15 -823 0 -1330 4 -1394 10 -255 27 -477 133 -656 316 -224
227 -329 521 -303 844 32 405 311 769 694 906 204 73 108 69 1589 69 1240 0
1336 -1 1418 -18 454 -92 784 -430 862 -881 8 -49 15 -113 15 -143 0 -29 6
-68 14 -86 18 -43 68 -85 113 -93 50 -9 121 21 151 66 23 34 24 40 19 170 -15
343 -161 659 -420 907 -189 180 -404 293 -675 355 l-97 22 -1350 2 c-742 1
-1385 -2 -1427 -7z m2812 -84 c261 -43 495 -162 692 -353 241 -233 370 -515
394 -856 7 -92 6 -95 -19 -120 -31 -31 -79 -34 -106 -7 -14 14 -20 40 -25 102
-20 248 -86 438 -213 617 -161 227 -384 377 -673 454 l-85 22 -1345 4 c-1395
3 -1417 3 -1574 -38 -258 -68 -500 -243 -653 -472 -360 -541 -201 -1266 354
-1610 94 -58 197 -102 322 -136 l96 -27 1395 -5 c1395 -6 1395 -6 1492 -28
519 -118 891 -490 1009 -1007 29 -131 32 -387 5 -510 -88 -402 -331 -727 -676
-904 -119 -61 -207 -93 -341 -123 l-104 -23 -1375 0 c-1267 0 -1382 1 -1460
17 -276 57 -481 166 -676 362 -162 162 -250 303 -319 509 -58 175 -84 406 -50
454 28 40 89 37 122 -6 7 -9 13 -39 13 -68 1 -215 91 -474 228 -659 154 -205
386 -361 631 -423 161 -40 249 -42 1591 -38 1156 3 1293 5 1360 20 360 81 642
296 802 612 85 167 121 321 121 515 0 551 -371 1004 -923 1127 -67 15 -220 17
-1475 22 l-1400 6 -95 27 c-267 73 -464 188 -635 370 -172 183 -277 383 -332
633 -25 113 -29 343 -8 466 92 550 511 974 1060 1073 124 22 2737 23 2875 1z"/>
</g>
</svg>
