<?xml version="1.0" standalone="no"?>
<!DOCTYPE svg PUBLIC "-//W3C//DTD SVG 20010904//EN"
 "http://www.w3.org/TR/2001/REC-SVG-20010904/DTD/svg10.dtd">
<svg version="1.0" xmlns="http://www.w3.org/2000/svg"
 width="520.000000pt" height="520.000000pt" viewBox="0 0 520.000000 520.000000"
 preserveAspectRatio="xMidYMid meet">
<g transform="translate(0.000000,520.000000) scale(0.100000,-0.100000)"
fill="#000000" stroke="none">
<path d="M1260 5193 c-19 -2 -73 -11 -120 -19 -709 -127 -1204 -784 -1130
-1500 62 -609 491 -1088 1097 -1226 98 -22 99 -22 1483 -28 1382 -5 1385 -6
1462 -27 374 -106 635 -361 745 -728 24 -82 27 -105 27 -265 0 -138 -3 -189
-17 -240 -57 -206 -141 -355 -276 -491 -125 -124 -269 -208 -456 -266 l-90
-28 -1380 0 -1380 0 -84 23 c-179 49 -326 130 -449 247 -204 193 -308 416
-328 705 -10 150 -54 209 -160 218 -69 6 -96 -2 -138 -39 -55 -48 -70 -101
-62 -217 48 -666 541 -1202 1191 -1292 56 -8 488 -10 1455 -8 1362 4 1376 4
1460 25 271 68 484 187 675 378 195 195 323 428 381 695 24 108 27 436 5 545
-106 539 -510 959 -1051 1093 l-105 26 -1385 6 -1385 5 -95 27 c-52 14 -122
37 -156 51 -217 88 -412 269 -517 480 -169 337 -148 720 55 1028 145 220 347
363 617 438 l96 26 1310 2 c1419 2 1408 3 1570 -52 166 -56 306 -145 428 -275
169 -180 257 -385 276 -643 10 -139 30 -180 103 -216 74 -35 146 -25 201 27
48 45 57 73 57 174 0 304 -129 633 -342 874 -203 229 -452 374 -766 446 l-97
22 -1345 2 c-740 0 -1361 -1 -1380 -3z m2695 -94 c626 -76 1115 -591 1142
-1201 6 -126 6 -126 -20 -152 -34 -34 -85 -35 -123 -3 -25 22 -28 31 -35 138
-40 549 -458 983 -1000 1039 -136 14 -2521 14 -2644 0 -748 -85 -1201 -847
-915 -1540 154 -375 502 -633 915 -680 56 -6 574 -10 1370 -10 1417 0 1373 2
1572 -65 185 -62 336 -153 478 -287 185 -175 305 -379 370 -629 37 -141 46
-377 21 -528 -46 -274 -164 -501 -365 -702 -199 -199 -420 -315 -692 -363 -85
-15 -220 -17 -1474 -14 l-1380 3 -95 26 c-348 97 -607 286 -791 579 -119 188
-199 455 -199 666 0 77 62 126 125 99 45 -18 52 -37 65 -177 43 -479 373 -865
845 -989 l90 -24 1380 0 1380 0 88 23 c282 71 484 211 669 462 38 50 112 204
136 280 61 191 68 431 18 625 -92 356 -372 659 -717 775 -167 57 -81 54 -1574
60 -1366 6 -1381 6 -1470 27 -271 65 -459 168 -646 353 -158 157 -262 326
-327 530 -44 140 -57 228 -56 395 0 367 139 688 406 940 196 186 457 309 724
344 105 13 2619 13 2729 0z"/>
</g>
</svg>
