<?xml version="1.0" standalone="no"?>
<!DOCTYPE svg PUBLIC "-//W3C//DTD SVG 20010904//EN"
 "http://www.w3.org/TR/2001/REC-SVG-20010904/DTD/svg10.dtd">
<svg version="1.0" xmlns="http://www.w3.org/2000/svg"
 width="520.000000pt" height="520.000000pt" viewBox="0 0 520.000000 520.000000"
 preserveAspectRatio="xMidYMid meet">
<metadata>
Created by potrace 1.11, written by Peter Selinger 2001-2013
</metadata>
<g transform="translate(0.000000,520.000000) scale(0.100000,-0.100000)"
fill="#000000" stroke="none">
<path d="M1242 5189 c-531 -63 -988 -430 -1163 -935 -53 -154 -72 -272 -73
-454 0 -303 73 -544 243 -800 65 -98 224 -263 326 -338 147 -108 349 -197 558
-245 91 -21 114 -21 1457 -27 1360 -5 1365 -6 1441 -27 187 -53 336 -141 465
-275 136 -142 220 -303 260 -499 21 -103 15 -321 -11 -419 -79 -296 -290 -543
-564 -660 -188 -81 -60 -75 -1581 -75 l-1355 0 -85 23 c-397 109 -674 426
-729 835 -6 43 -11 99 -11 123 0 104 -100 204 -202 204 -94 0 -183 -65 -207
-153 -26 -91 8 -348 70 -524 144 -411 489 -744 904 -872 209 -64 143 -62 1651
-58 1517 3 1400 -2 1609 69 206 70 372 175 535 338 164 164 268 328 338 535
57 166 67 239 67 465 -1 179 -4 217 -24 300 -133 544 -541 944 -1091 1067 -67
15 -214 17 -1440 23 l-1365 5 -100 28 c-178 48 -306 120 -435 243 -150 144
-241 304 -287 508 -26 116 -21 318 10 437 49 188 136 338 271 466 134 129 262
201 445 251 l96 27 1275 3 c880 2 1301 0 1360 -8 351 -45 633 -248 781 -564
51 -109 78 -218 89 -358 9 -126 20 -155 72 -205 42 -40 79 -54 143 -54 60 0
91 10 134 46 56 48 71 91 71 203 0 335 -154 695 -404 944 -200 200 -429 325
-714 390 l-97 22 -1330 2 c-731 1 -1363 -2 -1403 -7z m2769 -115 c405 -69 756
-331 944 -703 77 -154 135 -389 135 -551 0 -57 -3 -65 -34 -96 -38 -38 -77
-44 -125 -19 -36 18 -48 51 -56 155 -36 476 -352 862 -810 988 l-100 27 -1365
0 -1365 0 -83 -22 c-321 -86 -575 -288 -719 -573 -45 -88 -89 -227 -103 -329
-17 -116 -8 -312 20 -420 101 -387 396 -683 791 -792 l84 -23 1370 -6 1370 -6
105 -26 c267 -66 455 -171 640 -357 190 -191 304 -405 357 -669 24 -119 24
-375 0 -489 -99 -467 -428 -841 -867 -987 -194 -64 -94 -60 -1552 -63 -1132
-3 -1341 -1 -1425 11 -523 79 -945 456 -1074 961 -39 155 -51 340 -25 380 45
69 156 61 184 -13 6 -15 13 -70 16 -122 14 -251 128 -501 311 -685 173 -175
396 -284 640 -314 116 -14 2512 -15 2635 -1 124 14 229 44 335 94 124 59 204
114 302 209 335 325 424 821 223 1244 -143 302 -407 511 -750 596 -83 20 -110
21 -1455 27 l-1370 5 -95 27 c-269 73 -462 187 -639 374 -174 184 -292 418
-336 668 -19 114 -19 328 0 442 48 274 186 529 389 722 143 135 294 225 480
287 196 66 128 63 1592 64 1181 1 1341 -1 1425 -15z"/>
</g>
</svg>
