<?xml version="1.0" standalone="no"?>
<!DOCTYPE svg PUBLIC "-//W3C//DTD SVG 20010904//EN"
 "http://www.w3.org/TR/2001/REC-SVG-20010904/DTD/svg10.dtd">
<svg version="1.0" xmlns="http://www.w3.org/2000/svg"
 width="520.000000pt" height="520.000000pt" viewBox="0 0 520.000000 520.000000"
 preserveAspectRatio="xMidYMid meet">
<metadata>
Created by potrace 1.11, written by Peter Selinger 2001-2013
</metadata>
<g transform="translate(0.000000,520.000000) scale(0.100000,-0.100000)"
fill="#000000" stroke="none">
<path d="M1315 5193 c-346 -29 -654 -171 -895 -413 -358 -357 -495 -860 -371
-1353 84 -331 287 -622 570 -816 159 -108 310 -173 511 -219 l115 -26 1350 -6
1350 -6 74 -22 c317 -97 544 -313 647 -614 35 -103 47 -202 41 -340 -9 -231
-89 -422 -246 -590 -119 -127 -242 -204 -421 -264 l-85 -29 -1350 0 -1350 0
-80 23 c-330 96 -580 349 -661 670 -13 51 -27 137 -30 190 -10 149 -54 228
-150 268 -93 39 -228 0 -284 -81 -47 -68 -54 -116 -41 -261 59 -627 500 -1129
1111 -1266 l105 -23 1370 0 c1283 0 1375 1 1454 18 294 64 521 185 727 391
203 203 325 428 389 716 25 113 31 372 12 495 -94 592 -517 1041 -1112 1178
-88 21 -119 21 -1440 27 l-1350 5 -79 23 c-241 67 -425 198 -555 393 -109 161
-155 316 -155 519 0 203 46 358 155 519 131 197 320 330 560 394 l84 22 1310
0 1310 0 89 -23 c277 -70 505 -254 625 -505 54 -112 80 -210 91 -352 12 -141
32 -192 98 -242 115 -87 272 -59 347 62 30 48 30 50 30 184 -1 103 -6 161 -24
240 -132 604 -634 1050 -1250 1111 -93 9 -2489 12 -2596 3z m2720 -140 c267
-64 468 -172 649 -350 197 -194 324 -437 371 -707 20 -116 20 -238 0 -276 -30
-58 -104 -76 -163 -40 -45 27 -58 66 -65 185 -22 363 -245 694 -582 860 -121
60 -217 89 -345 105 -115 14 -2495 14 -2608 0 -420 -53 -769 -350 -886 -754
-182 -628 237 -1264 886 -1346 53 -6 536 -10 1336 -10 846 0 1277 -4 1325 -11
237 -35 437 -120 623 -265 253 -196 425 -485 480 -810 24 -142 15 -383 -19
-514 -68 -261 -185 -461 -373 -639 -168 -159 -349 -257 -599 -324 -80 -21 -86
-21 -1420 -25 -1193 -3 -1351 -1 -1437 13 -594 98 -1037 590 -1083 1201 -6 76
-4 97 10 128 33 70 128 90 186 38 30 -26 31 -32 45 -161 18 -173 42 -260 109
-396 138 -279 376 -473 685 -557 l85 -23 1355 0 1355 0 85 24 c189 52 366 157
497 294 126 132 210 278 259 453 32 111 43 323 24 441 -60 378 -318 694 -674
828 -167 63 -63 58 -1541 65 -1347 6 -1350 6 -1447 28 -521 119 -900 499
-1009 1015 -29 134 -31 360 -6 490 116 581 566 994 1157 1060 19 2 622 3 1340
3 1297 -2 1306 -2 1395 -23z"/>
</g>
</svg>
