<?xml version="1.0" standalone="no"?>
<!DOCTYPE svg PUBLIC "-//W3C//DTD SVG 20010904//EN"
 "http://www.w3.org/TR/2001/REC-SVG-20010904/DTD/svg10.dtd">
<svg version="1.0" xmlns="http://www.w3.org/2000/svg"
 width="520.000000pt" height="520.000000pt" viewBox="0 0 520.000000 520.000000"
 preserveAspectRatio="xMidYMid meet">
<metadata>
Created by potrace 1.11, written by Peter Selinger 2001-2013
</metadata>
<g transform="translate(0.000000,520.000000) scale(0.100000,-0.100000)"
fill="#000000" stroke="none">
<path d="M1315 5193 c-340 -29 -646 -173 -891 -417 -214 -215 -342 -458 -400
-761 -26 -136 -24 -388 5 -525 59 -279 180 -513 368 -711 220 -230 482 -368
828 -435 22 -4 639 -10 1370 -13 l1330 -7 72 -22 c332 -102 573 -359 638 -682
89 -440 -159 -877 -581 -1024 -148 -52 -120 -51 -1464 -51 -1155 0 -1261 1
-1333 17 -151 34 -295 105 -400 197 -196 172 -294 372 -316 647 -12 149 -44
212 -134 264 -68 39 -138 47 -213 25 -47 -13 -70 -28 -111 -70 -69 -71 -88
-133 -80 -260 44 -656 494 -1185 1127 -1327 l105 -23 1360 0 c1472 0 1396 -3
1589 56 228 70 410 181 587 358 225 227 357 482 405 789 20 131 15 395 -11
512 -84 383 -321 723 -644 925 -124 77 -305 150 -466 188 -88 21 -113 21
-1425 27 l-1335 5 -80 23 c-323 90 -560 328 -646 647 -29 105 -32 316 -6 419
44 175 117 306 242 431 134 134 273 208 463 247 88 18 149 18 1365 16 l1272
-3 80 -23 c392 -114 640 -423 670 -837 8 -110 14 -133 51 -187 103 -149 342
-144 443 9 38 56 45 107 38 247 -29 570 -427 1083 -979 1261 -224 73 -130 69
-1563 70 -710 1 -1308 0 -1330 -2z m2735 -161 c463 -124 799 -428 940 -850 59
-177 87 -410 57 -467 -29 -57 -63 -80 -120 -80 -98 0 -131 47 -141 197 -24
363 -240 690 -565 853 -63 32 -109 49 -206 78 -69 21 -81 21 -1382 24 -1256 3
-1317 3 -1405 -15 -399 -82 -717 -398 -799 -796 -25 -122 -25 -300 0 -422 69
-333 301 -609 623 -742 170 -70 61 -65 1538 -72 1330 -6 1335 -6 1432 -28 397
-90 713 -332 892 -682 102 -199 141 -363 140 -595 0 -361 -122 -655 -378 -910
-195 -194 -392 -301 -667 -361 -79 -18 -155 -19 -1409 -19 -1468 0 -1374 -4
-1582 65 -498 166 -851 632 -875 1152 l-6 127 40 41 c36 35 46 40 88 40 101 0
140 -56 148 -215 17 -299 190 -596 448 -768 104 -69 195 -110 319 -145 l95
-27 1265 -3 c930 -3 1289 0 1355 8 218 29 414 123 577 278 456 435 412 1181
-94 1562 -146 110 -311 176 -501 200 -52 6 -537 10 -1322 10 -1365 0 -1329 -1
-1520 61 -203 67 -361 165 -515 319 -252 250 -380 560 -380 916 0 634 448
1167 1075 1278 67 12 299 14 1415 12 l1335 -2 85 -22z"/>
</g>
</svg>
