<?xml version="1.0" standalone="no"?>
<!DOCTYPE svg PUBLIC "-//W3C//DTD SVG 20010904//EN"
 "http://www.w3.org/TR/2001/REC-SVG-20010904/DTD/svg10.dtd">
<svg version="1.0" xmlns="http://www.w3.org/2000/svg"
 width="520.000000pt" height="520.000000pt" viewBox="0 0 520.000000 520.000000"
 preserveAspectRatio="xMidYMid meet">
<metadata>
Created by potrace 1.11, written by Peter Selinger 2001-2013
</metadata>
<g transform="translate(0.000000,520.000000) scale(0.100000,-0.100000)"
fill="#000000" stroke="none">
<path d="M1290 5189 c-318 -36 -605 -171 -836 -392 -262 -250 -410 -555 -445
-921 -28 -287 44 -609 190 -856 186 -313 491 -553 833 -656 200 -60 127 -57
1558 -63 l1315 -7 69 -21 c164 -53 275 -122 391 -245 213 -225 283 -545 185
-842 -43 -126 -109 -233 -206 -330 -141 -141 -317 -225 -520 -246 -66 -8 -496
-10 -1294 -8 l-1195 4 -83 22 c-371 99 -622 399 -648 776 -8 132 -26 184 -80
245 -62 69 -111 93 -200 99 -131 8 -234 -50 -291 -166 -26 -53 -28 -65 -27
-172 3 -253 86 -522 228 -743 223 -348 609 -593 1021 -647 54 -7 513 -10 1395
-8 l1315 4 106 26 c551 137 957 544 1087 1090 24 103 27 130 27 318 0 163 -4
222 -19 290 -59 272 -184 512 -366 703 -208 219 -434 349 -740 425 l-105 26
-1320 6 -1320 6 -79 22 c-239 67 -442 233 -547 448 -247 508 54 1104 612 1209
76 14 221 15 1335 13 l1249 -3 79 -23 c371 -107 603 -403 632 -802 10 -149 57
-229 169 -288 42 -23 62 -27 130 -26 98 0 161 28 223 99 63 72 76 123 69 279
-12 306 -125 595 -327 841 -172 209 -396 361 -662 450 -217 72 -130 68 -1553
71 -704 1 -1314 -2 -1355 -7z m2715 -166 c186 -43 317 -99 468 -199 285 -190
493 -511 552 -852 20 -111 20 -254 0 -292 -43 -83 -153 -104 -226 -43 -42 36
-50 60 -60 188 -36 474 -388 847 -864 915 -100 14 -2459 13 -2561 -1 -531 -74
-915 -564 -857 -1092 49 -431 350 -768 783 -875 57 -14 220 -17 1385 -22
l1320 -6 102 -27 c259 -68 440 -171 624 -356 146 -148 239 -299 304 -494 47
-140 65 -255 65 -412 0 -271 -73 -510 -223 -735 -64 -96 -241 -273 -337 -337
-155 -104 -336 -176 -516 -208 -131 -23 -2606 -22 -2737 0 -470 83 -863 424
-1011 879 -32 97 -53 208 -62 323 -6 78 -4 95 14 136 13 29 33 54 54 67 43 26
113 26 156 0 53 -32 68 -69 75 -179 17 -248 110 -462 281 -640 122 -126 263
-212 441 -268 l90 -28 1325 0 1325 0 82 22 c171 46 328 136 454 262 124 125
216 282 261 448 26 99 36 313 18 422 -62 386 -344 692 -740 804 -74 21 -86 22
-1390 27 -1312 6 -1315 6 -1412 28 -527 120 -903 503 -1015 1032 -24 117 -24
363 0 480 38 181 109 350 210 500 65 96 231 262 327 327 182 122 402 204 610
226 19 2 611 3 1315 3 1261 -2 1281 -2 1370 -23z"/>
</g>
</svg>
