<?xml version="1.0" standalone="no"?>
<!DOCTYPE svg PUBLIC "-//W3C//DTD SVG 20010904//EN"
 "http://www.w3.org/TR/2001/REC-SVG-20010904/DTD/svg10.dtd">
<svg version="1.0" xmlns="http://www.w3.org/2000/svg"
 width="520.000000pt" height="520.000000pt" viewBox="0 0 520.000000 520.000000"
 preserveAspectRatio="xMidYMid meet">
<metadata>
Created by potrace 1.11, written by Peter Selinger 2001-2013
</metadata>
<g transform="translate(0.000000,520.000000) scale(0.100000,-0.100000)"
fill="#000000" stroke="none">
<path d="M1345 5193 c-336 -29 -646 -170 -887 -402 -223 -213 -361 -461 -425
-761 -32 -149 -36 -391 -9 -545 81 -460 378 -854 799 -1060 135 -66 245 -103
397 -132 76 -15 226 -18 1375 -23 1426 -7 1321 -2 1472 -70 160 -73 303 -212
386 -377 53 -103 79 -217 80 -343 1 -128 -11 -200 -55 -309 -95 -240 -297
-415 -563 -489 -54 -15 -181 -17 -1274 -19 -1058 -3 -1225 -2 -1303 12 -273
47 -485 208 -602 456 -47 99 -65 172 -75 305 -14 176 -65 265 -188 326 -126
62 -273 38 -373 -62 -23 -23 -54 -67 -69 -99 -24 -51 -26 -66 -25 -171 2 -211
49 -403 148 -605 144 -293 372 -522 661 -664 128 -63 196 -88 340 -123 l90
-22 1309 -3 c1264 -3 1314 -3 1425 16 450 77 839 362 1050 771 74 143 116 267
143 425 17 101 19 147 15 290 -6 185 -19 261 -72 422 -72 215 -183 392 -354
564 -210 209 -446 337 -740 402 -94 20 -126 21 -1396 27 -1427 6 -1324 2
-1477 66 -140 58 -292 190 -372 322 -139 228 -152 543 -33 777 84 167 245 316
415 385 155 63 103 61 1472 58 1395 -4 1278 3 1448 -78 187 -89 328 -240 401
-430 34 -87 61 -224 61 -306 0 -115 81 -239 187 -286 73 -33 183 -36 258 -7
80 30 154 104 183 182 51 134 13 440 -82 674 -188 461 -589 785 -1101 890 -71
15 -217 17 -1340 18 -693 1 -1278 0 -1300 -2z m2605 -178 c318 -52 631 -245
827 -510 144 -194 235 -448 249 -695 5 -97 4 -109 -18 -150 -26 -50 -89 -90
-143 -90 -46 0 -117 40 -139 79 -14 24 -22 65 -28 140 -19 242 -102 437 -260
605 -122 131 -270 223 -449 278 l-74 23 -1270 3 c-1339 3 -1350 3 -1483 -42
-344 -118 -596 -411 -652 -760 -20 -120 -8 -321 24 -430 56 -187 176 -368 323
-484 88 -71 242 -150 353 -184 l75 -22 1305 -6 c1298 -6 1306 -6 1402 -28 741
-168 1179 -876 994 -1605 -30 -116 -89 -253 -157 -365 -75 -120 -281 -326
-401 -401 -165 -100 -349 -166 -540 -191 -57 -8 -474 -10 -1343 -8 -1245 4
-1261 4 -1350 25 -467 111 -817 427 -965 871 -61 186 -79 435 -35 494 73 97
230 87 280 -18 11 -23 21 -79 26 -148 5 -61 18 -144 29 -185 95 -337 366 -599
716 -688 64 -17 160 -18 1349 -18 l1280 0 89 23 c288 73 520 266 647 537 77
165 107 383 75 561 -68 390 -339 681 -731 787 -79 21 -91 21 -1385 27 -1287 6
-1306 6 -1392 27 -192 48 -388 143 -529 259 -247 202 -410 481 -465 794 -25
145 -15 390 21 529 132 506 527 873 1039 966 55 10 355 13 1341 14 1097 1
1283 -1 1365 -14z"/>
</g>
</svg>
